<svg width="42" height="42" viewBox="0 0 42 42" fill="none" xmlns="http://www.w3.org/2000/svg">
<rect width="42" height="42" rx="4" fill="#E2E8F7"/>
<g clip-path="url(#clip0_1349_4159)">
<path fill-rule="evenodd" clip-rule="evenodd" d="M34.5473 33.7296V7.87458H19.8897V16.7972L19.0175 16.1042V7.6404C19.031 7.47697 19.1021 7.32366 19.2183 7.20789C19.2832 7.14203 19.3606 7.08973 19.4459 7.05404C19.5312 7.01835 19.6228 6.99998 19.7153 7H34.7217C34.8136 6.99998 34.9047 7.01813 34.9895 7.0534C35.0744 7.08866 35.1515 7.14036 35.2164 7.2055L35.2474 7.23896C35.3616 7.36636 35.4245 7.53148 35.4242 7.70253V14.4435V33.7296H30.9152V27.813C30.9152 27.7072 30.8731 27.6057 30.7983 27.5309C30.7234 27.456 30.6219 27.414 30.5161 27.414H27.6749V34.6042H35.4266V33.7296H34.5473ZM7.91327 34.6018V26.0543C7.58967 26.1911 7.2279 26.2081 6.89293 26.1021C6.67202 26.0281 6.47708 25.892 6.33138 25.7102C6.18398 25.5279 6.0912 25.3075 6.06375 25.0746C6.04437 24.8598 6.06844 24.6433 6.13454 24.4381C6.20064 24.2328 6.3074 24.0429 6.44847 23.8798C6.46496 23.8598 6.48337 23.8414 6.50343 23.8249L15.6746 16.6562C15.7325 16.6017 15.8082 16.57 15.8877 16.5669C15.9672 16.5639 16.0451 16.5896 16.1071 16.6395L25.2997 23.7843L25.3403 23.8201C25.5234 23.9979 25.6585 24.219 25.7333 24.4629C25.8081 24.7069 25.82 24.9658 25.768 25.2156C25.7188 25.4231 25.6188 25.6152 25.477 25.7745C25.3352 25.9338 25.156 26.0554 24.9556 26.1284C24.778 26.1898 24.5899 26.2152 24.4023 26.2028C24.2148 26.1905 24.0316 26.1409 23.8636 26.0567V34.5612H22.9747V25.6816C22.9747 25.5191 16.6686 20.5345 15.9732 19.992C15.2349 20.5536 8.80458 25.488 8.80458 25.7055V34.6042L7.91327 34.6018ZM15.9398 25.9253C16.8688 25.9303 17.7582 26.3019 18.4147 26.9593C19.0711 27.6166 19.4415 28.5066 19.4453 29.4356V33.1752H12.4295V29.4356C12.4321 28.5054 12.8027 27.614 13.4605 26.9562C14.1182 26.2985 15.0096 25.9278 15.9398 25.9253ZM16.2433 26.5514V29.4451H18.8383C18.839 28.7276 18.5743 28.0352 18.0953 27.501C17.6162 26.9668 16.9566 26.6286 16.2433 26.5514ZM16.2433 30.0545V32.5683H18.8383V30.0545H16.2433ZM15.6339 32.5683V30.0545H13.0413V32.5683H15.6339ZM15.6339 29.4475V26.5514C14.9229 26.6295 14.2655 26.9667 13.7872 27.4987C13.309 28.0307 13.0434 28.7202 13.0413 29.4356L15.6339 29.4475ZM11.7844 33.8395H20.0928V34.4488H11.7844V33.8395ZM21.9973 10.0754H24.351C24.3686 10.076 24.3853 10.0832 24.3977 10.0956C24.4101 10.108 24.4174 10.1247 24.4179 10.1423V12.8664C24.4173 12.8837 24.41 12.9001 24.3975 12.9121C24.385 12.9242 24.3684 12.9309 24.351 12.9309H21.9973C21.9887 12.9312 21.98 12.9298 21.9719 12.9267C21.9638 12.9236 21.9564 12.9189 21.9502 12.9129C21.9439 12.9068 21.9389 12.8996 21.9355 12.8916C21.9322 12.8836 21.9304 12.875 21.9304 12.8664V10.1423C21.9304 10.1245 21.9375 10.1075 21.95 10.095C21.9626 10.0824 21.9796 10.0754 21.9973 10.0754ZM30.0884 10.0754H32.4421C32.4596 10.076 32.4763 10.0832 32.4887 10.0956C32.5012 10.108 32.5084 10.1247 32.509 10.1423V12.8664C32.5084 12.8837 32.501 12.9001 32.4886 12.9121C32.4761 12.9242 32.4594 12.9309 32.4421 12.9309H30.0884C30.071 12.9309 30.0544 12.9242 30.0419 12.9121C30.0294 12.9001 30.0221 12.8837 30.0215 12.8664V10.1423C30.0221 10.1247 30.0293 10.108 30.0417 10.0956C30.0541 10.0832 30.0708 10.076 30.0884 10.0754ZM26.0428 10.0754H28.3966C28.4141 10.076 28.4308 10.0832 28.4432 10.0956C28.4556 10.108 28.4629 10.1247 28.4635 10.1423V12.8664C28.4628 12.8837 28.4555 12.9001 28.443 12.9121C28.4306 12.9242 28.4139 12.9309 28.3966 12.9309H26.0428C26.0342 12.9312 26.0255 12.9298 26.0174 12.9267C26.0093 12.9236 26.0019 12.9189 25.9957 12.9129C25.9894 12.9068 25.9845 12.8996 25.9811 12.8916C25.9777 12.8836 25.9759 12.875 25.9759 12.8664V10.1423C25.9759 10.1245 25.983 10.1075 25.9955 10.095C26.0081 10.0824 26.0251 10.0754 26.0428 10.0754ZM21.9973 15.5451H24.351C24.3684 15.545 24.385 15.5518 24.3975 15.5638C24.41 15.5758 24.4173 15.5922 24.4179 15.6096V18.3337C24.4174 18.3512 24.4101 18.3679 24.3977 18.3803C24.3853 18.3927 24.3686 18.4 24.351 18.4006H21.9973C21.9796 18.4006 21.9626 18.3935 21.95 18.381C21.9375 18.3684 21.9304 18.3514 21.9304 18.3337V15.6024C21.9304 15.5937 21.9322 15.5851 21.9355 15.5772C21.9389 15.5692 21.9439 15.5619 21.9502 15.5559C21.9564 15.5499 21.9638 15.5452 21.9719 15.5421C21.98 15.539 21.9887 15.5376 21.9973 15.5379V15.5451ZM30.0884 15.5451H32.4421C32.4594 15.545 32.4761 15.5518 32.4886 15.5638C32.501 15.5758 32.5084 15.5922 32.509 15.6096V18.3337C32.5084 18.3512 32.5012 18.3679 32.4887 18.3803C32.4763 18.3927 32.4596 18.4 32.4421 18.4006H30.0884C30.0708 18.4 30.0541 18.3927 30.0417 18.3803C30.0293 18.3679 30.0221 18.3512 30.0215 18.3337V15.6024C30.0221 15.5851 30.0294 15.5687 30.0419 15.5566C30.0544 15.5446 30.071 15.5379 30.0884 15.5379V15.5451ZM26.0428 15.5451H28.3966C28.4139 15.545 28.4306 15.5518 28.443 15.5638C28.4555 15.5758 28.4628 15.5922 28.4635 15.6096V18.3337C28.4629 18.3512 28.4556 18.3679 28.4432 18.3803C28.4308 18.3927 28.4141 18.4 28.3966 18.4006H26.0428C26.0251 18.4006 26.0081 18.3935 25.9955 18.381C25.983 18.3684 25.9759 18.3514 25.9759 18.3337V15.6024C25.9759 15.5937 25.9777 15.5851 25.9811 15.5772C25.9845 15.5692 25.9894 15.5619 25.9957 15.5559C26.0019 15.5499 26.0093 15.5452 26.0174 15.5421C26.0255 15.539 26.0342 15.5376 26.0428 15.5379V15.5451ZM30.0884 21.0124H32.4421C32.4596 21.013 32.4763 21.0202 32.4887 21.0326C32.5012 21.045 32.5084 21.0617 32.509 21.0793V23.801C32.5084 23.8185 32.5012 23.8352 32.4887 23.8476C32.4763 23.8601 32.4596 23.8673 32.4421 23.8679H30.0884C30.0708 23.8673 30.0541 23.8601 30.0417 23.8476C30.0293 23.8352 30.0221 23.8185 30.0215 23.801V21.0793C30.0221 21.0617 30.0293 21.045 30.0417 21.0326C30.0541 21.0202 30.0708 21.013 30.0884 21.0124ZM26.0428 21.0124H28.3966C28.4141 21.013 28.4308 21.0202 28.4432 21.0326C28.4556 21.045 28.4629 21.0617 28.4635 21.0793V23.801C28.4629 23.8185 28.4556 23.8352 28.4432 23.8476C28.4308 23.8601 28.4141 23.8673 28.3966 23.8679H27.6797V22.967L25.9807 21.6193V21.0793C25.9807 21.0615 25.9878 21.0445 26.0003 21.032C26.0129 21.0194 26.0299 21.0124 26.0476 21.0124H26.0428Z" fill="#3B63C9"/>
</g>
<defs>
<clipPath id="clip0_1349_4159">
<rect width="29.3629" height="27.6042" fill="white" transform="translate(6.06372 7)"/>
</clipPath>
</defs>
</svg>
