<svg width="42" height="42" viewBox="0 0 42 42" fill="none" xmlns="http://www.w3.org/2000/svg">
<rect width="42" height="42" rx="4" fill="#E4F8EA"/>
<g clip-path="url(#clip0_1349_4169)">
<path fill-rule="evenodd" clip-rule="evenodd" d="M33.4836 33.7296V7.87458H18.826V16.7972L17.9538 16.1042V7.6404C17.9673 7.47697 18.0384 7.32366 18.1545 7.20789C18.2195 7.14203 18.2969 7.08973 18.3822 7.05404C18.4675 7.01835 18.5591 6.99998 18.6516 7H33.658C33.7499 6.99998 33.8409 7.01813 33.9258 7.0534C34.0107 7.08866 34.0878 7.14036 34.1526 7.2055L34.1837 7.23896C34.2978 7.36636 34.3608 7.53148 34.3605 7.70253V14.4435V33.7296H29.8514V27.813C29.8514 27.7072 29.8094 27.6057 29.7346 27.5309C29.6597 27.456 29.5582 27.414 29.4524 27.414H26.6112V34.6042H34.3629V33.7296H33.4836ZM6.84955 34.6018V26.0543C6.52595 26.1911 6.16418 26.2081 5.82921 26.1021C5.6083 26.0281 5.41336 25.892 5.26766 25.7102C5.12026 25.5279 5.02748 25.3075 5.00003 25.0746C4.98065 24.8598 5.00472 24.6433 5.07082 24.4381C5.13691 24.2328 5.24368 24.0429 5.38475 23.8798C5.40124 23.8598 5.41965 23.8414 5.43971 23.8249L14.6108 16.6562C14.6688 16.6017 14.7445 16.57 14.824 16.5669C14.9034 16.5639 14.9814 16.5896 15.0433 16.6395L24.236 23.7843L24.2766 23.8201C24.4596 23.9979 24.5948 24.219 24.6696 24.4629C24.7444 24.7069 24.7563 24.9658 24.7043 25.2156C24.6551 25.4231 24.5551 25.6152 24.4132 25.7745C24.2714 25.9338 24.0923 26.0554 23.8919 26.1284C23.7143 26.1898 23.5262 26.2152 23.3386 26.2028C23.1511 26.1905 22.9679 26.1409 22.7998 26.0567V34.5612H21.9109V25.6816C21.9109 25.5191 15.6049 20.5345 14.9095 19.992C14.1712 20.5536 7.74086 25.488 7.74086 25.7055V34.6042L6.84955 34.6018ZM14.8761 25.9253C15.8051 25.9303 16.6945 26.3019 17.351 26.9593C18.0074 27.6166 18.3778 28.5066 18.3816 29.4356V33.1752H11.3658V29.4356C11.3683 28.5054 11.739 27.614 12.3967 26.9562C13.0545 26.2985 13.9459 25.9278 14.8761 25.9253ZM15.1795 26.5514V29.4451H17.7746C17.7752 28.7276 17.5106 28.0352 17.0315 27.501C16.5525 26.9668 15.8929 26.6286 15.1795 26.5514ZM15.1795 30.0545V32.5683H17.7746V30.0545H15.1795ZM14.5702 32.5683V30.0545H11.9775V32.5683H14.5702ZM14.5702 29.4475V26.5514C13.8591 26.6295 13.2017 26.9667 12.7235 27.4987C12.2453 28.0307 11.9797 28.7202 11.9775 29.4356L14.5702 29.4475ZM10.7206 33.8395H19.0291V34.4488H10.7206V33.8395ZM20.9336 10.0754H23.2873C23.3049 10.076 23.3215 10.0832 23.334 10.0956C23.3464 10.108 23.3536 10.1247 23.3542 10.1423V12.8664C23.3536 12.8837 23.3463 12.9001 23.3338 12.9121C23.3213 12.9242 23.3047 12.9309 23.2873 12.9309H20.9336C20.9249 12.9312 20.9163 12.9298 20.9082 12.9267C20.9001 12.9236 20.8927 12.9189 20.8864 12.9129C20.8802 12.9068 20.8752 12.8996 20.8718 12.8916C20.8684 12.8836 20.8667 12.875 20.8667 12.8664V10.1423C20.8667 10.1245 20.8737 10.1075 20.8863 10.095C20.8988 10.0824 20.9159 10.0754 20.9336 10.0754ZM29.0246 10.0754H31.3784C31.3959 10.076 31.4126 10.0832 31.425 10.0956C31.4374 10.108 31.4447 10.1247 31.4453 10.1423V12.8664C31.4446 12.8837 31.4373 12.9001 31.4248 12.9121C31.4124 12.9242 31.3957 12.9309 31.3784 12.9309H29.0246C29.0073 12.9309 28.9906 12.9242 28.9782 12.9121C28.9657 12.9001 28.9584 12.8837 28.9577 12.8664V10.1423C28.9583 10.1247 28.9656 10.108 28.978 10.0956C28.9904 10.0832 29.0071 10.076 29.0246 10.0754ZM24.9791 10.0754H27.3328C27.3504 10.076 27.3671 10.0832 27.3795 10.0956C27.3919 10.108 27.3992 10.1247 27.3997 10.1423V12.8664C27.3991 12.8837 27.3918 12.9001 27.3793 12.9121C27.3668 12.9242 27.3502 12.9309 27.3328 12.9309H24.9791C24.9705 12.9312 24.9618 12.9298 24.9537 12.9267C24.9456 12.9236 24.9382 12.9189 24.932 12.9129C24.9257 12.9068 24.9207 12.8996 24.9173 12.8916C24.914 12.8836 24.9122 12.875 24.9122 12.8664V10.1423C24.9122 10.1245 24.9193 10.1075 24.9318 10.095C24.9444 10.0824 24.9614 10.0754 24.9791 10.0754ZM20.9336 15.5451H23.2873C23.3047 15.545 23.3213 15.5518 23.3338 15.5638C23.3463 15.5758 23.3536 15.5922 23.3542 15.6096V18.3337C23.3536 18.3512 23.3464 18.3679 23.334 18.3803C23.3215 18.3927 23.3049 18.4 23.2873 18.4006H20.9336C20.9159 18.4006 20.8988 18.3935 20.8863 18.381C20.8737 18.3684 20.8667 18.3514 20.8667 18.3337V15.6024C20.8667 15.5937 20.8684 15.5851 20.8718 15.5772C20.8752 15.5692 20.8802 15.5619 20.8864 15.5559C20.8927 15.5499 20.9001 15.5452 20.9082 15.5421C20.9163 15.539 20.9249 15.5376 20.9336 15.5379V15.5451ZM29.0246 15.5451H31.3784C31.3957 15.545 31.4124 15.5518 31.4248 15.5638C31.4373 15.5758 31.4446 15.5922 31.4453 15.6096V18.3337C31.4447 18.3512 31.4374 18.3679 31.425 18.3803C31.4126 18.3927 31.3959 18.4 31.3784 18.4006H29.0246C29.0071 18.4 28.9904 18.3927 28.978 18.3803C28.9656 18.3679 28.9583 18.3512 28.9577 18.3337V15.6024C28.9584 15.5851 28.9657 15.5687 28.9782 15.5566C28.9906 15.5446 29.0073 15.5379 29.0246 15.5379V15.5451ZM24.9791 15.5451H27.3328C27.3502 15.545 27.3668 15.5518 27.3793 15.5638C27.3918 15.5758 27.3991 15.5922 27.3997 15.6096V18.3337C27.3992 18.3512 27.3919 18.3679 27.3795 18.3803C27.3671 18.3927 27.3504 18.4 27.3328 18.4006H24.9791C24.9614 18.4006 24.9444 18.3935 24.9318 18.381C24.9193 18.3684 24.9122 18.3514 24.9122 18.3337V15.6024C24.9122 15.5937 24.914 15.5851 24.9173 15.5772C24.9207 15.5692 24.9257 15.5619 24.932 15.5559C24.9382 15.5499 24.9456 15.5452 24.9537 15.5421C24.9618 15.539 24.9705 15.5376 24.9791 15.5379V15.5451ZM29.0246 21.0124H31.3784C31.3959 21.013 31.4126 21.0202 31.425 21.0326C31.4374 21.045 31.4447 21.0617 31.4453 21.0793V23.801C31.4447 23.8185 31.4374 23.8352 31.425 23.8476C31.4126 23.8601 31.3959 23.8673 31.3784 23.8679H29.0246C29.0071 23.8673 28.9904 23.8601 28.978 23.8476C28.9656 23.8352 28.9583 23.8185 28.9577 23.801V21.0793C28.9583 21.0617 28.9656 21.045 28.978 21.0326C28.9904 21.0202 29.0071 21.013 29.0246 21.0124ZM24.9791 21.0124H27.3328C27.3504 21.013 27.3671 21.0202 27.3795 21.0326C27.3919 21.045 27.3992 21.0617 27.3997 21.0793V23.801C27.3992 23.8185 27.3919 23.8352 27.3795 23.8476C27.3671 23.8601 27.3504 23.8673 27.3328 23.8679H26.616V22.967L24.917 21.6193V21.0793C24.917 21.0615 24.924 21.0445 24.9366 21.032C24.9491 21.0194 24.9662 21.0124 24.9839 21.0124H24.9791Z" fill="#26C870"/>
</g>
<defs>
<clipPath id="clip0_1349_4169">
<rect width="29.3629" height="27.6042" fill="white" transform="translate(5 7)"/>
</clipPath>
</defs>
</svg>
