<svg width="38" height="56" viewBox="0 0 38 56" fill="none" xmlns="http://www.w3.org/2000/svg">
<path fill-rule="evenodd" clip-rule="evenodd" d="M35.9903 29.8842L37.6446 28.9291V24.2483L37.2231 23.5181C37.2067 23.4919 37.1811 23.4729 37.1513 23.4649C37.1215 23.4569 37.0898 23.4606 37.0626 23.4751L33.4832 25.5416C33.457 25.558 33.438 25.5836 33.43 25.6134C33.422 25.6432 33.4256 25.6749 33.4402 25.7021L35.8298 29.8412C35.8461 29.8673 35.8718 29.8863 35.9016 29.8943C35.9314 29.9023 35.9631 29.8987 35.9903 29.8842ZM37.6446 14.0098V17.0898L28.729 1.64742L6.43855 14.5168L14.2726 28.0859L12.3378 27.7978L4.90656 14.9265C4.7835 14.6661 4.7571 14.3705 4.83207 14.0925C4.87298 13.9353 4.94474 13.7879 5.04317 13.6587C5.14159 13.5295 5.26472 13.4211 5.40539 13.34L28.2264 0.164248C28.3662 0.0835172 28.5205 0.0311991 28.6806 0.0103005C28.8406 -0.010598 29.0032 0.000334904 29.159 0.0424699L29.2357 0.0660708C29.5211 0.159609 29.7619 0.35541 29.9116 0.615794L35.8302 10.8671L37.6446 14.0098ZM35.4336 37.3959L37.6446 41.2256V36.1194L35.4336 37.3959ZM5.84216 55.5454L4.18727 52.6791C3.81526 53.1712 3.27998 53.5146 2.67755 53.6476C2.2766 53.729 1.8607 53.6932 1.4795 53.5447C1.09521 53.3967 0.760632 53.1431 0.514421 52.813C0.29636 52.5034 0.142896 52.1531 0.0631834 51.7829C-0.016529 51.4127 -0.0208563 51.0302 0.0504598 50.6583C0.057917 50.6133 0.069749 50.5691 0.0857858 50.5265L7.73863 31.5724C7.77893 31.4387 7.8662 31.324 7.98438 31.2496C8.10255 31.1751 8.24365 31.1459 8.38168 31.1672L28.6345 33.9615L28.7278 33.9803C29.1622 34.0899 29.5619 34.3075 29.8898 34.6129C30.2177 34.9182 30.4632 35.3014 30.6035 35.727C30.7108 36.0858 30.7273 36.4657 30.6515 36.8325C30.5758 37.1993 30.4101 37.5415 30.1694 37.8285C29.9533 38.0778 29.6894 38.2815 29.3934 38.4274C29.0974 38.5734 28.7752 38.6586 28.4458 38.6782L35.9127 51.6114L34.5609 52.3918L26.7646 38.8882C26.6219 38.6411 12.6555 36.5975 11.1217 36.3831C10.4919 37.8854 5.04549 51.0352 5.23641 51.3659L7.64943 55.5454H5.84216ZM28.7043 55.5454L30.0798 54.7513L29.5448 53.8246L26.5643 55.5454H28.7043ZM24.2313 55.5454L27.9767 53.383L24.6933 47.6959C23.8719 46.2864 22.5273 45.2583 20.9518 44.835C19.3763 44.4117 17.6975 44.6275 16.2803 45.4355C14.8679 46.2561 13.8378 47.6023 13.415 49.1801C12.9922 50.7579 13.2112 52.4389 14.0241 53.8557L14.9996 55.5454H16.24L15.4978 54.2598L19.4406 51.9835L21.4971 55.5454H24.2313ZM17.2915 46.1211L19.8322 50.5218L23.7787 48.2433C23.1496 47.1516 22.1392 46.331 20.9417 45.9392C19.7442 45.5475 18.4441 45.6123 17.2915 46.1211ZM20.3672 51.4485L22.5744 55.2713L26.5208 52.9929L24.3137 49.17L20.3672 51.4485ZM18.9077 51.0604L16.3648 46.6561C15.3521 47.3992 14.6484 48.4893 14.3883 49.7182C14.1281 50.9472 14.3296 52.2289 14.9544 53.3186L18.9077 51.0604ZM11.576 16.0132L15.1554 13.9466C15.1826 13.9321 15.2143 13.9285 15.2441 13.9365C15.2739 13.9444 15.2995 13.9634 15.3159 13.9896L17.7076 18.1323C17.7219 18.1592 17.7252 18.1906 17.7168 18.2198C17.7084 18.2491 17.6889 18.2739 17.6625 18.2891L14.0831 20.3557C14.0702 20.3638 14.0558 20.3692 14.0408 20.3716C14.0257 20.374 14.0103 20.3734 13.9956 20.3697C13.9808 20.366 13.9669 20.3594 13.9547 20.3502C13.9425 20.3411 13.9323 20.3295 13.9247 20.3163L11.533 16.1737C11.5174 16.1467 11.5132 16.1146 11.5212 16.0845C11.5293 16.0544 11.549 16.0288 11.576 16.0132ZM23.8804 8.9092L27.4598 6.84263C27.487 6.82812 27.5188 6.8245 27.5485 6.83248C27.5783 6.84046 27.604 6.85946 27.6203 6.88564L30.0121 11.0283C30.0264 11.0552 30.0296 11.0866 30.0212 11.1158C30.0128 11.1451 29.9934 11.17 29.967 11.1852L26.3876 13.2517C26.3612 13.267 26.33 13.2714 26.3004 13.264C26.2709 13.2567 26.2453 13.2382 26.2292 13.2124L23.8374 9.0697C23.8229 9.04248 23.8193 9.01077 23.8273 8.98097C23.8352 8.95118 23.8542 8.92552 23.8804 8.9092ZM17.7282 12.4612L21.3076 10.3946C21.3348 10.3801 21.3665 10.3765 21.3963 10.3845C21.4261 10.3924 21.4518 10.4114 21.4681 10.4376L23.8599 14.5803C23.8741 14.6072 23.8774 14.6386 23.869 14.6678C23.8606 14.6971 23.8411 14.7219 23.8148 14.7372L20.2353 16.8037C20.2224 16.8118 20.208 16.8172 20.193 16.8196C20.1779 16.8221 20.1626 16.8214 20.1478 16.8177C20.133 16.814 20.1191 16.8074 20.1069 16.7983C20.0948 16.7891 20.0846 16.7776 20.077 16.7644L17.6852 12.6217C17.6696 12.5947 17.6654 12.5626 17.6734 12.5325C17.6815 12.5024 17.7012 12.4768 17.7282 12.4612ZM16.3784 24.3312L19.9578 22.2646C19.9842 22.2494 20.0154 22.245 20.0449 22.2523C20.0745 22.2597 20.1 22.2782 20.1162 22.304L22.508 26.4467C22.5225 26.4739 22.5261 26.5056 22.5181 26.5354C22.5101 26.5652 22.4911 26.5909 22.465 26.6072L18.8855 28.6737C18.8586 28.6893 18.8265 28.6936 18.7964 28.6855C18.7663 28.6774 18.7406 28.6577 18.7251 28.6307L16.327 24.4772C16.3194 24.464 16.3145 24.4494 16.3126 24.4343C16.3108 24.4191 16.312 24.4038 16.3162 24.3892C16.3204 24.3745 16.3275 24.3609 16.3371 24.349C16.3467 24.3372 16.3586 24.3274 16.3721 24.3203L16.3784 24.3312ZM28.6828 17.2272L32.2622 15.1607C32.2886 15.1454 32.3198 15.141 32.3494 15.1484C32.3789 15.1557 32.4045 15.1742 32.4206 15.2L34.8124 19.3427C34.8269 19.3699 34.8305 19.4016 34.8226 19.4314C34.8146 19.4612 34.7956 19.4869 34.7694 19.5032L31.19 21.5698C31.1628 21.5843 31.1311 21.5879 31.1013 21.5799C31.0715 21.5719 31.0458 21.5529 31.0295 21.5268L28.6314 17.3732C28.6172 17.3463 28.6139 17.3149 28.6223 17.2857C28.6307 17.2564 28.6502 17.2315 28.6765 17.2163L28.6828 17.2272ZM22.5306 20.7792L26.11 18.7127C26.1364 18.6974 26.1676 18.693 26.1972 18.7003C26.2267 18.7077 26.2523 18.7262 26.2684 18.752L28.6602 22.8947C28.6747 22.9219 28.6783 22.9536 28.6703 22.9834C28.6624 23.0132 28.6434 23.0389 28.6172 23.0552L25.0378 25.1218C25.0108 25.1373 24.9787 25.1416 24.9486 25.1335C24.9185 25.1254 24.8929 25.1057 24.8773 25.0788L22.4792 20.9252C22.4716 20.912 22.4667 20.8974 22.4648 20.8823C22.463 20.8672 22.4642 20.8518 22.4684 20.8372C22.4726 20.8225 22.4797 20.8089 22.4893 20.7971C22.499 20.7852 22.5108 20.7755 22.5243 20.7683L22.5306 20.7792ZM27.3379 29.0896L27.3382 29.0894L30.9103 27.0271C30.9376 27.0126 30.9693 27.0089 30.9991 27.0169C31.0289 27.0249 31.0545 27.0439 31.0708 27.0701L33.4605 31.2091C33.475 31.2363 33.4786 31.268 33.4707 31.2978C33.4627 31.3276 33.4437 31.3533 33.4175 31.3696L32.3273 31.999L31.5364 30.629L27.7694 30.0712L27.2952 29.2499C27.2796 29.2229 27.2754 29.1909 27.2835 29.1608C27.2915 29.1308 27.3111 29.1052 27.3379 29.0896Z" fill="#EDEFF6"/>
</svg>
