<svg width="26" height="27" viewBox="0 0 26 27" fill="none" xmlns="http://www.w3.org/2000/svg">
<path d="M7.90288 22.2371C6.19272 20.527 6.21101 17.7259 7.94365 15.9933L14.3678 9.56912C15.3411 8.5958 16.9151 8.58552 17.8757 9.54621C18.8364 10.5069 18.8262 12.0808 17.8528 13.0542L11.4287 19.4783C11.2136 19.6934 10.8679 19.6957 10.6555 19.4834C10.4432 19.271 10.4455 18.9253 10.6606 18.7102L17.0847 12.2861C17.6295 11.7413 17.6347 10.8616 17.0975 10.3244C16.5604 9.7873 15.6801 9.79304 15.1359 10.3372L8.71176 16.7614C7.40826 18.0649 7.3945 20.1723 8.68109 21.4589C9.96768 22.7455 12.0751 22.7317 13.3786 21.4282L19.8028 15.0041C21.8656 12.9413 21.8868 9.60728 19.8513 7.57177C17.8158 5.53627 14.4807 5.55749 12.4184 7.61976L5.99428 14.0439C5.77916 14.259 5.43345 14.2613 5.22112 14.0489C5.00879 13.8366 5.01105 13.4909 5.22617 13.2758L11.6503 6.85164C14.1417 4.36025 18.1699 4.33395 20.6289 6.79301C23.088 9.25208 23.0617 13.2803 20.5703 15.7716L14.1462 22.1958C12.4135 23.9284 9.61248 23.9467 7.90233 22.2366L7.90288 22.2371Z" fill="#3EA570"/>
</svg>
