<svg width="14" height="14" viewBox="0 0 14 14" fill="none" xmlns="http://www.w3.org/2000/svg">
<path d="M11.252 10.5366L3.4631 2.74773C4.42389 1.9464 5.65446 1.46072 7.0001 1.46072C10.054 1.46072 12.539 3.94574 12.539 6.99961C12.539 8.34458 12.0533 9.57577 11.252 10.5366ZM1.46121 6.99961C1.46121 5.65389 1.94629 4.42331 2.74818 3.46257L10.5371 11.2515C9.57626 12.0528 8.34507 12.5385 7.0001 12.5385C3.94623 12.5385 1.46121 10.0535 1.46121 6.99961ZM7.0001 0.449609C3.38232 0.449609 0.450098 3.38183 0.450098 6.99961C0.450098 10.6174 3.38232 13.5496 7.0001 13.5496C10.6171 13.5496 13.5501 10.6174 13.5501 6.99961C13.5501 3.38182 10.6171 0.449609 7.0001 0.449609Z" fill="white" stroke="white" stroke-width="0.3"/>
</svg>
