<svg width="59" height="59" viewBox="0 0 59 59" fill="none" xmlns="http://www.w3.org/2000/svg">
<path d="M50.442 9.01191L3.55405 30.8761L0.241293 23.7719C-0.0515736 23.1438 -0.0854465 22.4263 0.147126 21.7772C0.379698 21.1281 0.859664 20.6005 1.48144 20.3106L43.6806 0.6328C44.3024 0.342863 45.015 0.314292 45.6618 0.553376C46.3085 0.792462 46.8364 1.27961 47.1293 1.90767L50.442 9.01191ZM52.6505 13.7481L64.7973 39.7969C65.0902 40.425 65.1241 41.1425 64.8915 41.7916C64.6589 42.4407 64.1789 42.9683 63.5572 43.2582L21.358 62.936C20.7362 63.226 20.0236 63.2545 19.3768 63.0154C18.7301 62.7764 18.2022 62.2892 17.9093 61.6612L5.76256 35.6123L52.6505 13.7481ZM32.3834 37.6138L29.6228 31.6936L24.0421 47.2694L48.6583 35.7907L46.4498 31.0545L32.3834 37.6138Z" fill="#F0F5F7"/>
</svg>
