<svg width="42" height="42" viewBox="0 0 42 42" fill="none" xmlns="http://www.w3.org/2000/svg">
<rect width="42" height="42" rx="4" fill="#E2F5FF"/>
<path d="M32 15.4444H10V12.1111C10 11.8164 10.1159 11.5338 10.3222 11.3254C10.5285 11.1171 10.8083 11 11.1 11H30.9C31.1917 11 31.4715 11.1171 31.6778 11.3254C31.8841 11.5338 32 11.8164 32 12.1111V15.4444ZM32 17.6667V29.8889C32 30.1836 31.8841 30.4662 31.6778 30.6746C31.4715 30.8829 31.1917 31 30.9 31H11.1C10.8083 31 10.5285 30.8829 10.3222 30.6746C10.1159 30.4662 10 30.1836 10 29.8889V17.6667H32ZM19.9 23.2222V20.4444L14.95 25.4444H26.5V23.2222H19.9Z" fill="#05BBFF"/>
</svg>
