<svg width="24" height="24" viewBox="0 0 24 24" fill="none" xmlns="http://www.w3.org/2000/svg">
<path fill-rule="evenodd" clip-rule="evenodd" d="M16.6583 2C17.6927 2 18.6541 2.53286 19.2023 3.41L21.4078 6.93883C21.567 7.19353 21.6514 7.48785 21.6514 7.78821C21.6514 8.84672 21.2084 9.80174 20.4976 10.4779V18C20.4976 20.2091 18.7067 22 16.4976 22H7.49756C5.28842 22 3.49756 20.2091 3.49756 18V10.4779C2.7868 9.80167 2.34375 8.84668 2.34375 7.78821C2.34375 7.48785 2.42816 7.19353 2.58735 6.93883L4.79287 3.41C5.34108 2.53286 6.30249 2 7.33686 2H16.6583ZM7.33686 4C6.99207 4 6.6716 4.17762 6.48886 4.47L4.34714 7.89676C4.40313 8.79158 5.1466 9.5 6.05554 9.5H6.22837C7.26921 9.5 8.11298 8.65623 8.11298 7.61538H10.113C10.113 8.65623 10.9568 9.5 11.9976 9.5C13.0384 9.5 13.8822 8.65623 13.8822 7.61538H15.8822C15.8822 8.65623 16.726 9.5 17.7668 9.5H17.9397C18.8486 9.5 19.5921 8.79158 19.6481 7.89676L17.5063 4.47C17.3236 4.17762 17.0031 4 16.6583 4H7.33686ZM17.9397 11.5C18.1293 11.5 18.3156 11.4858 18.4976 11.4583V18C18.4976 19.1046 17.6021 20 16.4976 20H15.9976V16C15.9976 14.3431 14.6544 13 12.9976 13H10.9976C9.3407 13 7.99756 14.3431 7.99756 16V20H7.49756C6.39299 20 5.49756 19.1046 5.49756 18V11.4583C5.67956 11.4858 5.86589 11.5 6.05554 11.5H6.22837C7.37302 11.5 8.40204 11.0049 9.11298 10.2172C9.82392 11.0049 10.8529 11.5 11.9976 11.5C13.1423 11.5 14.1713 11.0049 14.8822 10.2172C15.5932 11.0049 16.6222 11.5 17.7668 11.5H17.9397ZM9.99756 20H13.9976V16C13.9976 15.4477 13.5498 15 12.9976 15H10.9976C10.4453 15 9.99756 15.4477 9.99756 16V20Z" fill="#667085"/>
</svg>
