<svg width="19" height="19" viewBox="0 0 19 19" fill="none" xmlns="http://www.w3.org/2000/svg">
<g clip-path="url(#clip0_26_70)">
<path d="M13.758 15.8605C12.7376 15.4632 11.5965 16.0355 11.3056 17.0914C10.8433 18.7681 8.53169 18.936 7.83169 17.3444C7.39065 16.3417 6.17985 15.9397 5.22682 16.4813C3.7145 17.3397 1.96097 15.8238 2.5912 14.2039C2.9885 13.1835 2.4162 12.0424 1.3603 11.7516C-0.316372 11.2892 -0.484276 8.97761 1.10726 8.27762C2.10996 7.83657 2.51198 6.62577 1.97043 5.67274C1.11199 4.16043 2.62786 2.40689 4.24777 3.03712C5.2682 3.43442 6.40924 2.86213 6.70012 1.80622C7.16244 0.129551 9.47408 -0.0383531 10.1741 1.55319C10.6151 2.55588 11.8259 2.9579 12.7789 2.41635C14.2913 1.55792 16.0448 3.07378 15.4146 4.6937C15.0173 5.71413 15.5896 6.85516 16.6455 7.14604C18.3221 7.60837 18.49 9.92 16.8985 10.62C15.8958 11.061 15.4938 12.2718 16.0353 13.2249C16.8938 14.7372 15.3779 16.4907 13.758 15.8605Z" fill="#328BF2"/>
<path d="M5.14616 8.9341L8.03901 12.0198L12.8604 6.87695" stroke="white" stroke-width="1.09443"/>
</g>
<defs>
<clipPath id="clip0_26_70">
<rect width="18" height="18" fill="white" transform="translate(0.00479889 0.449112)"/>
</clipPath>
</defs>
</svg>
