<svg width="20" height="20" viewBox="0 0 20 20" fill="none" xmlns="http://www.w3.org/2000/svg">
<path d="M15.1752 13.9946C15.5006 14.32 15.5006 14.8477 15.1752 15.1731C14.8498 15.4985 14.3221 15.4985 13.9967 15.1731L10.0026 11.1791L6.0087 15.1731C5.68326 15.4985 5.15563 15.4985 4.83019 15.1731C4.50475 14.8477 4.50474 14.32 4.83018 13.9946L8.82411 10.0006L4.83002 6.00656C4.50458 5.68113 4.50458 5.1535 4.83002 4.82806C5.15546 4.50263 5.6831 4.50263 6.00854 4.82806L10.0026 8.82207L13.9965 4.82807C14.322 4.50263 14.8496 4.50263 15.1751 4.82807C15.5005 5.1535 15.5005 5.68114 15.1751 6.00658L11.1811 10.0006L15.1752 13.9946Z" fill="#858D9D"/>
</svg>
