<svg width="56" height="56" viewBox="0 0 56 56" fill="none" xmlns="http://www.w3.org/2000/svg">
<rect width="56" height="56" rx="5.33333" fill="#E2F5FF"/>
<path fill-rule="evenodd" clip-rule="evenodd" d="M34.5133 11H34.5127L34.5133 12.25C34.5127 11 34.5126 11 34.5125 11H34.5121H34.5104L34.5034 11L34.476 11L34.369 11.0001L33.9629 11.0003L32.5132 11.001L28.1127 11.0033L23.7085 11.0056L22.2541 11.0064L21.8449 11.0066L21.7362 11.0066L21.7079 11.0067L21.6983 11.0067V11.0066L21.6906 11.0067C19.1101 11.0226 16.906 11.8869 15.3485 13.5051C13.7958 15.1184 13 17.3621 13 19.9283V35.255C13 37.8334 13.8016 40.0875 15.3671 41.7038C16.9374 43.3251 19.1593 44.1833 21.76 44.1833H21.7605L21.76 42.9333C21.7605 44.1833 21.7605 44.1833 21.7606 44.1833H21.7611L21.7628 44.1833L21.7698 44.1833L21.7972 44.1833L21.9042 44.1833L22.3102 44.1831L23.7598 44.1825L28.1599 44.1808L32.564 44.1791L34.0186 44.1785L34.428 44.1784L34.5368 44.1783L34.5652 44.1783L34.5726 44.1783L34.575 44.1783L34.5827 44.1783C37.1634 44.1624 39.3679 43.2976 40.9256 41.6791C42.4787 40.0655 43.275 37.8214 43.275 35.255V19.9283C43.275 17.3497 42.4729 15.0956 40.9069 13.4794C39.3362 11.8583 37.114 11 34.5133 11ZM34.5134 13.5H34.5133L34.5117 13.5L34.5047 13.5L34.4773 13.5L34.3703 13.5001L33.9642 13.5003L32.5145 13.501L28.114 13.5033L21.7026 13.5067C19.6849 13.5198 18.166 14.1829 17.1498 15.2387C16.1284 16.2999 15.5 17.8779 15.5 19.9283V35.255C15.5 37.3166 16.1334 38.9017 17.1629 39.9645C18.1876 41.0224 19.7207 41.6833 21.76 41.6833H21.7601H21.7618L21.7688 41.6833L21.7962 41.6833L21.9032 41.6833L22.3093 41.6831L23.7588 41.6826L28.1589 41.6808L34.5673 41.6784L34.571 41.6783C36.5884 41.6651 38.1077 41.0018 39.1244 39.9455C40.1463 38.8837 40.775 37.3052 40.775 35.255V19.9283C40.775 17.867 40.1413 16.2819 39.1114 15.219C38.0863 14.161 36.5528 13.5001 34.5136 13.5H34.5134ZM20.9097 20.7669C20.9097 20.0766 21.4693 19.5169 22.1597 19.5169H26.7513C27.4417 19.5169 28.0013 20.0766 28.0013 20.7669C28.0013 21.4573 27.4417 22.0169 26.7513 22.0169H22.1597C21.4693 22.0169 20.9097 21.4573 20.9097 20.7669ZM22.1594 26.4784C21.4691 26.4784 20.9094 27.038 20.9094 27.7284C20.9094 28.4187 21.4691 28.9784 22.1594 28.9784H34.1928C34.8831 28.9784 35.4428 28.4187 35.4428 27.7284C35.4428 27.038 34.8831 26.4784 34.1928 26.4784H22.1594ZM22.1594 33.4559C21.4691 33.4559 20.9094 34.0155 20.9094 34.7059C20.9094 35.3962 21.4691 35.9559 22.1594 35.9559H34.1928C34.8831 35.9559 35.4428 35.3962 35.4428 34.7059C35.4428 34.0155 34.8831 33.4559 34.1928 33.4559H22.1594Z" fill="#05BBFF"/>
</svg>
