<svg width="46" height="49" viewBox="0 0 46 49" fill="none" xmlns="http://www.w3.org/2000/svg">
<path fill-rule="evenodd" clip-rule="evenodd" d="M24.0264 2.07098L24.0255 2.07148L24.9907 3.74135C24.0255 2.07148 24.0254 2.07152 24.0253 2.0716L24.0247 2.07194L24.0224 2.07329L24.0131 2.07865L23.9764 2.09983L23.8335 2.18245L23.291 2.49606L21.3543 3.61554L15.4758 7.01361L9.59219 10.4146L7.64927 11.5377L7.10267 11.8536L6.95747 11.9375L6.91965 11.9594L6.90686 11.9668L6.90684 11.9668L6.89659 11.9728C3.46051 13.9849 1.18193 16.8404 0.349194 20.2043C-0.48106 23.5582 0.186585 27.1704 2.16648 30.5996L12.3924 48.3115H16.8467L5.50722 28.6709C3.9253 25.9309 3.5476 23.3374 4.09372 21.1313C4.63706 18.9364 6.15519 16.8785 8.8414 15.3042L17.4063 10.3533L23.2848 6.95527L25.2215 5.8358L25.764 5.52219L25.907 5.43956L25.9436 5.41838L25.9529 5.41302L25.9552 5.41167L25.9556 5.41145C28.6805 3.83835 31.2397 3.53837 33.4258 4.1613C35.622 4.78713 37.6917 6.41633 39.2821 9.17093L45.2782 19.5564V11.8413L42.6228 7.24216C40.6334 3.79635 37.8225 1.40305 34.4829 0.451428C31.1333 -0.503049 27.5017 0.0645076 24.0264 2.07098ZM38.6184 48.3115H45.2782V44.463L39.2055 47.9722L38.6184 48.3115ZM13.3831 25.6177C12.8505 24.6951 13.1666 23.5155 14.0891 22.9829L20.2249 19.4404C21.1474 18.9078 22.3271 19.2238 22.8597 20.1464C23.3923 21.0689 23.0762 22.2485 22.1537 22.7811L16.0179 26.3236C15.0954 26.8563 13.9157 26.5402 13.3831 25.6177ZM19.4595 32.2855C18.537 32.8181 18.2209 33.9977 18.7536 34.9202C19.2862 35.8428 20.4658 36.1588 21.3883 35.6262L37.4684 26.3424C38.3909 25.8098 38.707 24.6301 38.1744 23.7076C37.6418 22.7851 36.4622 22.469 35.5396 23.0016L19.4595 32.2855ZM24.8428 41.6099C23.9203 42.1425 23.6042 43.3222 24.1368 44.2447C24.6694 45.1672 25.849 45.4833 26.7716 44.9507L42.8517 35.6668C43.7742 35.1342 44.0903 33.9546 43.5576 33.032C43.025 32.1095 41.8454 31.7934 40.9229 32.3261L24.8428 41.6099Z" fill="#EAF4F7"/>
</svg>
