<svg width="56" height="56" viewBox="0 0 56 56" fill="none" xmlns="http://www.w3.org/2000/svg">
<rect width="56" height="56" rx="5.33333" fill="#FFF2F2"/>
<path d="M37.9654 36.2921L19.7079 18.0346C21.9602 16.1556 24.8452 15.0167 28 15.0167C35.1584 15.0167 40.9833 20.8416 40.9833 28C40.9833 31.1533 39.8444 34.0397 37.9654 36.2921ZM15.0167 28C15.0167 24.845 16.1542 21.96 18.0345 19.7078L36.2921 37.9654C34.0397 39.8444 31.1533 40.9833 28 40.9833C20.8416 40.9833 15.0167 35.1584 15.0167 28ZM28 12.65C19.5217 12.65 12.65 19.5217 12.65 28C12.65 36.4783 19.5217 43.35 28 43.35C36.4766 43.35 43.35 36.4783 43.35 28C43.35 19.5217 36.4766 12.65 28 12.65Z" fill="#E72424" stroke="#E72424" stroke-width="0.7"/>
</svg>
