<svg width="42" height="45" viewBox="0 0 42 45" fill="none" xmlns="http://www.w3.org/2000/svg">
<mask id="path-1-outside-1_1349_4529" maskUnits="userSpaceOnUse" x="0" y="0" width="42" height="45" fill="black">
<rect fill="white" width="42" height="45"/>
<path fill-rule="evenodd" clip-rule="evenodd" d="M40 6.05187V9.42301C36.2863 6.48091 31.5946 4.72223 26.5 4.72223C20.9821 4.72223 15.9568 6.79927 12.1158 10.1912L40 38.0754V41.9246L10.1912 12.1158C6.79656 15.9568 4.72223 20.9821 4.72223 26.5C4.72223 33.0884 7.66348 39.0031 12.3018 43H8.38816C4.41964 38.6462 2 32.856 2 26.5C2 12.9678 12.9678 2 26.5 2C31.4884 2 36.129 3.49103 40 6.05187Z"/>
</mask>
<path fill-rule="evenodd" clip-rule="evenodd" d="M40 6.05187V9.42301C36.2863 6.48091 31.5946 4.72223 26.5 4.72223C20.9821 4.72223 15.9568 6.79927 12.1158 10.1912L40 38.0754V41.9246L10.1912 12.1158C6.79656 15.9568 4.72223 20.9821 4.72223 26.5C4.72223 33.0884 7.66348 39.0031 12.3018 43H8.38816C4.41964 38.6462 2 32.856 2 26.5C2 12.9678 12.9678 2 26.5 2C31.4884 2 36.129 3.49103 40 6.05187Z" fill="#FAF4F4"/>
<path d="M40 9.42301L39.29 10.3192L41.1433 11.7874V9.42301H40ZM40 6.05187H41.1433V5.43735L40.6308 5.0983L40 6.05187ZM12.1158 10.1912L11.359 9.33415L10.4471 10.1394L11.3073 10.9996L12.1158 10.1912ZM40 38.0754H41.1433V37.6018L40.8085 37.2669L40 38.0754ZM40 41.9246L39.1915 42.7331L41.1433 44.6849V41.9246H40ZM10.1912 12.1158L10.9996 11.3073L10.1397 10.4474L9.33445 11.3586L10.1912 12.1158ZM12.3018 43V44.1433H15.3801L13.0481 42.1339L12.3018 43ZM8.38816 43L7.54318 43.7702L7.88329 44.1433H8.38816V43ZM41.1433 9.42301V6.05187H38.8567V9.42301H41.1433ZM26.5 5.86556C31.3269 5.86556 35.7705 7.53088 39.29 10.3192L40.71 8.52683C36.8022 5.43094 31.8622 3.5789 26.5 3.5789V5.86556ZM12.8726 11.0482C16.516 7.83084 21.2755 5.86556 26.5 5.86556V3.5789C20.6887 3.5789 15.3977 5.7677 11.359 9.33415L12.8726 11.0482ZM40.8085 37.2669L12.9242 9.38271L11.3073 10.9996L39.1915 38.8839L40.8085 37.2669ZM41.1433 41.9246V38.0754H38.8567V41.9246H41.1433ZM9.38271 12.9242L39.1915 42.7331L40.8085 41.1161L10.9996 11.3073L9.38271 12.9242ZM5.86556 26.5C5.86556 21.2751 7.82837 16.5159 11.0479 12.8729L9.33445 11.3586C5.76476 15.3978 3.5789 20.689 3.5789 26.5H5.86556ZM13.0481 42.1339C8.65023 38.3441 5.86556 32.7406 5.86556 26.5H3.5789C3.5789 33.4362 6.67672 39.6621 11.5554 43.8661L13.0481 42.1339ZM8.38816 44.1433H12.3018V41.8567H8.38816V44.1433ZM0.856667 26.5C0.856667 33.1519 3.3902 39.2141 7.54318 43.7702L9.23314 42.2298C5.44909 38.0784 3.14333 32.5601 3.14333 26.5H0.856667ZM26.5 0.856667C12.3364 0.856667 0.856667 12.3364 0.856667 26.5H3.14333C3.14333 13.5993 13.5993 3.14333 26.5 3.14333V0.856667ZM40.6308 5.0983C36.5784 2.41752 31.7196 0.856667 26.5 0.856667V3.14333C31.2572 3.14333 35.6795 4.56454 39.3692 7.00543L40.6308 5.0983Z" fill="#FAF4F4" mask="url(#path-1-outside-1_1349_4529)"/>
</svg>
