<svg width="42" height="42" viewBox="0 0 42 42" fill="none" xmlns="http://www.w3.org/2000/svg">
<rect width="42" height="42" rx="4" fill="#E6F8F0"/>
<path fill-rule="evenodd" clip-rule="evenodd" d="M25.8513 16.6051C25.8513 19.3464 23.666 21.5445 20.9405 21.5445C18.215 21.5445 16.0297 19.3464 16.0297 16.6051C16.0297 13.8627 18.215 11.6667 20.9405 11.6667C23.666 11.6667 25.8513 13.8627 25.8513 16.6051ZM20.9405 30.3333C16.9374 30.3333 13.5194 29.6987 13.5194 27.1602C13.5194 24.6206 16.9155 23.9629 20.9405 23.9629C24.9435 23.9629 28.3616 24.5975 28.3616 27.1371C28.3616 29.6756 24.9655 30.3333 20.9405 30.3333ZM27.9499 16.6941C27.9499 18.0915 27.5331 19.3933 26.8018 20.4756C26.7266 20.5869 26.7935 20.7372 26.9262 20.7603C27.109 20.7918 27.298 20.8097 27.4903 20.815C29.4072 20.8654 31.1277 19.6245 31.603 17.7563C32.3071 14.9814 30.2397 12.4902 27.6073 12.4902C27.321 12.4902 27.0473 12.5207 26.781 12.5753C26.7444 12.5837 26.7057 12.6005 26.6848 12.6331C26.6598 12.673 26.6786 12.7266 26.7036 12.7613C27.4944 13.8761 27.9499 15.2357 27.9499 16.6941ZM31.1245 22.7646C32.4126 23.0179 33.2598 23.5348 33.6108 24.2861C33.9075 24.9028 33.9075 25.6184 33.6108 26.2341C33.0738 27.3993 31.3429 27.7734 30.6701 27.87C30.5312 27.891 30.4194 27.7702 30.434 27.6305C30.7777 24.4016 28.0439 22.8708 27.3367 22.5188C27.3064 22.503 27.3001 22.4788 27.3033 22.4641C27.3054 22.4536 27.3179 22.4368 27.3409 22.4337C28.8713 22.4053 30.5166 22.6154 31.1245 22.7646ZM14.5099 20.815C14.7021 20.8097 14.8902 20.7929 15.074 20.7603C15.2067 20.7372 15.2736 20.5869 15.1983 20.4756C14.4671 19.3933 14.0503 18.0915 14.0503 16.6941C14.0503 15.2357 14.5057 13.8761 15.2965 12.7613C15.3216 12.7266 15.3394 12.673 15.3153 12.6331C15.2944 12.6016 15.2547 12.5837 15.2192 12.5753C14.9518 12.5207 14.6781 12.4902 14.3919 12.4902C11.7594 12.4902 9.69206 14.9814 10.3972 17.7563C10.8725 19.6245 12.593 20.8654 14.5099 20.815ZM14.6964 22.4637C14.6995 22.4794 14.6933 22.5025 14.664 22.5193C13.9557 22.8713 11.2219 24.4022 11.5656 27.63C11.5802 27.7708 11.4695 27.8906 11.3306 27.8706C10.6578 27.7739 8.92686 27.3999 8.38992 26.2347C8.0922 25.6179 8.0922 24.9034 8.38992 24.2866C8.74091 23.5354 9.58707 23.0184 10.8751 22.7642C11.4841 22.616 13.1284 22.4059 14.6598 22.4342C14.6828 22.4374 14.6943 22.4542 14.6964 22.4637Z" fill="#41D29D"/>
</svg>
