<svg width="20" height="20" viewBox="0 0 20 20" fill="none" xmlns="http://www.w3.org/2000/svg">
<path fill-rule="evenodd" clip-rule="evenodd" d="M10.0017 4.16602C15.11 4.16602 17.5273 7.59099 18.3782 9.19216C18.6492 9.70201 18.6492 10.2967 18.3782 10.8065C17.5273 12.4077 15.11 15.8327 10.0017 15.8327C4.89334 15.8327 2.47606 12.4077 1.6251 10.8065C1.35413 10.2967 1.35413 9.70201 1.6251 9.19216C2.47607 7.59098 4.89334 4.16602 10.0017 4.16602ZM5.69863 7.06409C4.31507 7.9808 3.50719 9.2022 3.09683 9.97433C3.09225 9.98296 3.09036 9.98894 3.08954 9.99222C3.0887 9.99556 3.08854 9.99935 3.08854 9.99935C3.08854 9.99935 3.0887 10.0031 3.08954 10.0065C3.09036 10.0098 3.09225 10.0157 3.09683 10.0244C3.50719 10.7965 4.31507 12.0179 5.69863 12.9346C5.12741 12.0988 4.79334 11.0881 4.79334 9.99935C4.79334 8.9106 5.12741 7.89988 5.69863 7.06409ZM14.3047 12.9346C15.6883 12.0179 16.4962 10.7965 16.9065 10.0244C16.9111 10.0157 16.913 10.0098 16.9138 10.0065C16.9143 10.0043 16.9147 10.0013 16.9147 10.0013L16.9148 9.99935L16.9145 9.99568L16.9138 9.99222C16.913 9.98894 16.9111 9.98296 16.9065 9.97433C16.4962 9.20221 15.6883 7.98081 14.3047 7.0641C14.8759 7.89989 15.21 8.91061 15.21 9.99935C15.21 11.0881 14.8759 12.0988 14.3047 12.9346ZM6.46001 9.99935C6.46001 8.04334 8.04567 6.45768 10.0017 6.45768C11.9577 6.45768 13.5433 8.04334 13.5433 9.99935C13.5433 11.9554 11.9577 13.541 10.0017 13.541C8.04567 13.541 6.46001 11.9554 6.46001 9.99935Z" fill="#667085"/>
</svg>
