<svg width="14" height="14" viewBox="0 0 14 14" fill="none" xmlns="http://www.w3.org/2000/svg">
<path d="M5.63625 13.4325C2.43 12.8588 0 10.0913 0 6.75C0 3.0375 3.0375 0 6.75 0C10.4625 0 13.5 3.0375 13.5 6.75C13.5 10.0913 11.07 12.8588 7.86375 13.4325L7.4925 13.1288H6.0075L5.63625 13.4325Z" fill="#444444"/>
<path d="M9.38242 8.64019L9.68617 6.75019H7.89742V5.43394C7.89742 4.89394 8.09992 4.48894 8.90992 4.48894H9.78742V2.76769C9.31492 2.70019 8.77492 2.63269 8.30242 2.63269C6.74992 2.63269 5.66992 3.57769 5.66992 5.26519V6.75019H3.98242V8.64019H5.66992V13.3989C6.04117 13.4664 6.41242 13.5002 6.78367 13.5002C7.15492 13.5002 7.52617 13.4664 7.89742 13.3989V8.64019H9.38242Z" fill="white"/>
</svg>
