<svg width="42" height="42" viewBox="0 0 42 42" fill="none" xmlns="http://www.w3.org/2000/svg">
<rect width="42" height="42" rx="4" fill="#F0E2FB"/>
<path fill-rule="evenodd" clip-rule="evenodd" d="M29.6805 14.7591C29.6805 11.7376 27.6148 10.5264 24.6406 10.5264H17.6562C14.7735 10.5264 12.6131 11.655 12.6131 14.5576V30.7297C12.6131 31.5269 13.4709 32.029 14.1657 31.6392L21.1754 27.7071L28.1246 31.6326C28.8205 32.0246 29.6805 31.5225 29.6805 30.7242V14.7591Z" stroke="#9833DB" stroke-width="2.14809" stroke-linecap="round" stroke-linejoin="round"/>
<path fill-rule="evenodd" clip-rule="evenodd" d="M21.6311 16.7153L22.3769 18.2052C22.45 18.3515 22.5911 18.4529 22.7547 18.4764L24.4232 18.7166C24.8354 18.7761 24.9994 19.2757 24.7011 19.5619L23.4946 20.7212C23.376 20.8352 23.3221 20.9991 23.3501 21.1601L23.6348 22.7967C23.705 23.2016 23.274 23.5105 22.9056 23.319L21.4144 22.5457C21.2682 22.4698 21.0931 22.4698 20.9465 22.5457L19.4553 23.319C19.0868 23.5105 18.6559 23.2016 18.7264 22.7967L19.0107 21.1601C19.0388 20.9991 18.9848 20.8352 18.8663 20.7212L17.6598 19.5619C17.3614 19.2757 17.5255 18.7761 17.9377 18.7166L19.6061 18.4764C19.7697 18.4529 19.9113 18.3515 19.9844 18.2052L20.7297 16.7153C20.9142 16.3469 21.4467 16.3469 21.6311 16.7153Z" stroke="#9833DB" stroke-width="1.61537" stroke-linecap="round" stroke-linejoin="round"/>
</svg>
