<svg width="43" height="44" viewBox="0 0 43 44" fill="none" xmlns="http://www.w3.org/2000/svg">
<path fill-rule="evenodd" clip-rule="evenodd" d="M23.3842 19.7729L26.4619 21.803C26.7638 22.0024 27.1464 22.0407 27.4859 21.9046L30.9488 20.5189C31.8045 20.1769 32.6716 20.9528 32.4166 21.8314L31.3873 25.3878C31.2862 25.7374 31.3641 26.1112 31.5959 26.3885L33.9523 29.2098C34.5346 29.9081 34.0506 30.9768 33.1326 31.0174L29.4195 31.1854C29.0554 31.2018 28.7199 31.3955 28.5229 31.7031L26.5208 34.8347C26.0267 35.6094 24.8592 35.4942 24.5464 34.6403L23.2805 31.1895C23.1561 30.85 22.8714 30.5957 22.5181 30.5084L18.9235 29.6217C18.0351 29.4032 17.7967 28.2644 18.5208 27.6942L21.4523 25.3881C21.7398 25.1621 21.8988 24.8112 21.8771 24.45L21.657 20.7701C21.6028 19.8601 22.6232 19.271 23.3842 19.7729Z" stroke="#F4EFF7" stroke-width="3.57439" stroke-linecap="round" stroke-linejoin="round"/>
<path fill-rule="evenodd" clip-rule="evenodd" d="M0.877615 17.0921C2.17698 14.2258 4.7531 11.9724 7.7317 10.2527L21.1158 2.52535C24.1945 0.747842 27.4855 -0.326938 30.6665 0.0894619C33.986 0.523979 36.7334 2.51912 38.7029 5.93041L42.6209 12.7165V22.2229L34.5866 8.30699C33.2132 5.92828 31.64 5.0106 30.0496 4.80242C28.3208 4.57612 26.1129 5.12875 23.4924 6.64171L10.1083 14.369C7.56275 15.8387 5.93119 17.4564 5.20672 19.0546C4.54811 20.5074 4.5047 22.2284 5.77409 24.427L17.0677 43.9882H11.5793L1.65773 26.8036C-0.284169 23.4402 -0.487612 20.1036 0.877615 17.0921ZM35.8635 43.9882L36.0321 43.7045L42.6209 43.6426V38.8892L34.6496 38.9641C33.8191 38.9719 33.0529 39.4128 32.6287 40.1269L30.3351 43.9882H35.8635Z" fill="#F4EFF7"/>
</svg>
