<svg width="15" height="14" viewBox="0 0 15 14" fill="none" xmlns="http://www.w3.org/2000/svg">
<path d="M14.25 6.90356C14.25 8.95913 13.4987 10.6898 12.1961 11.8678C11.0564 12.8987 9.49726 13.5 7.63756 13.5C4.94522 13.5 2.62232 11.9782 1.4889 9.77531L1.48929 9.77494C1.48929 9.77494 1.48909 9.77513 1.4889 9.77513C1.0192 8.86706 0.75 7.84219 0.75 6.75C0.75 5.65781 1.0192 4.63294 1.4889 3.72488C2.62232 1.51575 4.94522 0 7.63776 0C9.49745 0 11.0503 0.668813 12.2462 1.76119L10.2739 3.69413C9.91378 3.36263 9.50855 3.11119 9.0662 2.94244C8.62404 2.77369 8.14496 2.68781 7.63776 2.68781C6.74235 2.68781 5.91429 2.98388 5.24196 3.47925C4.56964 3.97481 4.05306 4.66969 3.78061 5.46731C3.64286 5.87231 3.56154 6.30188 3.56154 6.75C3.56154 7.19813 3.64286 7.6275 3.78061 8.0325C3.78061 8.0325 3.77946 8.03344 3.77774 8.03475L3.78042 8.03869C4.32532 9.63413 5.84675 10.8186 7.63756 10.8186C8.56435 10.8186 9.34707 10.5729 9.96065 10.1679H9.96084C10.6934 9.68944 11.1819 8.9775 11.3447 8.13694H7.63776V5.52281H14.1247C14.2062 5.96456 14.25 6.42488 14.25 6.90356Z" fill="#444444"/>
</svg>
