<svg width="10" height="14" viewBox="0 0 10 14" fill="none" xmlns="http://www.w3.org/2000/svg">
<path d="M4.83564 0.354446C2.19858 0.354446 0.0603485 2.48214 0.0603485 5.10621C0.0603485 8.2082 2.85885 11.7198 4.17133 13.1961C4.52165 13.5897 5.14076 13.5841 5.48381 13.1833C6.78902 11.658 9.61174 8.02265 9.61174 5.10621C9.61093 2.48214 7.47271 0.354446 4.83564 0.354446ZM4.83564 7.50057C3.40451 7.50057 2.24458 6.34636 2.24458 4.92228C2.24458 3.49819 3.40451 2.34318 4.83564 2.34318C6.26677 2.34318 7.4267 3.49739 7.4267 4.92148C7.4267 6.34556 6.26677 7.49977 4.83564 7.49977V7.50057Z" fill="#5C5C5C"/>
</svg>
