<svg width="445" height="545" viewBox="0 0 445 545" fill="none" xmlns="http://www.w3.org/2000/svg">
<rect y="166.109" width="71.0421" height="71.0421" transform="rotate(-90 0 166.109)" fill="#15DFBB"/>
<mask id="mask0_1756_6135" style="mask-type:alpha" maskUnits="userSpaceOnUse" x="1" y="97" width="173" height="172">
<rect x="1.97314" y="268.725" width="171.685" height="171.685" transform="rotate(-90 1.97314 268.725)" fill="#FFBB9C"/>
</mask>
<g mask="url(#mask0_1756_6135)">
<rect x="-22.6943" y="229.972" width="7.8003" height="79.9224" transform="rotate(-45 -22.6943 229.972)" fill="#4F95FF"/>
<rect x="-35.5215" y="237.865" width="7.8003" height="79.9224" transform="rotate(-45 -35.5215 237.865)" fill="#4F95FF"/>
<rect x="-26.0488" y="204.91" width="7.8003" height="134.063" transform="rotate(-45 -26.0488 204.91)" fill="#4F95FF"/>
<rect x="-17.7607" y="191.689" width="7.8003" height="134.063" transform="rotate(-45 -17.7607 191.689)" fill="#4F95FF"/>
<rect x="-28.5435" y="160.185" width="7.8003" height="195.259" transform="rotate(-45 -28.5435 160.185)" fill="#4F95FF"/>
<rect x="-17.7607" y="148.417" width="7.8003" height="195.259" transform="rotate(-45 -17.7607 148.417)" fill="#4F95FF"/>
<rect x="-23.7168" y="120.753" width="7.8003" height="245.594" transform="rotate(-45 -23.7168 120.753)" fill="#4F95FF"/>
<rect x="-18.5142" y="103.192" width="7.8003" height="256.427" transform="rotate(-45 -18.5142 103.192)" fill="#4F95FF"/>
<rect x="-6.90723" y="93.324" width="7.8003" height="256.427" transform="rotate(-45 -6.90723 93.324)" fill="#4F95FF"/>
<rect x="1.97314" y="80.4968" width="7.8003" height="256.427" transform="rotate(-45 1.97314 80.4968)" fill="#4F95FF"/>
<rect x="7.89307" y="64.7092" width="7.8003" height="256.427" transform="rotate(-45 7.89307 64.7092)" fill="#4F95FF"/>
<rect x="17.7603" y="50.896" width="7.8003" height="256.427" transform="rotate(-45 17.7603 50.896)" fill="#4F95FF"/>
<rect x="26.6401" y="39.0552" width="7.8003" height="256.427" transform="rotate(-45 26.6401 39.0552)" fill="#4F95FF"/>
<rect x="39.4673" y="29.1885" width="7.8003" height="256.427" transform="rotate(-45 39.4673 29.1885)" fill="#4F95FF"/>
<rect x="54.2676" y="20.3079" width="7.8003" height="256.427" transform="rotate(-45 54.2676 20.3079)" fill="#4F95FF"/>
<rect x="66.1079" y="9.45508" width="7.8003" height="256.427" transform="rotate(-45 66.1079 9.45508)" fill="#4F95FF"/>
</g>
<mask id="mask1_1756_6135" style="mask-type:alpha" maskUnits="userSpaceOnUse" x="204" y="337" width="173" height="172">
<rect x="204.459" y="508.948" width="171.685" height="171.685" transform="rotate(-90 204.459 508.948)" fill="#FFBB9C"/>
</mask>
<g mask="url(#mask1_1756_6135)">
<rect x="179.792" y="470.195" width="7.8003" height="79.9224" transform="rotate(-45 179.792 470.195)" fill="#4F95FF"/>
<rect x="166.965" y="478.088" width="7.8003" height="79.9224" transform="rotate(-45 166.965 478.088)" fill="#4F95FF"/>
<rect x="176.438" y="445.133" width="7.8003" height="134.063" transform="rotate(-45 176.438 445.133)" fill="#4F95FF"/>
<rect x="184.726" y="431.911" width="7.8003" height="134.063" transform="rotate(-45 184.726 431.911)" fill="#4F95FF"/>
<rect x="173.943" y="400.408" width="7.8003" height="195.259" transform="rotate(-45 173.943 400.408)" fill="#4F95FF"/>
<rect x="184.726" y="388.64" width="7.8003" height="195.259" transform="rotate(-45 184.726 388.64)" fill="#4F95FF"/>
<rect x="178.77" y="360.976" width="7.8003" height="245.594" transform="rotate(-45 178.77 360.976)" fill="#4F95FF"/>
<rect x="183.973" y="343.414" width="7.8003" height="256.427" transform="rotate(-45 183.973 343.414)" fill="#4F95FF"/>
<rect x="195.579" y="333.547" width="7.8003" height="256.427" transform="rotate(-45 195.579 333.547)" fill="#4F95FF"/>
<rect x="204.459" y="320.72" width="7.8003" height="256.427" transform="rotate(-45 204.459 320.72)" fill="#4F95FF"/>
<rect x="210.379" y="304.932" width="7.8003" height="256.427" transform="rotate(-45 210.379 304.932)" fill="#4F95FF"/>
<rect x="220.247" y="291.118" width="7.8003" height="256.427" transform="rotate(-45 220.247 291.118)" fill="#4F95FF"/>
<rect x="229.126" y="279.278" width="7.8003" height="256.427" transform="rotate(-45 229.126 279.278)" fill="#4F95FF"/>
<rect x="241.954" y="269.411" width="7.8003" height="256.427" transform="rotate(-45 241.954 269.411)" fill="#4F95FF"/>
<rect x="256.754" y="260.531" width="7.8003" height="256.427" transform="rotate(-45 256.754 260.531)" fill="#4F95FF"/>
<rect x="268.594" y="249.677" width="7.8003" height="256.427" transform="rotate(-45 268.594 249.677)" fill="#4F95FF"/>
</g>
<rect x="168.725" y="406.863" width="138.137" height="138.137" transform="rotate(-90 168.725 406.863)" fill="#2B374D"/>
<rect x="306.863" y="276.619" width="138.137" height="138.137" transform="rotate(-90 306.863 276.619)" fill="#FDD231"/>
<rect x="173.658" y="138.481" width="138.137" height="138.137" transform="rotate(-90 173.658 138.481)" fill="#FDD231"/>
<rect x="35.521" y="545" width="138.137" height="138.137" transform="rotate(-90 35.521 545)" fill="#15DFBB"/>
<circle cx="242.727" cy="69.4119" r="22.694" transform="rotate(-90 242.727 69.4119)" fill="white"/>
<circle cx="357.677" cy="55.1053" r="8.38692" transform="rotate(-90 357.677 55.1053)" fill="#79FFF7"/>
<circle cx="357.677" cy="8.73051" r="8.38692" transform="rotate(-90 357.677 8.73051)" fill="#79FFF7"/>
<circle opacity="0.5" cx="302.916" cy="268.725" r="46.3747" transform="rotate(-90 302.916 268.725)" fill="white"/>
</svg>
