<svg width="170" height="62" viewBox="0 0 170 62" fill="none" xmlns="http://www.w3.org/2000/svg">
<path d="M89.7789 26.5078C89.2051 26.5078 88.7608 26.3505 88.4461 26.0358C88.1314 25.7026 87.974 25.249 87.974 24.6752V8.65335C87.974 8.06098 88.1221 7.6167 88.4183 7.32051C88.733 7.00582 89.1773 6.84847 89.7511 6.84847C90.325 6.84847 90.76 7.00582 91.0562 7.32051C91.3709 7.6167 91.5283 8.06098 91.5283 8.65335V23.4812H99.5808C100.081 23.4812 100.46 23.6107 100.719 23.8699C100.997 24.1291 101.136 24.4993 101.136 24.9806C101.136 25.4619 100.997 25.8414 100.719 26.1191C100.46 26.3782 100.081 26.5078 99.5808 26.5078H89.7789ZM109.289 26.7855C107.883 26.7855 106.661 26.4986 105.624 25.9247C104.587 25.3508 103.782 24.5363 103.208 23.4812C102.635 22.4075 102.348 21.1487 102.348 19.7048C102.348 18.6126 102.505 17.6407 102.82 16.7892C103.153 15.9192 103.625 15.1787 104.236 14.5678C104.847 13.9384 105.578 13.4664 106.429 13.1517C107.281 12.8185 108.234 12.6519 109.289 12.6519C110.696 12.6519 111.918 12.9388 112.955 13.5127C113.991 14.0865 114.797 14.901 115.371 15.9562C115.944 17.0113 116.231 18.2609 116.231 19.7048C116.231 20.797 116.065 21.7781 115.731 22.6481C115.417 23.5182 114.954 24.2679 114.343 24.8973C113.732 25.5082 113.001 25.9802 112.149 26.3134C111.298 26.6281 110.345 26.7855 109.289 26.7855ZM109.289 24.1476C109.974 24.1476 110.576 23.981 111.094 23.6478C111.613 23.3146 112.011 22.824 112.288 22.1761C112.585 21.5097 112.733 20.6859 112.733 19.7048C112.733 18.2239 112.418 17.1224 111.789 16.4005C111.159 15.66 110.326 15.2898 109.289 15.2898C108.605 15.2898 108.003 15.4564 107.485 15.7896C106.966 16.1043 106.559 16.5948 106.263 17.2613C105.985 17.9092 105.846 18.7237 105.846 19.7048C105.846 21.1672 106.161 22.2779 106.79 23.0369C107.42 23.7773 108.253 24.1476 109.289 24.1476ZM122.268 31.7281C121.861 31.7281 121.528 31.617 121.268 31.3949C121.009 31.1913 120.852 30.9136 120.796 30.5619C120.759 30.2101 120.824 29.8399 120.991 29.4512L122.879 25.2583V26.7022L117.825 15.0121C117.659 14.6048 117.603 14.2253 117.659 13.8736C117.714 13.5219 117.881 13.2442 118.159 13.0406C118.455 12.8185 118.853 12.7074 119.353 12.7074C119.778 12.7074 120.121 12.8092 120.38 13.0128C120.639 13.198 120.87 13.5589 121.074 14.0958L124.823 23.4534H123.99L127.822 14.068C128.025 13.5497 128.266 13.198 128.544 13.0128C128.821 12.8092 129.191 12.7074 129.654 12.7074C130.062 12.7074 130.385 12.8185 130.626 13.0406C130.867 13.2442 131.015 13.5219 131.07 13.8736C131.126 14.2068 131.061 14.5771 130.876 14.9843L124.129 30.3953C123.888 30.9136 123.629 31.2653 123.351 31.4504C123.073 31.6355 122.712 31.7281 122.268 31.7281ZM137.64 26.7855C136.659 26.7855 135.78 26.6004 135.002 26.2301C134.243 25.8414 133.642 25.3231 133.197 24.6752C132.772 24.0273 132.559 23.296 132.559 22.4815C132.559 21.4819 132.818 20.6952 133.336 20.1213C133.855 19.5289 134.697 19.1032 135.863 18.844C137.029 18.5848 138.594 18.4553 140.556 18.4553H141.944V20.4545H140.584C139.436 20.4545 138.52 20.51 137.835 20.6211C137.15 20.7322 136.659 20.9266 136.363 21.2042C136.085 21.4634 135.946 21.8336 135.946 22.3149C135.946 22.9258 136.159 23.4256 136.585 23.8144C137.011 24.2031 137.603 24.3975 138.362 24.3975C138.973 24.3975 139.51 24.2587 139.973 23.981C140.454 23.6848 140.833 23.2868 141.111 22.787C141.389 22.2872 141.528 21.7133 141.528 21.0654V17.8721C141.528 16.9466 141.324 16.2801 140.917 15.8729C140.51 15.4656 139.825 15.262 138.862 15.262C138.325 15.262 137.742 15.3268 137.113 15.4564C136.502 15.586 135.854 15.8081 135.169 16.1228C134.817 16.2894 134.502 16.3357 134.225 16.2616C133.966 16.1876 133.762 16.0395 133.614 15.8173C133.466 15.5767 133.392 15.3175 133.392 15.0399C133.392 14.7622 133.466 14.4938 133.614 14.2346C133.762 13.9569 134.012 13.7533 134.364 13.6237C135.215 13.272 136.03 13.0221 136.807 12.874C137.603 12.7259 138.325 12.6519 138.973 12.6519C140.306 12.6519 141.398 12.8555 142.25 13.2627C143.12 13.67 143.768 14.2901 144.193 15.1232C144.619 15.9377 144.832 16.9928 144.832 18.2887V24.9528C144.832 25.5267 144.693 25.971 144.415 26.2857C144.138 26.5819 143.74 26.73 143.221 26.73C142.703 26.73 142.296 26.5819 142 26.2857C141.722 25.971 141.583 25.5267 141.583 24.9528V23.62H141.805C141.676 24.2679 141.417 24.8325 141.028 25.3138C140.658 25.7766 140.186 26.1376 139.612 26.3967C139.038 26.6559 138.381 26.7855 137.64 26.7855ZM152.992 26.7855C151.456 26.7855 150.299 26.3505 149.521 25.4804C148.744 24.5919 148.355 23.296 148.355 21.593V8.45898C148.355 7.88512 148.503 7.45009 148.799 7.15391C149.095 6.85772 149.521 6.70963 150.077 6.70963C150.632 6.70963 151.058 6.85772 151.354 7.15391C151.669 7.45009 151.826 7.88512 151.826 8.45898V21.4264C151.826 22.2779 152.002 22.9073 152.353 23.3146C152.724 23.7218 153.242 23.9254 153.908 23.9254C154.057 23.9254 154.195 23.9254 154.325 23.9254C154.455 23.9069 154.584 23.8884 154.714 23.8699C154.973 23.8329 155.149 23.9069 155.241 24.092C155.334 24.2587 155.38 24.6104 155.38 25.1472C155.38 25.61 155.288 25.971 155.102 26.2301C154.917 26.4893 154.612 26.6466 154.186 26.7022C154.001 26.7207 153.807 26.7392 153.603 26.7577C153.399 26.7762 153.196 26.7855 152.992 26.7855ZM94.7215 55.7855C93.907 55.7855 93.0925 55.7207 92.278 55.5911C91.4635 55.48 90.6952 55.3042 89.9733 55.0635C89.2513 54.8044 88.6034 54.4897 88.0296 54.1194C87.6964 53.8973 87.465 53.6289 87.3354 53.3142C87.2058 52.9995 87.1595 52.694 87.1965 52.3979C87.2521 52.0832 87.3724 51.8147 87.5575 51.5926C87.7611 51.352 88.0111 51.2039 88.3072 51.1483C88.6034 51.0928 88.9274 51.1761 89.2791 51.3982C90.0936 51.8795 90.9544 52.2313 91.8615 52.4534C92.7685 52.6755 93.7219 52.7866 94.7215 52.7866C96.1839 52.7866 97.2484 52.546 97.9148 52.0647C98.5812 51.5648 98.9144 50.9262 98.9144 50.1487C98.9144 49.5008 98.6737 48.9917 98.1924 48.6215C97.7297 48.2513 96.9244 47.9458 95.7767 47.7052L92.7223 47.0665C90.9637 46.6963 89.6493 46.0761 88.7793 45.2061C87.9278 44.3175 87.502 43.1513 87.502 41.7074C87.502 40.8003 87.6871 39.9766 88.0573 39.2361C88.4276 38.4956 88.9459 37.857 89.6123 37.3201C90.2972 36.7833 91.1025 36.376 92.0281 36.0984C92.9722 35.8022 94.0088 35.6541 95.138 35.6541C96.2487 35.6541 97.3039 35.7929 98.3035 36.0706C99.3031 36.3483 100.201 36.7555 100.997 37.2924C101.293 37.496 101.488 37.7459 101.58 38.0421C101.691 38.3383 101.719 38.6345 101.663 38.9307C101.608 39.2083 101.478 39.449 101.275 39.6526C101.071 39.8562 100.812 39.9766 100.497 40.0136C100.201 40.0506 99.8585 39.958 99.4697 39.7359C98.7848 39.3472 98.0906 39.0695 97.3872 38.9029C96.6837 38.7363 95.9248 38.653 95.1103 38.653C94.2587 38.653 93.5275 38.7733 92.9166 39.014C92.3058 39.2546 91.8337 39.5971 91.5005 40.0414C91.1858 40.4671 91.0284 40.9762 91.0284 41.5686C91.0284 42.235 91.2506 42.7718 91.6949 43.1791C92.1391 43.5678 92.8981 43.8733 93.9718 44.0954L96.9984 44.734C98.8311 45.1228 100.192 45.7337 101.08 46.5667C101.987 47.3997 102.441 48.5104 102.441 49.8988C102.441 50.7873 102.256 51.5926 101.886 52.3146C101.534 53.0365 101.015 53.6567 100.331 54.175C99.6641 54.6933 98.8589 55.0913 97.9148 55.369C96.9707 55.6466 95.9063 55.7855 94.7215 55.7855ZM106.88 60.7281C106.324 60.7281 105.899 60.58 105.602 60.2838C105.306 59.9876 105.158 59.5526 105.158 58.9787V43.4567C105.158 42.8829 105.306 42.4479 105.602 42.1517C105.899 41.8555 106.315 41.7074 106.852 41.7074C107.407 41.7074 107.833 41.8555 108.129 42.1517C108.425 42.4479 108.574 42.8829 108.574 43.4567V45.6226L108.268 44.7896C108.546 43.8455 109.11 43.0865 109.962 42.5127C110.832 41.9388 111.841 41.6519 112.989 41.6519C114.173 41.6519 115.21 41.9388 116.099 42.5127C117.006 43.0865 117.709 43.901 118.209 44.9562C118.709 45.9928 118.959 47.2424 118.959 48.7048C118.959 50.1487 118.709 51.4075 118.209 52.4812C117.709 53.5363 117.015 54.3508 116.126 54.9247C115.238 55.4986 114.192 55.7855 112.989 55.7855C111.859 55.7855 110.869 55.5078 110.017 54.9525C109.166 54.3786 108.592 53.6381 108.296 52.7311H108.629V58.9787C108.629 59.5526 108.472 59.9876 108.157 60.2838C107.861 60.58 107.435 60.7281 106.88 60.7281ZM112.017 53.1476C112.702 53.1476 113.303 52.981 113.822 52.6478C114.34 52.3146 114.738 51.824 115.016 51.1761C115.312 50.5097 115.46 49.6859 115.46 48.7048C115.46 47.2239 115.145 46.1224 114.516 45.4005C113.886 44.66 113.053 44.2898 112.017 44.2898C111.332 44.2898 110.73 44.4564 110.212 44.7896C109.694 45.1043 109.286 45.5948 108.99 46.2613C108.712 46.9092 108.574 47.7237 108.574 48.7048C108.574 50.1672 108.888 51.2779 109.518 52.0369C110.147 52.7773 110.98 53.1476 112.017 53.1476ZM128 55.7855C126.593 55.7855 125.371 55.4986 124.335 54.9247C123.298 54.3508 122.493 53.5363 121.919 52.4812C121.345 51.4075 121.058 50.1487 121.058 48.7048C121.058 47.6126 121.215 46.6407 121.53 45.7892C121.863 44.9192 122.335 44.1787 122.946 43.5678C123.557 42.9384 124.288 42.4664 125.14 42.1517C125.991 41.8185 126.945 41.6519 128 41.6519C129.407 41.6519 130.629 41.9388 131.665 42.5127C132.702 43.0865 133.507 43.901 134.081 44.9562C134.655 46.0113 134.942 47.2609 134.942 48.7048C134.942 49.797 134.775 50.7781 134.442 51.6481C134.127 52.5182 133.664 53.2679 133.054 53.8973C132.443 54.5082 131.712 54.9802 130.86 55.3134C130.008 55.6281 129.055 55.7855 128 55.7855ZM128 53.1476C128.685 53.1476 129.286 52.981 129.805 52.6478C130.323 52.3146 130.721 51.824 130.999 51.1761C131.295 50.5097 131.443 49.6859 131.443 48.7048C131.443 47.2239 131.128 46.1224 130.499 45.4005C129.87 44.66 129.037 44.2898 128 44.2898C127.315 44.2898 126.713 44.4564 126.195 44.7896C125.677 45.1043 125.269 45.5948 124.973 46.2613C124.696 46.9092 124.557 47.7237 124.557 48.7048C124.557 50.1672 124.871 51.2779 125.501 52.0369C126.13 52.7773 126.963 53.1476 128 53.1476ZM143.891 55.7855C142.688 55.7855 141.679 55.5819 140.864 55.1746C140.068 54.7673 139.476 54.175 139.087 53.3975C138.698 52.6015 138.504 51.6204 138.504 50.4541V44.5397H137.06C136.616 44.5397 136.273 44.4286 136.033 44.2065C135.792 43.9658 135.672 43.6419 135.672 43.2346C135.672 42.8088 135.792 42.4849 136.033 42.2627C136.273 42.0406 136.616 41.9295 137.06 41.9295H138.504V39.4027C138.504 38.8288 138.652 38.3938 138.948 38.0976C139.263 37.8014 139.698 37.6534 140.253 37.6534C140.809 37.6534 141.235 37.8014 141.531 38.0976C141.827 38.3938 141.975 38.8288 141.975 39.4027V41.9295H144.918C145.363 41.9295 145.705 42.0406 145.946 42.2627C146.186 42.4849 146.307 42.8088 146.307 43.2346C146.307 43.6419 146.186 43.9658 145.946 44.2065C145.705 44.4286 145.363 44.5397 144.918 44.5397H141.975V50.2598C141.975 51.1483 142.169 51.8147 142.558 52.259C142.947 52.7033 143.576 52.9254 144.446 52.9254C144.761 52.9254 145.039 52.8977 145.279 52.8421C145.52 52.7866 145.733 52.7496 145.918 52.7311C146.14 52.7126 146.325 52.7866 146.473 52.9532C146.621 53.1013 146.695 53.416 146.695 53.8973C146.695 54.2675 146.631 54.6007 146.501 54.8969C146.39 55.1746 146.177 55.369 145.862 55.48C145.622 55.5541 145.307 55.6189 144.918 55.6744C144.53 55.7485 144.187 55.7855 143.891 55.7855Z" fill="#3EA570"/>
<path d="M11.9147 55.4969C10.4296 57.3142 8.02268 56.2016 6.87334 57.5739C5.72401 58.9461 6.2329 61.1269 7.8351 61.3939C9.83785 61.7277 12.8812 61.5423 14.9581 61.5423C17.0351 61.5423 19.0749 61.5423 19.52 58.7978C19.965 56.0533 20.2595 52.4186 20.1853 47.4859C20.1112 42.5532 18.1084 40.6988 16.8474 39.4749C15.5864 38.251 16.1428 35.9887 18.8873 37.2126C21.6318 38.4365 22.6702 40.6988 23.7829 43.3692C24.8955 46.0395 24.5617 52.4928 24.7472 55.6824C24.8955 58.234 26.3419 59.2428 27.0466 59.4283C26.9972 57.92 27.0244 54.1321 27.5288 51.0464C28.1593 47.1892 30.607 43.6659 33.4628 42.3307C36.3187 40.9955 37.1964 39.5986 37.6909 38.8074C35.8365 35.8032 35.0948 33.9859 34.6126 32.1315C34.1305 30.2771 34.2046 29.0161 34.5013 27.8293C34.9217 27.8293 35.8364 27.8293 36.7266 28.2002C37.6167 28.5711 38.4574 29.3252 38.8406 29.7208C39.298 29.2881 40.3612 28.3115 41.6964 27.681C43.0316 27.0505 44.3914 27.0876 45.2197 26.9763C45.2568 26.5807 45.2939 25.7524 45.4423 25.0477C45.5907 24.343 46.0357 23.5024 46.3324 23.0821C47.1236 23.7743 48.743 25.3815 49.6703 26.9763C50.5975 28.5711 51.5618 30.3884 51.1538 34.5051C50.7458 38.6219 48.0261 39.8458 46.4436 40.2909C46.1593 41.0697 45.8874 42.5903 45.7761 44.6302L45.776 44.6319C45.6648 46.6712 45.5535 48.7106 45.5906 51.1947C45.6277 53.6796 47.3708 53.6796 47.7788 54.4956C48.1868 55.3115 48.0013 56.0162 46.1098 56.1274C44.2184 56.2387 39.8792 55.942 38.4327 56.6467C36.9862 57.3513 37.1345 61.3939 40.9175 61.3939C44.7005 61.3939 48.706 61.5423 52.0439 61.3939C55.3818 61.2456 59.4986 61.9503 61.0934 58.5382C62.3692 55.8085 63.603 52.5052 64.0604 51.1947C64.8516 50.9104 66.7678 49.9338 68.103 48.3019C69.772 46.262 70.9959 44.1109 71.1442 39.2524C71.2926 34.3939 69.1044 28.7936 66.4341 26.9763C63.7637 25.159 63.0591 27.1617 64.8393 29.5354C66.6195 31.909 66.9162 35.9516 66.7308 39.2524C66.5453 42.5532 63.875 43.9255 62.5769 40.6988C61.2788 37.4722 60.7967 31.909 58.9423 29.0903C57.0878 26.2716 53.1937 22.1919 47.5192 21.8949C41.8448 21.598 39.3598 19.7809 36.059 17.8526C32.7582 15.9244 29.2719 11.2139 28.1963 9.0628C27.1208 6.91169 29.1606 6.50373 30.7183 8.02433C32.276 9.54494 33.2774 12.104 36.059 14.1809C38.2843 15.8425 41.439 15.9612 43.2934 15.071C45.1478 14.1809 46.3324 12.0298 46.0728 9.84164C45.8131 7.65345 43.8868 6.65183 41.2164 6.65183C38.5461 6.65183 36.2837 6.16993 34.4664 5.50235C32.6491 4.83477 30.4958 3.23998 29.1606 2.05317C27.8255 0.866352 25.4518 0.161437 22.8186 0.013085C20.1853 -0.135267 20.3708 1.01446 22.0768 1.60787C23.7829 2.20128 25.6373 4.01859 26.3419 6.72601C27.0466 9.43343 26.8983 11.1395 27.4546 12.8455C28.0109 14.5516 29.754 14.9595 30.7183 16.9252C31.6826 18.8909 31.0543 21.0422 30.3474 22.5626C29.6406 24.0829 28.1738 24.8993 27.3826 25.159C27.5804 24.7757 27.8233 24.12 28.048 23.3785C28.2727 22.637 28.2952 21.8208 28.3447 21.3387C28.629 20.9554 29.3112 20.3746 29.3112 19.1136C29.3112 17.8526 28.0851 16.9622 26.1194 17.1477C24.1538 17.3331 22.8164 18.3713 23.3749 19.7809C23.9334 21.1906 25.8598 21.7466 26.8983 21.8949C26.8983 23.1189 26.4532 24.9362 24.5617 25.9005C22.6702 26.8647 18.8873 26.3087 16.5878 25.27C14.2884 24.2313 13.4375 22.5626 12.807 20.6713C12.1765 18.7801 10.5076 19.6329 10.4683 20.7825C10.429 21.9322 10.6166 24.751 8.87351 26.3087C12.2856 29.8691 13.0645 34.8018 13.4724 40.0312C13.8804 45.2606 13.3999 53.6796 11.9147 55.4969Z" fill="#3EA570"/>
<path d="M45.6268 34.4714C45.33 34.9166 45.4039 35.3246 45.9233 35.6212C46.4427 35.9177 47.1908 35.9922 47.5246 35.547C47.8584 35.1018 47.6295 34.1376 47.2215 33.878C46.8136 33.6184 45.9235 34.0263 45.6268 34.4714Z" fill="#3EA570"/>
<path d="M9.42116 4.27958C8.56127 4.97096 5.83048 7.63079 4.08049 9.91695C2.33049 12.2031 1.23026 14.5662 0.668523 16.2723C0.10678 17.9783 -0.586202 21.7713 0.859814 23.565C2.30583 25.3588 6.15732 25.6791 7.71502 23.565C9.27271 21.451 8.8346 19.0171 9.72472 16.013C10.6148 13.0089 12.3511 9.50899 12.3882 5.83728C12.4253 2.16557 10.281 3.5882 9.42116 4.27958Z" fill="#3EA570"/>
<path fill-rule="evenodd" clip-rule="evenodd" d="M42.5011 32.8308L41.9591 33.7052L43.0212 33.6508C43.1428 34.2934 42.771 34.9259 42.1534 35.0944C41.5026 35.272 40.8253 34.8673 40.6406 34.1905C40.4559 33.5136 40.8337 32.821 41.4845 32.6434C41.8445 32.5451 42.2127 32.6251 42.5011 32.8308Z" fill="#3EA570"/>
<path fill-rule="evenodd" clip-rule="evenodd" d="M24.5278 8.07791L23.7669 8.97601L25.1056 8.95665C25.1107 8.9737 25.1156 8.99088 25.1203 9.00819C25.3775 9.95895 24.8514 10.9319 23.9452 11.1814C23.039 11.4309 22.0959 10.8624 21.8387 9.91163C21.5815 8.96087 22.1076 7.98788 23.0138 7.7384C23.5571 7.58882 24.1137 7.7333 24.5278 8.07791Z" fill="#3EA570"/>
<path fill-rule="evenodd" clip-rule="evenodd" d="M48.2177 30.0472L47.8498 30.9646L48.9396 30.7202C48.9904 30.8465 49.0181 30.9833 49.0181 31.1263C49.0181 31.7613 48.4702 32.276 47.7942 32.276C47.1183 32.276 46.5703 31.7613 46.5703 31.1263C46.5703 30.4913 47.1183 29.9766 47.7942 29.9766C47.9431 29.9766 48.0857 30.0015 48.2177 30.0472Z" fill="#3EA570"/>
<path fill-rule="evenodd" clip-rule="evenodd" d="M17.9132 11.3902L17.0217 12.5546L18.2444 12.6175C18.1401 13.5257 17.3215 14.2328 16.327 14.2328C15.2619 14.2328 14.3984 13.4216 14.3984 12.4211C14.3984 11.4205 15.2619 10.6094 16.327 10.6094C16.9844 10.6094 17.565 10.9184 17.9132 11.3902Z" fill="#3EA570"/>
</svg>
