<svg width="42" height="42" viewBox="0 0 42 42" fill="none" xmlns="http://www.w3.org/2000/svg">
<rect width="42" height="42" rx="4" fill="#FEEFDF"/>
<path fill-rule="evenodd" clip-rule="evenodd" d="M25.8514 16.6051C25.8514 19.3464 23.666 21.5445 20.9406 21.5445C18.2151 21.5445 16.0297 19.3464 16.0297 16.6051C16.0297 13.8627 18.2151 11.6667 20.9406 11.6667C23.666 11.6667 25.8514 13.8627 25.8514 16.6051ZM20.9406 30.3333C16.9375 30.3333 13.5195 29.6987 13.5195 27.1602C13.5195 24.6206 16.9156 23.9629 20.9406 23.9629C24.9436 23.9629 28.3617 24.5975 28.3617 27.1371C28.3617 29.6756 24.9655 30.3333 20.9406 30.3333ZM27.95 16.6941C27.95 18.0915 27.5332 19.3933 26.8019 20.4756C26.7267 20.5869 26.7935 20.7372 26.9262 20.7603C27.109 20.7918 27.2981 20.8097 27.4903 20.815C29.4072 20.8654 31.1277 19.6245 31.6031 17.7563C32.3071 14.9814 30.2398 12.4902 27.6073 12.4902C27.3211 12.4902 27.0474 12.5207 26.781 12.5753C26.7445 12.5837 26.7058 12.6005 26.6849 12.6331C26.6598 12.673 26.6786 12.7266 26.7037 12.7613C27.4945 13.8761 27.95 15.2357 27.95 16.6941ZM31.1246 22.7646C32.4126 23.0179 33.2598 23.5348 33.6108 24.2861C33.9075 24.9028 33.9075 25.6184 33.6108 26.2341C33.0739 27.3993 31.3429 27.7734 30.6702 27.87C30.5313 27.891 30.4195 27.7702 30.4341 27.6305C30.7778 24.4016 28.044 22.8708 27.3368 22.5188C27.3065 22.503 27.3002 22.4788 27.3033 22.4641C27.3054 22.4536 27.318 22.4368 27.3409 22.4337C28.8713 22.4053 30.5166 22.6154 31.1246 22.7646ZM14.51 20.815C14.7022 20.8097 14.8902 20.7929 15.0741 20.7603C15.2068 20.7372 15.2736 20.5869 15.1984 20.4756C14.4672 19.3933 14.0503 18.0915 14.0503 16.6941C14.0503 15.2357 14.5058 13.8761 15.2966 12.7613C15.3217 12.7266 15.3394 12.673 15.3154 12.6331C15.2945 12.6016 15.2548 12.5837 15.2193 12.5753C14.9519 12.5207 14.6782 12.4902 14.3919 12.4902C11.7595 12.4902 9.69212 14.9814 10.3972 17.7563C10.8726 19.6245 12.5931 20.8654 14.51 20.815ZM14.6964 22.4637C14.6996 22.4794 14.6933 22.5025 14.6641 22.5193C13.9558 22.8713 11.222 24.4022 11.5657 27.63C11.5803 27.7708 11.4696 27.8906 11.3306 27.8706C10.6579 27.7739 8.92692 27.3999 8.38998 26.2347C8.09226 25.6179 8.09226 24.9034 8.38998 24.2866C8.74098 23.5354 9.58713 23.0184 10.8752 22.7642C11.4842 22.616 13.1284 22.4059 14.6599 22.4342C14.6829 22.4374 14.6944 22.4542 14.6964 22.4637Z" fill="#F49300"/>
</svg>
