<svg width="120" height="35" viewBox="0 0 120 35" fill="none" xmlns="http://www.w3.org/2000/svg">
<path d="M56.9961 2V16H53.7561V10.26H47.3961V16H44.1561V2H47.3961V7.52H53.7561V2H56.9961ZM65.2084 16.16C64.0751 16.16 63.0551 15.9267 62.1484 15.46C61.2551 14.98 60.5551 14.32 60.0484 13.48C59.5418 12.64 59.2884 11.6867 59.2884 10.62C59.2884 9.55333 59.5418 8.6 60.0484 7.76C60.5551 6.92 61.2551 6.26667 62.1484 5.8C63.0551 5.32 64.0751 5.08 65.2084 5.08C66.3418 5.08 67.3551 5.32 68.2484 5.8C69.1418 6.26667 69.8418 6.92 70.3484 7.76C70.8551 8.6 71.1084 9.55333 71.1084 10.62C71.1084 11.6867 70.8551 12.64 70.3484 13.48C69.8418 14.32 69.1418 14.98 68.2484 15.46C67.3551 15.9267 66.3418 16.16 65.2084 16.16ZM65.2084 13.6C66.0084 13.6 66.6618 13.3333 67.1684 12.8C67.6884 12.2533 67.9484 11.5267 67.9484 10.62C67.9484 9.71333 67.6884 8.99333 67.1684 8.46C66.6618 7.91333 66.0084 7.64 65.2084 7.64C64.4084 7.64 63.7484 7.91333 63.2284 8.46C62.7084 8.99333 62.4484 9.71333 62.4484 10.62C62.4484 11.5267 62.7084 12.2533 63.2284 12.8C63.7484 13.3333 64.4084 13.6 65.2084 13.6ZM86.9739 5.08C88.3206 5.08 89.3872 5.48 90.1739 6.28C90.9739 7.06667 91.3739 8.25333 91.3739 9.84V16H88.2539V10.32C88.2539 9.46667 88.0739 8.83333 87.7139 8.42C87.3672 7.99333 86.8672 7.78 86.2139 7.78C85.4806 7.78 84.9006 8.02 84.4739 8.5C84.0472 8.96667 83.8339 9.66667 83.8339 10.6V16H80.7139V10.32C80.7139 8.62667 80.0339 7.78 78.6739 7.78C77.9539 7.78 77.3806 8.02 76.9539 8.5C76.5272 8.96667 76.3139 9.66667 76.3139 10.6V16H73.1939V5.24H76.1739V6.48C76.5739 6.02667 77.0606 5.68 77.6339 5.44C78.2206 5.2 78.8606 5.08 79.5539 5.08C80.3139 5.08 81.0006 5.23333 81.6139 5.54C82.2272 5.83333 82.7206 6.26667 83.0939 6.84C83.5339 6.28 84.0872 5.84667 84.7539 5.54C85.4339 5.23333 86.1739 5.08 86.9739 5.08ZM104.828 10.66C104.828 10.7 104.808 10.98 104.768 11.5H96.6277C96.7743 12.1667 97.121 12.6933 97.6677 13.08C98.2143 13.4667 98.8943 13.66 99.7077 13.66C100.268 13.66 100.761 13.58 101.188 13.42C101.628 13.2467 102.034 12.98 102.408 12.62L104.068 14.42C103.054 15.58 101.574 16.16 99.6277 16.16C98.4143 16.16 97.341 15.9267 96.4077 15.46C95.4743 14.98 94.7543 14.32 94.2477 13.48C93.741 12.64 93.4877 11.6867 93.4877 10.62C93.4877 9.56667 93.7343 8.62 94.2277 7.78C94.7343 6.92667 95.421 6.26667 96.2877 5.8C97.1677 5.32 98.1477 5.08 99.2277 5.08C100.281 5.08 101.234 5.30667 102.088 5.76C102.941 6.21333 103.608 6.86667 104.088 7.72C104.581 8.56 104.828 9.54 104.828 10.66ZM99.2477 7.44C98.541 7.44 97.9477 7.64 97.4677 8.04C96.9877 8.44 96.6943 8.98667 96.5877 9.68H101.888C101.781 9 101.488 8.46 101.008 8.06C100.528 7.64667 99.941 7.44 99.2477 7.44ZM48.7561 33.24C47.6494 33.24 46.5761 33.0933 45.5361 32.8C44.5094 32.4933 43.6828 32.1 43.0561 31.62L44.1561 29.18C44.7561 29.62 45.4694 29.9733 46.2961 30.24C47.1228 30.5067 47.9494 30.64 48.7761 30.64C49.6961 30.64 50.3761 30.5067 50.8161 30.24C51.2561 29.96 51.4761 29.5933 51.4761 29.14C51.4761 28.8067 51.3428 28.5333 51.0761 28.32C50.8228 28.0933 50.4894 27.9133 50.0761 27.78C49.6761 27.6467 49.1294 27.5 48.4361 27.34C47.3694 27.0867 46.4961 26.8333 45.8161 26.58C45.1361 26.3267 44.5494 25.92 44.0561 25.36C43.5761 24.8 43.3361 24.0533 43.3361 23.12C43.3361 22.3067 43.5561 21.5733 43.9961 20.92C44.4361 20.2533 45.0961 19.7267 45.9761 19.34C46.8694 18.9533 47.9561 18.76 49.2361 18.76C50.1294 18.76 51.0028 18.8667 51.8561 19.08C52.7094 19.2933 53.4561 19.6 54.0961 20L53.0961 22.46C51.8028 21.7267 50.5094 21.36 49.2161 21.36C48.3094 21.36 47.6361 21.5067 47.1961 21.8C46.7694 22.0933 46.5561 22.48 46.5561 22.96C46.5561 23.44 46.8028 23.8 47.2961 24.04C47.8028 24.2667 48.5694 24.4933 49.5961 24.72C50.6628 24.9733 51.5361 25.2267 52.2161 25.48C52.8961 25.7333 53.4761 26.1333 53.9561 26.68C54.4494 27.2267 54.6961 27.9667 54.6961 28.9C54.6961 29.7 54.4694 30.4333 54.0161 31.1C53.5761 31.7533 52.9094 32.2733 52.0161 32.66C51.1228 33.0467 50.0361 33.24 48.7561 33.24ZM63.23 22.08C64.5633 22.08 65.6367 22.48 66.45 23.28C67.2767 24.08 67.69 25.2667 67.69 26.84V33H64.57V27.32C64.57 26.4667 64.3833 25.8333 64.01 25.42C63.6367 24.9933 63.0967 24.78 62.39 24.78C61.6033 24.78 60.9767 25.0267 60.51 25.52C60.0433 26 59.81 26.72 59.81 27.68V33H56.69V18.16H59.81V23.36C60.2233 22.9467 60.7233 22.6333 61.31 22.42C61.8967 22.1933 62.5367 22.08 63.23 22.08ZM75.7553 33.16C74.622 33.16 73.602 32.9267 72.6953 32.46C71.802 31.98 71.102 31.32 70.5953 30.48C70.0886 29.64 69.8353 28.6867 69.8353 27.62C69.8353 26.5533 70.0886 25.6 70.5953 24.76C71.102 23.92 71.802 23.2667 72.6953 22.8C73.602 22.32 74.622 22.08 75.7553 22.08C76.8886 22.08 77.902 22.32 78.7953 22.8C79.6886 23.2667 80.3886 23.92 80.8953 24.76C81.402 25.6 81.6553 26.5533 81.6553 27.62C81.6553 28.6867 81.402 29.64 80.8953 30.48C80.3886 31.32 79.6886 31.98 78.7953 32.46C77.902 32.9267 76.8886 33.16 75.7553 33.16ZM75.7553 30.6C76.5553 30.6 77.2086 30.3333 77.7153 29.8C78.2353 29.2533 78.4953 28.5267 78.4953 27.62C78.4953 26.7133 78.2353 25.9933 77.7153 25.46C77.2086 24.9133 76.5553 24.64 75.7553 24.64C74.9553 24.64 74.2953 24.9133 73.7753 25.46C73.2553 25.9933 72.9953 26.7133 72.9953 27.62C72.9953 28.5267 73.2553 29.2533 73.7753 29.8C74.2953 30.3333 74.9553 30.6 75.7553 30.6ZM100.728 22.24L96.8278 33H93.8278L91.4078 26.32L88.9078 33H85.9078L82.0278 22.24H84.9678L87.5078 29.52L90.1478 22.24H92.7878L95.3478 29.52L97.9678 22.24H100.728Z" fill="#1F2744"/>
<path d="M0 16.8898L16.1681 9.08447V32.5004H0V16.8898Z" fill="#1F2744"/>
<path d="M23.416 17.1685L31.7788 9.08447V32.5004H23.416V17.1685Z" fill="#1F2744"/>
<path d="M31.7793 1L31.7793 9.08407L16.1687 9.08407L31.7793 1Z" fill="#1F2744"/>
</svg>
