<svg width="24" height="24" viewBox="0 0 24 24" fill="none" xmlns="http://www.w3.org/2000/svg">
<path fill-rule="evenodd" clip-rule="evenodd" d="M13.0034 3C13.0034 2.44772 12.5557 2 12.0034 2C11.4511 2 11.0034 2.44772 11.0034 3V3.57088C7.61111 4.0561 5.00338 6.97352 5.00338 10.5V15.5L4.28579 16.7558C3.71437 17.7558 4.43642 19 5.58815 19H8.12944C8.57348 20.7252 10.1396 22 12.0034 22C13.8673 22 15.4334 20.7252 15.8774 19H18.4186C19.5703 19 20.2924 17.7558 19.721 16.7558L19.0034 15.5V10.5C19.0034 6.97354 16.3957 4.05614 13.0034 3.57089V3ZM7.00338 16.0311L6.44974 17H17.557L17.0034 16.0311V10.5C17.0034 7.73858 14.7648 5.5 12.0034 5.5C9.24196 5.5 7.00338 7.73858 7.00338 10.5V16.0311ZM12.0034 20C11.2631 20 10.6168 19.5978 10.271 19H13.7359C13.39 19.5978 12.7437 20 12.0034 20Z" fill="#667085"/>
</svg>
