<svg width="47" height="48" viewBox="0 0 47 48" fill="none" xmlns="http://www.w3.org/2000/svg">
<path fill-rule="evenodd" clip-rule="evenodd" d="M14.5053 15.2579L27.4852 0L32.922 4.62502L14.5053 15.2579ZM30.4999 21.6984L44.4878 13.6225L41.0777 7.71603C39.9823 5.81867 37.5475 5.16635 35.6502 6.26174L35.1684 6.53991L9.13315 21.5714L1.98586 25.6979C0.0885851 26.7933 -0.563865 29.228 0.531573 31.1254L10.2742 48H35.9534L46.7923 41.7422V26.0674L36.4649 32.0299C34.5675 33.1254 32.1328 32.473 31.0374 30.5757L29.0457 27.1259C27.9503 25.2286 28.6027 22.7937 30.4999 21.6984ZM45.8768 16.0323L46.7923 17.618V22.8557L35.0724 29.6222C34.5033 29.9507 33.773 29.7551 33.4444 29.1859L31.4527 25.7362C31.1241 25.167 31.3197 24.4367 31.8889 24.1081L31.8889 24.1082L45.8768 16.0323ZM36.1399 27.4513C35.2611 27.9587 34.1373 27.6577 33.6299 26.7788C33.1225 25.9 33.4236 24.7762 34.3025 24.2688C35.1813 23.7614 36.305 24.0625 36.8125 24.9413C37.3198 25.8203 37.0187 26.944 36.1399 27.4513Z" fill="#EEF5F1"/>
</svg>
