<svg width="56" height="56" viewBox="0 0 56 56" fill="none" xmlns="http://www.w3.org/2000/svg">
<rect width="56" height="56" rx="5.33333" fill="#E4F8EA"/>
<path fill-rule="evenodd" clip-rule="evenodd" d="M25.825 17.3339L37.9877 13L39.532 17.3339H25.825ZM32.6777 26.0834H43.0885V21.6874C43.0885 20.2753 41.9397 19.1265 40.5276 19.1265H40.169H20.7916H15.4721C14.06 19.1265 12.9111 20.2753 12.9111 21.6874V39.9616C12.9111 41.3738 14.06 42.5227 15.4721 42.5227H40.5275C41.9397 42.5227 43.0885 41.3738 43.0885 39.9616V33.7729H32.6777C31.2656 33.7729 30.1168 32.6241 30.1168 31.212V28.6444C30.1168 27.2323 31.2657 26.0834 32.6777 26.0834ZM32.6764 27.8765C32.2528 27.8765 31.9082 28.2211 31.9082 28.6447V31.2122C31.9082 31.6358 32.2528 31.9804 32.6764 31.9804H43.0872V27.8765H32.6764V27.8765ZM33.9719 31.1127C33.3178 31.1127 32.7875 30.5825 32.7875 29.9284C32.7875 29.2743 33.3178 28.744 33.9719 28.744C34.626 28.744 35.1562 29.2742 35.1562 29.9284C35.1562 30.5825 34.6259 31.1127 33.9719 31.1127Z" fill="#26C870"/>
</svg>
