<svg width="20" height="20" viewBox="0 0 20 20" fill="none" xmlns="http://www.w3.org/2000/svg">
<path fill-rule="evenodd" clip-rule="evenodd" d="M17.3018 6.81991C18.2781 5.8436 18.2781 4.26069 17.3018 3.28438L16.7125 2.69512C15.7362 1.71881 14.1533 1.71881 13.177 2.69512L3.68804 12.1841C3.34331 12.5288 3.10689 12.9668 3.00789 13.4442L2.33818 16.6735C2.21639 17.2607 2.73613 17.7805 3.32336 17.6587L6.55272 16.989C7.03009 16.89 7.4681 16.6536 7.81284 16.3089L17.3018 6.81991ZM16.1233 4.46289L15.534 3.87363C15.2086 3.5482 14.6809 3.5482 14.3555 3.87363L13.4716 4.75755L15.2394 6.52531L16.1233 5.6414C16.4487 5.31596 16.4487 4.78833 16.1233 4.46289ZM14.0608 7.70382L12.2931 5.93606L4.86655 13.3626C4.75164 13.4775 4.67284 13.6235 4.63984 13.7826L4.22789 15.769L6.21428 15.3571C6.37341 15.3241 6.51941 15.2453 6.63433 15.1303L14.0608 7.70382Z" fill="#667085"/>
</svg>
