<svg width="44" height="47" viewBox="0 0 44 47" fill="none" xmlns="http://www.w3.org/2000/svg">
<mask id="path-1-outside-1_1349_4153" maskUnits="userSpaceOnUse" x="0" y="0" width="44" height="47" fill="black">
<rect fill="white" width="44" height="47"/>
<path fill-rule="evenodd" clip-rule="evenodd" d="M6.59023 45.498H11.8501C9.75068 43.659 7.99083 41.3635 6.73561 38.6716C4.31685 33.4846 4.22953 27.8092 6.04399 22.8261C7.85715 17.8424 11.573 13.5506 16.7591 11.1322C18.5869 10.2799 20.4575 9.71786 22.3215 9.42596C23.7779 9.19841 25.2545 9.12806 26.7259 9.21614L26.3762 9.53107C25.5346 10.2854 25.4642 11.5806 26.2186 12.4222C26.973 13.2638 28.2672 13.3346 29.1097 12.5798L33.3596 8.75192C34.1314 8.06028 34.2549 6.91377 33.689 6.07903C33.5873 5.88688 33.4563 5.71178 33.3006 5.56008L29.1915 1.58023C28.3772 0.790228 27.0774 0.809305 26.287 1.62272C25.4979 2.4366 25.517 3.73636 26.3304 4.52677L27.303 5.46914C25.4468 5.33166 23.581 5.40772 21.7421 5.69584C19.5005 6.04642 17.2849 6.70691 15.158 7.69867C9.02348 10.5593 4.62983 15.6357 2.48432 21.5305C0.338817 27.4252 0.441454 34.1382 3.30205 40.2727C4.19586 42.1895 5.30615 43.9365 6.59023 45.498ZM17.9029 22.464C17.4611 21.5165 17.8714 20.3892 18.8198 19.9469C19.7673 19.5051 20.8946 19.9154 21.3365 20.8629L26.2095 31.3131L34.8285 31.1219C35.8734 31.0989 36.7381 31.9279 36.7611 32.9727C36.7837 34.0166 35.9552 34.8823 34.9103 34.9052L25.1604 35.1219C24.3958 35.18 23.6406 34.7685 23.2978 34.0333L17.9029 22.464ZM42.5465 45.498H42.3295C41.4639 44.9352 41.1181 43.6857 41.8618 42.7308C42.0987 42.4311 42.327 42.125 42.5465 41.8128V45.498ZM39.3163 14.4649C40.1149 15.1728 41.3335 15.0904 42.023 14.2755C42.6882 13.4915 42.6052 12.3227 41.8387 11.6375C40.8204 10.724 39.7236 9.90099 38.567 9.16933C37.1225 8.26821 35.3183 9.56838 35.7181 11.2249C35.8415 11.7091 36.1237 12.1063 36.5474 12.3751C37.5288 12.9967 38.4523 13.6884 39.3163 14.4649Z"/>
</mask>
<path fill-rule="evenodd" clip-rule="evenodd" d="M6.59023 45.498H11.8501C9.75068 43.659 7.99083 41.3635 6.73561 38.6716C4.31685 33.4846 4.22953 27.8092 6.04399 22.8261C7.85715 17.8424 11.573 13.5506 16.7591 11.1322C18.5869 10.2799 20.4575 9.71786 22.3215 9.42596C23.7779 9.19841 25.2545 9.12806 26.7259 9.21614L26.3762 9.53107C25.5346 10.2854 25.4642 11.5806 26.2186 12.4222C26.973 13.2638 28.2672 13.3346 29.1097 12.5798L33.3596 8.75192C34.1314 8.06028 34.2549 6.91377 33.689 6.07903C33.5873 5.88688 33.4563 5.71178 33.3006 5.56008L29.1915 1.58023C28.3772 0.790228 27.0774 0.809305 26.287 1.62272C25.4979 2.4366 25.517 3.73636 26.3304 4.52677L27.303 5.46914C25.4468 5.33166 23.581 5.40772 21.7421 5.69584C19.5005 6.04642 17.2849 6.70691 15.158 7.69867C9.02348 10.5593 4.62983 15.6357 2.48432 21.5305C0.338817 27.4252 0.441454 34.1382 3.30205 40.2727C4.19586 42.1895 5.30615 43.9365 6.59023 45.498ZM17.9029 22.464C17.4611 21.5165 17.8714 20.3892 18.8198 19.9469C19.7673 19.5051 20.8946 19.9154 21.3365 20.8629L26.2095 31.3131L34.8285 31.1219C35.8734 31.0989 36.7381 31.9279 36.7611 32.9727C36.7837 34.0166 35.9552 34.8823 34.9103 34.9052L25.1604 35.1219C24.3958 35.18 23.6406 34.7685 23.2978 34.0333L17.9029 22.464ZM42.5465 45.498H42.3295C41.4639 44.9352 41.1181 43.6857 41.8618 42.7308C42.0987 42.4311 42.327 42.125 42.5465 41.8128V45.498ZM39.3163 14.4649C40.1149 15.1728 41.3335 15.0904 42.023 14.2755C42.6882 13.4915 42.6052 12.3227 41.8387 11.6375C40.8204 10.724 39.7236 9.90099 38.567 9.16933C37.1225 8.26821 35.3183 9.56838 35.7181 11.2249C35.8415 11.7091 36.1237 12.1063 36.5474 12.3751C37.5288 12.9967 38.4523 13.6884 39.3163 14.4649Z" fill="#F4EFF7"/>
<path d="M6.59023 45.498L6.1517 45.8586L6.32204 46.0658H6.59023V45.498ZM11.8501 45.498V46.0658H13.3598L12.2242 45.0709L11.8501 45.498ZM6.73561 38.6716L6.22105 38.9116L6.73561 38.6716ZM6.04399 22.8261L6.57748 23.0203L6.57753 23.0202L6.04399 22.8261ZM16.7591 11.1322L16.5192 10.6177L16.7591 11.1322ZM22.3215 9.42596L22.2339 8.86501L22.2337 8.86504L22.3215 9.42596ZM26.7259 9.21614L27.1058 9.63802L28.1136 8.73044L26.7598 8.6494L26.7259 9.21614ZM26.3762 9.53107L26.7551 9.95385L26.7561 9.95295L26.3762 9.53107ZM26.2186 12.4222L26.6414 12.0433V12.0433L26.2186 12.4222ZM29.1097 12.5798L29.4886 13.0027L29.4897 13.0017L29.1097 12.5798ZM33.3596 8.75192L32.9807 8.3291L32.9797 8.33006L33.3596 8.75192ZM33.689 6.07903L33.1872 6.34459L33.2017 6.37197L33.2191 6.39761L33.689 6.07903ZM33.3006 5.56008L33.6967 5.15341L33.6955 5.15225L33.3006 5.56008ZM29.1915 1.58023L28.7961 1.98772L28.7965 1.98805L29.1915 1.58023ZM26.287 1.62272L25.8798 1.22705L25.8794 1.2275L26.287 1.62272ZM26.3304 4.52677L25.9347 4.93395L25.9353 4.93452L26.3304 4.52677ZM27.303 5.46914L27.261 6.03534L28.8226 6.15101L27.698 5.06139L27.303 5.46914ZM21.7421 5.69584L21.8299 6.25678L21.83 6.25675L21.7421 5.69584ZM15.158 7.69867L14.9181 7.18411L15.158 7.69867ZM2.48432 21.5305L1.95081 21.3363L2.48432 21.5305ZM3.30205 40.2727L3.81661 40.0328L3.30205 40.2727ZM18.8198 19.9469L18.5799 19.4324L18.8198 19.9469ZM17.9029 22.464L18.4175 22.2241L17.9029 22.464ZM21.3365 20.8629L21.851 20.623L21.3365 20.8629ZM26.2095 31.3131L25.6949 31.553L25.8516 31.8889L26.2221 31.8807L26.2095 31.3131ZM34.8285 31.1219L34.8161 30.5543L34.8159 30.5543L34.8285 31.1219ZM36.7611 32.9727L37.3287 32.9604L37.3287 32.9602L36.7611 32.9727ZM34.9103 34.9052L34.8979 34.3376H34.8977L34.9103 34.9052ZM25.1604 35.1219L25.1477 34.5543L25.1325 34.5546L25.1173 34.5557L25.1604 35.1219ZM23.2978 34.0333L23.8124 33.7934V33.7934L23.2978 34.0333ZM42.3295 45.498L42.02 45.974L42.1612 46.0658H42.3295V45.498ZM42.5465 45.498V46.0658H43.1143V45.498H42.5465ZM41.8618 42.7308L41.4164 42.3786L41.4138 42.3819L41.8618 42.7308ZM42.5465 41.8128H43.1143V40.018L42.0821 41.4863L42.5465 41.8128ZM42.023 14.2755L41.5901 13.9083L41.5896 13.9088L42.023 14.2755ZM39.3163 14.4649L38.9368 14.8872L38.9397 14.8898L39.3163 14.4649ZM41.8387 11.6375L41.4596 12.0602L41.4604 12.0608L41.8387 11.6375ZM38.567 9.16933L38.8706 8.68952L38.8675 8.68762L38.567 9.16933ZM35.7181 11.2249L35.1661 11.3581L35.1679 11.3651L35.7181 11.2249ZM36.5474 12.3751L36.2432 12.8545L36.2436 12.8548L36.5474 12.3751ZM6.59023 46.0658H11.8501V44.9303H6.59023V46.0658ZM12.2242 45.0709C10.183 43.2829 8.47144 41.0507 7.25016 38.4317L6.22105 38.9116C7.51022 41.6762 9.31841 44.0351 11.476 45.9251L12.2242 45.0709ZM7.25016 38.4317C4.89759 33.3866 4.81246 27.8677 6.57748 23.0203L5.5105 22.6318C3.6466 27.7508 3.7361 33.5826 6.22105 38.9116L7.25016 38.4317ZM6.57753 23.0202C8.34128 18.1723 11.9548 13.999 16.9991 11.6468L16.5192 10.6177C11.1911 13.1022 7.37302 17.5125 5.51045 22.632L6.57753 23.0202ZM16.9991 11.6468C18.7789 10.8169 20.5982 10.2705 22.4093 9.98688L22.2337 8.86504C20.3167 9.16522 18.395 9.74295 16.5192 10.6177L16.9991 11.6468ZM22.4092 9.98691C23.8253 9.76564 25.2612 9.69723 26.6919 9.78288L26.7598 8.6494C25.2478 8.55889 23.7304 8.63118 22.2339 8.86501L22.4092 9.98691ZM26.3459 8.79426L25.9962 9.10919L26.7561 9.95295L27.1058 9.63802L26.3459 8.79426ZM25.9973 9.10828C24.9219 10.0721 24.8323 11.7262 25.7958 12.8011L26.6414 12.0433C26.0961 11.4349 26.1472 10.4988 26.7551 9.95385L25.9973 9.10828ZM25.7958 12.8011C26.7596 13.8764 28.4127 13.9665 29.4886 13.0027L28.7309 12.1569C28.1217 12.7027 27.1863 12.6512 26.6414 12.0433L25.7958 12.8011ZM29.4897 13.0017L33.7396 9.17378L32.9797 8.33006L28.7298 12.1579L29.4897 13.0017ZM33.7385 9.17474C34.725 8.29075 34.8819 6.82683 34.159 5.76044L33.2191 6.39761C33.6279 7.00072 33.5379 7.82982 32.9807 8.3291L33.7385 9.17474ZM34.1908 5.81347C34.0615 5.56907 33.8948 5.34636 33.6967 5.15341L32.9044 5.96674C33.0177 6.0772 33.1132 6.20469 33.1872 6.34459L34.1908 5.81347ZM33.6955 5.15225L29.5865 1.1724L28.7965 1.98805L32.9056 5.9679L33.6955 5.15225ZM29.5868 1.17273C28.5477 0.16459 26.8887 0.188814 25.8798 1.22705L26.6942 2.01838C27.2661 1.4298 28.2067 1.41587 28.7961 1.98772L29.5868 1.17273ZM25.8794 1.2275C24.8722 2.2663 24.8966 3.92516 25.9347 4.93395L26.726 4.11959C26.1374 3.54756 26.1236 2.6069 26.6946 2.01793L25.8794 1.2275ZM25.9353 4.93452L26.9079 5.87689L27.698 5.06139L26.7255 4.11902L25.9353 4.93452ZM27.3449 4.90294C25.4454 4.76224 23.536 4.84009 21.6543 5.13493L21.83 6.25675C23.6259 5.97536 25.4482 5.90107 27.261 6.03534L27.3449 4.90294ZM21.6544 5.13491C19.3615 5.4935 17.0945 6.16923 14.9181 7.18411L15.398 8.21323C17.4753 7.24459 19.6395 6.59934 21.8299 6.25678L21.6544 5.13491ZM14.9181 7.18411C8.64155 10.1109 4.1457 15.3059 1.95081 21.3363L3.01784 21.7246C5.11396 15.9656 9.4054 11.0076 15.398 8.21323L14.9181 7.18411ZM1.95081 21.3363C-0.244079 27.3667 -0.139314 34.2361 2.78749 40.5127L3.81661 40.0328C1.02222 34.0402 0.921713 27.4837 3.01784 21.7246L1.95081 21.3363ZM2.78749 40.5127C3.70165 42.4731 4.83757 44.2605 6.1517 45.8586L7.02876 45.1374C5.77474 43.6124 4.69008 41.906 3.81661 40.0328L2.78749 40.5127ZM18.5799 19.4324C17.3474 20.007 16.8139 21.4721 17.3884 22.7039L18.4175 22.2241C18.1083 21.5609 18.3954 20.7713 19.0598 20.4615L18.5799 19.4324ZM21.851 20.623C21.2767 19.3913 19.8116 18.858 18.5799 19.4324L19.0598 20.4615C19.7231 20.1522 20.5126 20.4395 20.8219 21.1029L21.851 20.623ZM26.724 31.0731L21.851 20.623L20.8219 21.1029L25.6949 31.553L26.724 31.0731ZM34.8159 30.5543L26.1969 30.7455L26.2221 31.8807L34.8411 31.6895L34.8159 30.5543ZM37.3287 32.9602C37.2989 31.6024 36.1749 30.5244 34.8161 30.5543L34.841 31.6895C35.5718 31.6734 36.1774 32.2533 36.1935 32.9852L37.3287 32.9602ZM34.9228 35.4729C36.2809 35.443 37.3581 34.3179 37.3287 32.9604L36.1935 32.985C36.2093 33.7154 35.6294 34.3215 34.8979 34.3376L34.9228 35.4729ZM25.173 35.6895L34.923 35.4729L34.8977 34.3376L25.1477 34.5543L25.173 35.6895ZM22.7832 34.2733C23.2294 35.2301 24.2115 35.7634 25.2034 35.688L25.1173 34.5557C24.5802 34.5966 24.0519 34.307 23.8124 33.7934L22.7832 34.2733ZM17.3884 22.7039L22.7832 34.2733L23.8124 33.7934L18.4175 22.2241L17.3884 22.7039ZM42.3295 46.0658H42.5465V44.9303H42.3295V46.0658ZM42.639 45.022C42.0203 44.6198 41.7931 43.743 42.3097 43.0796L41.4138 42.3819C40.4431 43.6284 40.9075 45.2506 42.02 45.974L42.639 45.022ZM42.3071 43.0829C42.5507 42.7749 42.7854 42.4603 43.011 42.1393L42.0821 41.4863C41.8687 41.7898 41.6467 42.0874 41.4164 42.3786L42.3071 43.0829ZM41.9788 41.8128V45.498H43.1143V41.8128H41.9788ZM41.5896 13.9088C41.1076 14.4783 40.2551 14.5384 39.6929 14.0401L38.9397 14.8898C39.9748 15.8073 41.5593 15.7024 42.4564 14.6423L41.5896 13.9088ZM41.4604 12.0608C41.9983 12.5417 42.0553 13.3598 41.5901 13.9083L42.456 14.6428C43.321 13.6231 43.2122 12.1038 42.2171 11.2142L41.4604 12.0608ZM38.2635 9.64913C39.3945 10.3647 40.4659 11.1688 41.4596 12.0602L42.2179 11.2149C41.1749 10.2793 40.0526 9.4373 38.8706 8.68953L38.2635 9.64913ZM36.27 11.0917C35.9895 9.92959 37.2531 9.01882 38.2665 9.65104L38.8675 8.68762C36.992 7.51761 34.6471 9.20716 35.1661 11.358L36.27 11.0917ZM36.8515 11.8957C36.5533 11.7065 36.3568 11.4322 36.2682 11.0846L35.1679 11.3651C35.3262 11.9859 35.6941 12.5062 36.2432 12.8545L36.8515 11.8957ZM39.6958 14.0426C38.8067 13.2436 37.8575 12.5329 36.8512 11.8955L36.2436 12.8548C37.2 13.4606 38.0979 14.1333 38.9368 14.8872L39.6958 14.0426Z" fill="#F4EFF7" mask="url(#path-1-outside-1_1349_4153)"/>
</svg>
