<svg width="42" height="42" viewBox="0 0 42 42" fill="none" xmlns="http://www.w3.org/2000/svg">
<rect width="42" height="42" rx="4" fill="#F0E2FB"/>
<path d="M23.0369 31.4032L23.0365 31.4044C22.9118 31.7437 22.6201 31.9844 22.2582 32.0323L22.2577 32.0324C21.5255 32.1266 20.7859 32.149 20.0494 32.0993C17.3307 31.9162 14.8848 30.7382 13.0731 28.9265C11.0974 26.9508 9.875 24.2209 9.875 21.2063C9.875 18.1913 11.0974 15.4618 13.0731 13.4862C15.0487 11.5105 17.7782 10.2881 20.7932 10.2881C21.8386 10.2881 22.8573 10.4385 23.8281 10.719C24.5163 10.9175 25.1829 11.1838 25.818 11.5137L25.7253 11.2709L25.7253 11.2708C25.5232 10.7395 25.7898 10.1451 26.3206 9.94255L26.3208 9.9425C26.8521 9.74045 27.4464 10.0071 27.649 10.5383L23.0369 31.4032ZM23.0369 31.4032C23.2772 30.7295 22.7176 30.0367 22.0086 30.1304L23.0369 31.4032ZM29.7418 22.0842L29.7418 22.0838C29.7897 21.5789 29.7978 21.0808 29.763 20.5755L29.7418 22.0842ZM29.7418 22.0842C29.7072 22.4604 29.8905 22.8135 30.2151 23.0042L30.2167 23.0051M29.7418 22.0842L30.2167 23.0051M30.2167 23.0051C30.8264 23.3514 31.5799 22.9629 31.6515 22.2657L31.6516 22.2648M30.2167 23.0051L31.6516 22.2648M31.6516 22.2648C31.7094 21.6555 31.7185 21.0521 31.6768 20.4413L31.6767 20.4409M31.6516 22.2648L31.6767 20.4409M31.6767 20.4409C31.653 20.1075 31.4601 19.8133 31.164 19.6578L31.1634 19.6575M31.6767 20.4409L31.1634 19.6575M31.1634 19.6575C30.4988 19.3129 29.7103 19.828 29.763 20.5753L31.1634 19.6575ZM29.0604 17.6587L29.06 17.6579C28.8626 17.1941 28.6261 16.7524 28.3537 16.3272L28.3536 16.3271C28.217 16.1134 28.1726 15.8699 28.2192 15.6232L28.2195 15.6216C28.3904 14.7764 29.4965 14.5659 29.9663 15.2881L29.9667 15.2887C30.2956 15.8015 30.5835 16.3401 30.8227 16.9008L29.0604 17.6587ZM29.0604 17.6587C29.275 18.1536 29.8517 18.3771 30.3427 18.1507M29.0604 17.6587L30.3427 18.1507M30.3427 18.1507C30.8158 17.9332 31.0277 17.3791 30.8228 16.901L30.3427 18.1507ZM28.5482 12.8912L27.649 10.5383L22.0083 30.1305C21.3827 30.2118 20.7324 30.2275 20.1003 30.1796C17.8913 30.0117 15.9052 29.0461 14.4293 27.5702C12.8004 25.9413 11.7932 23.6915 11.7932 21.2063C11.7932 18.7207 12.8004 16.4709 14.4293 14.8424L14.4293 14.8424C16.0578 13.2135 18.308 12.2063 20.7932 12.2063C21.6696 12.2063 22.509 12.3284 23.2958 12.5556C23.8154 12.7057 24.32 12.9027 24.8036 13.1439C24.3175 13.3413 24.0534 13.8809 24.2086 14.3927C24.3731 14.9351 24.9462 15.2414 25.4889 15.077L25.4892 15.0769L27.8973 14.3402C27.8973 14.3402 27.8973 14.3402 27.8974 14.3402C28.3925 14.1901 28.6909 13.6991 28.6144 13.2021C28.6083 13.0958 28.586 12.9911 28.5483 12.8915L28.5482 12.8912ZM24.3347 23.3068L24.3347 23.3068L20.9341 21.812V16.8164C20.9341 16.287 20.5046 15.8575 19.9752 15.8575C19.4455 15.8575 19.0159 16.2869 19.0159 16.8164V22.4374C19.0159 22.8472 19.2731 23.1965 19.6343 23.3341L23.5626 25.0607C23.5626 25.0608 23.5626 25.0608 23.5627 25.0608C24.047 25.2738 24.6125 25.0539 24.8256 24.5699L24.8256 24.5698C25.0386 24.0855 24.8192 23.5199 24.3347 23.3068ZM24.8747 29.2512L24.8739 29.2516C24.1022 29.6463 24.205 30.7786 25.0365 31.0271L25.0382 31.0276C25.2769 31.0952 25.5175 31.0746 25.7411 30.9628L25.7413 30.9627C26.2859 30.6891 26.8087 30.3668 27.2987 30.0051L27.2992 30.0047C27.5707 29.8023 27.712 29.4824 27.683 29.1463L27.6828 29.1446C27.6088 28.3997 26.7596 28.0215 26.1567 28.4639L26.1564 28.4641C25.7524 28.7625 25.3236 29.0258 24.8747 29.2512ZM28.2298 26.3035L28.2296 26.3038C27.7926 26.9553 28.2832 27.831 29.0684 27.7964L29.0695 27.7963C29.3741 27.7801 29.6497 27.6303 29.822 27.373C30.1639 26.8659 30.4591 26.335 30.712 25.7787L30.7125 25.7776C30.9892 25.1541 30.5575 24.4538 29.8746 24.4247L29.8733 24.4247C29.4823 24.4118 29.1271 24.6309 28.9642 24.9877L28.9641 24.9879C28.755 25.4481 28.5121 25.8847 28.2298 26.3035ZM29.8662 22.0956C29.8361 22.4232 29.9952 22.7301 30.2784 22.8964L29.8877 20.5667C29.923 21.0791 29.9148 21.5841 29.8662 22.0956Z" fill="#9833DB" stroke="#9833DB" stroke-width="0.25"/>
</svg>
