<svg width="42" height="42" viewBox="0 0 42 42" fill="none" xmlns="http://www.w3.org/2000/svg">
<rect width="42" height="42" rx="4" fill="#F0E2FB"/>
<g clip-path="url(#clip0_1349_4174)">
<path fill-rule="evenodd" clip-rule="evenodd" d="M34.4836 33.7296V7.87458H19.826V16.7972L18.9538 16.1042V7.6404C18.9673 7.47697 19.0384 7.32366 19.1545 7.20789C19.2195 7.14203 19.2969 7.08973 19.3822 7.05404C19.4675 7.01835 19.5591 6.99998 19.6516 7H34.658C34.7499 6.99998 34.8409 7.01813 34.9258 7.0534C35.0107 7.08866 35.0878 7.14036 35.1526 7.2055L35.1837 7.23896C35.2978 7.36636 35.3608 7.53148 35.3605 7.70253V14.4435V33.7296H30.8514V27.813C30.8514 27.7072 30.8094 27.6057 30.7346 27.5309C30.6597 27.456 30.5582 27.414 30.4524 27.414H27.6112V34.6042H35.3629V33.7296H34.4836ZM7.84955 34.6018V26.0543C7.52595 26.1911 7.16418 26.2081 6.82921 26.1021C6.6083 26.0281 6.41336 25.892 6.26766 25.7102C6.12026 25.5279 6.02748 25.3075 6.00003 25.0746C5.98065 24.8598 6.00472 24.6433 6.07082 24.4381C6.13691 24.2328 6.24368 24.0429 6.38475 23.8798C6.40124 23.8598 6.41965 23.8414 6.43971 23.8249L15.6108 16.6562C15.6688 16.6017 15.7445 16.57 15.824 16.5669C15.9034 16.5639 15.9814 16.5896 16.0433 16.6395L25.236 23.7843L25.2766 23.8201C25.4596 23.9979 25.5948 24.219 25.6696 24.4629C25.7444 24.7069 25.7563 24.9658 25.7043 25.2156C25.6551 25.4231 25.5551 25.6152 25.4132 25.7745C25.2714 25.9338 25.0923 26.0554 24.8919 26.1284C24.7143 26.1898 24.5262 26.2152 24.3386 26.2028C24.1511 26.1905 23.9679 26.1409 23.7998 26.0567V34.5612H22.9109V25.6816C22.9109 25.5191 16.6049 20.5345 15.9095 19.992C15.1712 20.5536 8.74086 25.488 8.74086 25.7055V34.6042L7.84955 34.6018ZM15.8761 25.9253C16.8051 25.9303 17.6945 26.3019 18.351 26.9593C19.0074 27.6166 19.3778 28.5066 19.3816 29.4356V33.1752H12.3658V29.4356C12.3683 28.5054 12.739 27.614 13.3967 26.9562C14.0545 26.2985 14.9459 25.9278 15.8761 25.9253ZM16.1795 26.5514V29.4451H18.7746C18.7752 28.7276 18.5106 28.0352 18.0315 27.501C17.5525 26.9668 16.8929 26.6286 16.1795 26.5514ZM16.1795 30.0545V32.5683H18.7746V30.0545H16.1795ZM15.5702 32.5683V30.0545H12.9775V32.5683H15.5702ZM15.5702 29.4475V26.5514C14.8591 26.6295 14.2017 26.9667 13.7235 27.4987C13.2453 28.0307 12.9797 28.7202 12.9775 29.4356L15.5702 29.4475ZM11.7206 33.8395H20.0291V34.4488H11.7206V33.8395ZM21.9336 10.0754H24.2873C24.3049 10.076 24.3215 10.0832 24.334 10.0956C24.3464 10.108 24.3536 10.1247 24.3542 10.1423V12.8664C24.3536 12.8837 24.3463 12.9001 24.3338 12.9121C24.3213 12.9242 24.3047 12.9309 24.2873 12.9309H21.9336C21.9249 12.9312 21.9163 12.9298 21.9082 12.9267C21.9001 12.9236 21.8927 12.9189 21.8864 12.9129C21.8802 12.9068 21.8752 12.8996 21.8718 12.8916C21.8684 12.8836 21.8667 12.875 21.8667 12.8664V10.1423C21.8667 10.1245 21.8737 10.1075 21.8863 10.095C21.8988 10.0824 21.9159 10.0754 21.9336 10.0754ZM30.0246 10.0754H32.3784C32.3959 10.076 32.4126 10.0832 32.425 10.0956C32.4374 10.108 32.4447 10.1247 32.4453 10.1423V12.8664C32.4446 12.8837 32.4373 12.9001 32.4248 12.9121C32.4124 12.9242 32.3957 12.9309 32.3784 12.9309H30.0246C30.0073 12.9309 29.9906 12.9242 29.9782 12.9121C29.9657 12.9001 29.9584 12.8837 29.9577 12.8664V10.1423C29.9583 10.1247 29.9656 10.108 29.978 10.0956C29.9904 10.0832 30.0071 10.076 30.0246 10.0754ZM25.9791 10.0754H28.3328C28.3504 10.076 28.3671 10.0832 28.3795 10.0956C28.3919 10.108 28.3992 10.1247 28.3997 10.1423V12.8664C28.3991 12.8837 28.3918 12.9001 28.3793 12.9121C28.3668 12.9242 28.3502 12.9309 28.3328 12.9309H25.9791C25.9705 12.9312 25.9618 12.9298 25.9537 12.9267C25.9456 12.9236 25.9382 12.9189 25.932 12.9129C25.9257 12.9068 25.9207 12.8996 25.9173 12.8916C25.914 12.8836 25.9122 12.875 25.9122 12.8664V10.1423C25.9122 10.1245 25.9193 10.1075 25.9318 10.095C25.9444 10.0824 25.9614 10.0754 25.9791 10.0754ZM21.9336 15.5451H24.2873C24.3047 15.545 24.3213 15.5518 24.3338 15.5638C24.3463 15.5758 24.3536 15.5922 24.3542 15.6096V18.3337C24.3536 18.3512 24.3464 18.3679 24.334 18.3803C24.3215 18.3927 24.3049 18.4 24.2873 18.4006H21.9336C21.9159 18.4006 21.8988 18.3935 21.8863 18.381C21.8737 18.3684 21.8667 18.3514 21.8667 18.3337V15.6024C21.8667 15.5937 21.8684 15.5851 21.8718 15.5772C21.8752 15.5692 21.8802 15.5619 21.8864 15.5559C21.8927 15.5499 21.9001 15.5452 21.9082 15.5421C21.9163 15.539 21.9249 15.5376 21.9336 15.5379V15.5451ZM30.0246 15.5451H32.3784C32.3957 15.545 32.4124 15.5518 32.4248 15.5638C32.4373 15.5758 32.4446 15.5922 32.4453 15.6096V18.3337C32.4447 18.3512 32.4374 18.3679 32.425 18.3803C32.4126 18.3927 32.3959 18.4 32.3784 18.4006H30.0246C30.0071 18.4 29.9904 18.3927 29.978 18.3803C29.9656 18.3679 29.9583 18.3512 29.9577 18.3337V15.6024C29.9584 15.5851 29.9657 15.5687 29.9782 15.5566C29.9906 15.5446 30.0073 15.5379 30.0246 15.5379V15.5451ZM25.9791 15.5451H28.3328C28.3502 15.545 28.3668 15.5518 28.3793 15.5638C28.3918 15.5758 28.3991 15.5922 28.3997 15.6096V18.3337C28.3992 18.3512 28.3919 18.3679 28.3795 18.3803C28.3671 18.3927 28.3504 18.4 28.3328 18.4006H25.9791C25.9614 18.4006 25.9444 18.3935 25.9318 18.381C25.9193 18.3684 25.9122 18.3514 25.9122 18.3337V15.6024C25.9122 15.5937 25.914 15.5851 25.9173 15.5772C25.9207 15.5692 25.9257 15.5619 25.932 15.5559C25.9382 15.5499 25.9456 15.5452 25.9537 15.5421C25.9618 15.539 25.9705 15.5376 25.9791 15.5379V15.5451ZM30.0246 21.0124H32.3784C32.3959 21.013 32.4126 21.0202 32.425 21.0326C32.4374 21.045 32.4447 21.0617 32.4453 21.0793V23.801C32.4447 23.8185 32.4374 23.8352 32.425 23.8476C32.4126 23.8601 32.3959 23.8673 32.3784 23.8679H30.0246C30.0071 23.8673 29.9904 23.8601 29.978 23.8476C29.9656 23.8352 29.9583 23.8185 29.9577 23.801V21.0793C29.9583 21.0617 29.9656 21.045 29.978 21.0326C29.9904 21.0202 30.0071 21.013 30.0246 21.0124ZM25.9791 21.0124H28.3328C28.3504 21.013 28.3671 21.0202 28.3795 21.0326C28.3919 21.045 28.3992 21.0617 28.3997 21.0793V23.801C28.3992 23.8185 28.3919 23.8352 28.3795 23.8476C28.3671 23.8601 28.3504 23.8673 28.3328 23.8679H27.616V22.967L25.917 21.6193V21.0793C25.917 21.0615 25.924 21.0445 25.9366 21.032C25.9491 21.0194 25.9662 21.0124 25.9839 21.0124H25.9791Z" fill="#9833DB"/>
</g>
<defs>
<clipPath id="clip0_1349_4174">
<rect width="29.3629" height="27.6042" fill="white" transform="translate(6 7)"/>
</clipPath>
</defs>
</svg>
