<svg width="56" height="56" viewBox="0 0 56 56" fill="none" xmlns="http://www.w3.org/2000/svg">
<rect width="56" height="56" rx="5.33333" fill="#FEEFDF"/>
<path d="M30.7158 41.8711L30.7153 41.8726C30.549 42.3251 30.1601 42.646 29.6775 42.7099L29.6769 42.71C28.7006 42.8356 27.7145 42.8655 26.7324 42.7993C26.7324 42.7993 26.7324 42.7993 26.7324 42.7993L26.7436 42.633L30.7158 41.8711ZM30.7158 41.8711C31.0362 40.9726 30.2899 40.0488 29.3443 40.1741L29.3662 40.3393L29.3447 40.1741C28.5104 40.2826 27.6432 40.3036 26.8004 40.2396C23.855 40.0158 21.2069 38.7283 19.239 36.7604C17.0671 34.5885 15.7242 31.5889 15.7242 28.2752C15.7242 24.961 17.0671 21.9614 19.239 19.7901L19.239 19.79C21.4104 17.6181 24.4106 16.2752 27.7242 16.2752C28.8927 16.2752 30.0119 16.4381 31.061 16.7409C31.7538 16.9411 32.4266 17.2037 33.0713 17.5254M30.7158 41.8711L33.0713 17.5254M34.3003 15.0281L34.3003 15.0279C34.0309 14.3195 34.3864 13.5269 35.0941 13.2569L35.0943 13.2568C35.8027 12.9874 36.5952 13.343 36.8653 14.0513M34.3003 15.0281L36.7095 14.1107M34.3003 15.0281L34.424 15.3517C33.5771 14.9119 32.6884 14.5569 31.7708 14.2921L34.3003 15.0281ZM36.8653 14.0513L36.7095 14.1107M36.8653 14.0513L36.8652 14.0512L36.7095 14.1107M36.8653 14.0513L38.0642 17.1884L38.0644 17.1889C38.1146 17.3216 38.1443 17.4613 38.1524 17.603M36.7095 14.1107L37.9085 17.2479C37.9537 17.3673 37.98 17.493 37.9864 17.6204M38.1524 17.603C38.1519 17.6 38.1515 17.597 38.151 17.594L37.9864 17.6204M38.1524 17.603C38.1526 17.606 38.1527 17.609 38.1529 17.612L37.9864 17.6204M38.1524 17.603C38.2544 18.2655 37.8567 18.9201 37.1965 19.1204L37.1967 19.1203L37.148 18.961M37.9864 17.6204C38.0804 18.205 37.7303 18.7844 37.148 18.961M37.148 18.961L37.1963 19.1204M37.148 18.961L33.9368 19.9433C33.3012 20.1358 32.6301 19.7771 32.4375 19.1421C32.245 18.507 32.6037 17.8353 33.2387 17.6428M37.1963 19.1204L33.1904 17.4833M37.1963 19.1204L33.9856 20.1026L33.9851 20.1028C33.2615 20.322 32.4973 19.9136 32.278 19.1904C32.0711 18.5081 32.4232 17.7885 33.0713 17.5254M37.1963 19.1204L33.0713 17.5254M33.2387 17.6428L33.2272 17.6046M33.2387 17.6428L33.227 17.6045M33.2387 17.6428L33.0713 17.5254M33.2272 17.6046C33.244 17.6133 33.2609 17.6221 33.2777 17.6309L33.503 17.562C33.4337 17.5245 33.3641 17.4877 33.2941 17.4516L33.1904 17.4833M33.2272 17.6046L33.1904 17.4833M33.2272 17.6046C33.2271 17.6045 33.2271 17.6045 33.227 17.6045M33.1904 17.4833C33.1903 17.4833 33.1902 17.4834 33.1901 17.4834L33.19 17.4834L33.227 17.6045M33.227 17.6045C33.1753 17.5777 33.1234 17.5514 33.0713 17.5254M38.7471 23.5451L38.7466 23.5441C38.4834 22.9257 38.1681 22.3367 37.8048 21.7697L37.8048 21.7696C37.6225 21.4847 37.5634 21.16 37.6255 20.831L37.6259 20.8289C37.8538 19.702 39.3286 19.4213 39.955 20.3842L39.9555 20.3851C40.3941 21.0688 40.7779 21.787 41.0969 22.5346L38.7471 23.5451ZM38.7471 23.5451C39.0333 24.2051 39.8023 24.503 40.457 24.201M38.7471 23.5451L38.9 23.4788C39.1493 24.0537 39.8181 24.3121 40.3872 24.0497M40.3872 24.0497L40.4569 24.2011C40.4569 24.2011 40.457 24.201 40.457 24.201M40.3872 24.0497C40.9357 23.7975 41.1816 23.155 40.9437 22.6002L40.3872 24.0497ZM40.457 24.201C41.0877 23.9109 41.3701 23.1722 41.097 22.5348L40.457 24.201ZM32.4462 31.076L32.4461 31.0759L27.9121 29.0829V22.422C27.9121 21.7161 27.3394 21.1435 26.6336 21.1435C25.9272 21.1435 25.3545 21.7161 25.3545 22.422V29.9167C25.3545 30.463 25.6974 30.9288 26.179 31.1123L31.4168 33.4145C31.4168 33.4145 31.4168 33.4145 31.4168 33.4145C32.0627 33.6985 32.8166 33.4053 33.1007 32.76L33.1007 32.7599C33.3847 32.1142 33.0922 31.3601 32.4462 31.076ZM33.1662 39.0018L33.1651 39.0023C32.1362 39.5286 32.2732 41.0383 33.3819 41.3696L33.3842 41.3703C33.7025 41.4605 34.0233 41.433 34.3214 41.2839L34.3217 41.2838C35.0478 40.9189 35.7448 40.4893 36.3982 40.0069L36.3988 40.0065C36.7608 39.7366 36.9493 39.3101 36.9106 38.8618L36.9103 38.8597C36.8116 37.8664 35.6794 37.3622 34.8755 37.9521L34.8751 37.9524C34.3364 38.3502 33.7647 38.7012 33.1662 39.0018ZM37.6396 35.0715L37.6394 35.0718C37.0568 35.9405 37.7108 37.1081 38.7577 37.062L38.7593 37.0619C39.1654 37.0403 39.5328 36.8405 39.7626 36.4975C40.2184 35.8213 40.612 35.1135 40.9493 34.3717L40.9499 34.3703C41.3189 33.5389 40.7432 32.6053 39.8327 32.5664L39.831 32.5664C39.3096 32.5493 38.836 32.8413 38.6188 33.3171L38.6187 33.3174C38.3399 33.931 38.016 34.5132 37.6396 35.0715ZM39.6556 29.4453L39.6556 29.4458C39.6095 29.9473 39.8539 30.4182 40.2868 30.6725L40.2889 30.6737C41.1018 31.1354 42.1065 30.6173 42.2019 29.6878L42.202 29.6865C42.2791 28.8742 42.2913 28.0697 42.2356 27.2552L42.2356 27.2547C42.204 26.8101 41.9467 26.4179 41.5519 26.2106L41.5512 26.2102C40.6648 25.7506 39.6134 26.4376 39.684 27.4342C39.7303 28.1079 39.7196 28.7721 39.6556 29.4453ZM34.2469 41.1348C34.9644 40.7743 35.6533 40.3497 36.2992 39.8728L33.4296 41.2099C33.7087 41.289 33.9867 41.2649 34.2469 41.1348Z" fill="#F49300" stroke="#F49300" stroke-width="0.333333"/>
</svg>
