<svg width="46" height="51" viewBox="0 0 46 51" fill="none" xmlns="http://www.w3.org/2000/svg">
<mask id="path-1-outside-1_1349_4533" maskUnits="userSpaceOnUse" x="0" y="0" width="46" height="51" fill="black">
<rect fill="white" width="46" height="51"/>
<path fill-rule="evenodd" clip-rule="evenodd" d="M36.7359 47.3548C37.9262 46.5951 39.5069 47.368 39.6393 48.7744C39.6603 49.0243 39.6348 49.2688 39.5669 49.4978H32.2943C32.4643 49.4387 32.6341 49.3773 32.8034 49.3134C34.1683 48.7987 35.5093 48.1335 36.7359 47.3548ZM18.7426 49.4978C18.6379 49.4616 18.5335 49.4246 18.4295 49.3867C13.4454 47.5726 9.15395 43.8577 6.73561 38.6715C4.31685 33.4845 4.22953 27.8091 6.04399 22.826C7.85715 17.8423 11.573 13.5505 16.7591 11.1321C18.5869 10.2798 20.4575 9.71774 22.3215 9.42585C23.7779 9.19829 25.2545 9.12795 26.7259 9.21603L26.3762 9.53095C25.5345 10.2853 25.4642 11.5804 26.2186 12.4221C26.973 13.2637 28.2672 13.3345 29.1097 12.5797L33.3596 8.7518C34.1315 8.06017 34.2549 6.91366 33.689 6.07892C33.5873 5.88676 33.4563 5.71167 33.3006 5.55996L29.1915 1.58011C28.3772 0.790113 27.0774 0.80919 26.287 1.6226C25.4979 2.43648 25.517 3.73624 26.3304 4.52665L27.303 5.46903C25.4468 5.33154 23.581 5.40761 21.7421 5.69573C19.5005 6.04631 17.2849 6.70679 15.158 7.69856C9.02348 10.5592 4.62983 15.6356 2.48432 21.5303C0.338818 27.4251 0.441455 34.1381 3.30205 40.2726C5.0612 44.0451 7.65889 47.1598 10.7697 49.4978H18.7426ZM17.9029 22.4639C17.4611 21.5164 17.8714 20.389 18.8198 19.9468C19.7673 19.505 20.8946 19.9153 21.3365 20.8628L26.2095 31.313L34.8285 31.1218C35.8734 31.0988 36.7381 31.9277 36.7611 32.9726C36.7837 34.0165 35.9552 34.8821 34.9103 34.9051L25.1604 35.1218C24.3958 35.1799 23.6406 34.7684 23.2978 34.0332L17.9029 22.4639ZM41.8618 42.7306C40.8095 44.0819 41.9386 46.023 43.6351 45.7737C43.9803 45.7179 44.2873 45.5828 44.5465 45.3711V39.0689C44.2352 39.2338 43.9623 39.4912 43.771 39.8402C43.2181 40.8563 42.5793 41.8233 41.8618 42.7306ZM43.6219 19.8685C43.0472 18.8339 43.5605 17.6142 44.5465 17.2003V21.7606C44.2709 21.1163 43.9641 20.4875 43.6219 19.8685ZM39.3163 14.4648C40.1149 15.1727 41.3335 15.0903 42.023 14.2754C42.6882 13.4913 42.6052 12.3226 41.8387 11.6374C40.8204 10.7239 39.7236 9.90087 38.567 9.16921C37.1225 8.2681 35.3183 9.56827 35.7181 11.2247C35.8415 11.7089 36.1237 12.1062 36.5474 12.375C37.5288 12.9966 38.4523 13.6883 39.3163 14.4648Z"/>
</mask>
<path fill-rule="evenodd" clip-rule="evenodd" d="M36.7359 47.3548C37.9262 46.5951 39.5069 47.368 39.6393 48.7744C39.6603 49.0243 39.6348 49.2688 39.5669 49.4978H32.2943C32.4643 49.4387 32.6341 49.3773 32.8034 49.3134C34.1683 48.7987 35.5093 48.1335 36.7359 47.3548ZM18.7426 49.4978C18.6379 49.4616 18.5335 49.4246 18.4295 49.3867C13.4454 47.5726 9.15395 43.8577 6.73561 38.6715C4.31685 33.4845 4.22953 27.8091 6.04399 22.826C7.85715 17.8423 11.573 13.5505 16.7591 11.1321C18.5869 10.2798 20.4575 9.71774 22.3215 9.42585C23.7779 9.19829 25.2545 9.12795 26.7259 9.21603L26.3762 9.53095C25.5345 10.2853 25.4642 11.5804 26.2186 12.4221C26.973 13.2637 28.2672 13.3345 29.1097 12.5797L33.3596 8.7518C34.1315 8.06017 34.2549 6.91366 33.689 6.07892C33.5873 5.88676 33.4563 5.71167 33.3006 5.55996L29.1915 1.58011C28.3772 0.790113 27.0774 0.80919 26.287 1.6226C25.4979 2.43648 25.517 3.73624 26.3304 4.52665L27.303 5.46903C25.4468 5.33154 23.581 5.40761 21.7421 5.69573C19.5005 6.04631 17.2849 6.70679 15.158 7.69856C9.02348 10.5592 4.62983 15.6356 2.48432 21.5303C0.338818 27.4251 0.441455 34.1381 3.30205 40.2726C5.0612 44.0451 7.65889 47.1598 10.7697 49.4978H18.7426ZM17.9029 22.4639C17.4611 21.5164 17.8714 20.389 18.8198 19.9468C19.7673 19.505 20.8946 19.9153 21.3365 20.8628L26.2095 31.313L34.8285 31.1218C35.8734 31.0988 36.7381 31.9277 36.7611 32.9726C36.7837 34.0165 35.9552 34.8821 34.9103 34.9051L25.1604 35.1218C24.3958 35.1799 23.6406 34.7684 23.2978 34.0332L17.9029 22.4639ZM41.8618 42.7306C40.8095 44.0819 41.9386 46.023 43.6351 45.7737C43.9803 45.7179 44.2873 45.5828 44.5465 45.3711V39.0689C44.2352 39.2338 43.9623 39.4912 43.771 39.8402C43.2181 40.8563 42.5793 41.8233 41.8618 42.7306ZM43.6219 19.8685C43.0472 18.8339 43.5605 17.6142 44.5465 17.2003V21.7606C44.2709 21.1163 43.9641 20.4875 43.6219 19.8685ZM39.3163 14.4648C40.1149 15.1727 41.3335 15.0903 42.023 14.2754C42.6882 13.4913 42.6052 12.3226 41.8387 11.6374C40.8204 10.7239 39.7236 9.90087 38.567 9.16921C37.1225 8.2681 35.3183 9.56827 35.7181 11.2247C35.8415 11.7089 36.1237 12.1062 36.5474 12.375C37.5288 12.9966 38.4523 13.6883 39.3163 14.4648Z" fill="#F5F1EC"/>
<path d="M39.6393 48.7744L40.205 48.7267L40.2045 48.7212L39.6393 48.7744ZM36.7359 47.3548L37.0402 47.8341L37.0413 47.8333L36.7359 47.3548ZM39.5669 49.4978V50.0656H39.9907L40.1112 49.6593L39.5669 49.4978ZM32.2943 49.4978L32.1079 48.9616L32.2943 50.0656V49.4978ZM32.8034 49.3134L33.0037 49.8447L33.0038 49.8447L32.8034 49.3134ZM18.7426 49.4978V50.0656L18.9283 48.9613L18.7426 49.4978ZM18.4295 49.3867L18.2353 49.9202H18.2353L18.4295 49.3867ZM6.73561 38.6715L7.25017 38.4316L6.73561 38.6715ZM6.04399 22.826L6.57748 23.0202L6.57753 23.0201L6.04399 22.826ZM16.7591 11.1321L16.9991 11.6467L16.7591 11.1321ZM22.3215 9.42585L22.2339 8.8649L22.2337 8.86493L22.3215 9.42585ZM26.7259 9.21603L27.1058 9.6379L28.1136 8.73032L26.7598 8.64929L26.7259 9.21603ZM26.3762 9.53095L26.7551 9.95374L26.7561 9.95283L26.3762 9.53095ZM29.1097 12.5797L29.4886 13.0026L29.4897 13.0016L29.1097 12.5797ZM33.3596 8.7518L32.9807 8.32898L32.9797 8.32994L33.3596 8.7518ZM33.689 6.07892L33.1872 6.34447L33.2017 6.37186L33.2191 6.3975L33.689 6.07892ZM33.3006 5.55996L33.6967 5.15329L33.6955 5.15214L33.3006 5.55996ZM29.1915 1.58011L28.7961 1.98761L28.7965 1.98794L29.1915 1.58011ZM26.287 1.6226L25.8798 1.22694L25.8794 1.22739L26.287 1.6226ZM26.3304 4.52665L25.9347 4.93383L25.9353 4.9344L26.3304 4.52665ZM27.303 5.46903L27.261 6.03523L28.8226 6.15089L27.698 5.06128L27.303 5.46903ZM21.7421 5.69573L21.8299 6.25666L21.83 6.25664L21.7421 5.69573ZM15.158 7.69856L15.398 8.21312L15.158 7.69856ZM2.48432 21.5303L3.01784 21.7245L2.48432 21.5303ZM3.30205 40.2726L3.81661 40.0327L3.30205 40.2726ZM10.7697 49.4978L10.4285 49.9517L10.5801 50.0656H10.7697V49.4978ZM18.8198 19.9468L19.0598 20.4614L18.8198 19.9468ZM17.9029 22.4639L17.3884 22.7038L17.9029 22.4639ZM21.3365 20.8628L20.8219 21.1027L21.3365 20.8628ZM26.2095 31.313L25.6949 31.5529L25.8516 31.8888L26.2221 31.8806L26.2095 31.313ZM34.8285 31.1218L34.8161 30.5542L34.8159 30.5542L34.8285 31.1218ZM36.7611 32.9726L37.3287 32.9603L37.3287 32.9601L36.7611 32.9726ZM34.9103 34.9051L34.8979 34.3375H34.8977L34.9103 34.9051ZM25.1604 35.1218L25.1477 34.5541L25.1325 34.5545L25.1173 34.5556L25.1604 35.1218ZM23.2978 34.0332L23.8124 33.7933V33.7933L23.2978 34.0332ZM43.6351 45.7737L43.7177 46.3355L43.7257 46.3342L43.6351 45.7737ZM41.8618 42.7306L41.4164 42.3785L41.4138 42.3818L41.8618 42.7306ZM44.5465 45.3711L44.9057 45.8108L45.1143 45.6404V45.3711H44.5465ZM44.5465 39.0689H45.1143V38.1256L44.2808 38.5672L44.5465 39.0689ZM43.771 39.8402L43.2732 39.5673L43.2724 39.5688L43.771 39.8402ZM44.5465 17.2003H45.1143V16.3463L44.3268 16.6768L44.5465 17.2003ZM43.6219 19.8685L44.1188 19.5938L44.1182 19.5928L43.6219 19.8685ZM44.5465 21.7606L44.0246 21.984L45.1143 21.7606H44.5465ZM42.023 14.2754L41.5901 13.9081L41.5896 13.9087L42.023 14.2754ZM39.3163 14.4648L38.9368 14.8871L38.9397 14.8897L39.3163 14.4648ZM41.8387 11.6374L41.4596 12.06L41.4604 12.0607L41.8387 11.6374ZM38.567 9.16921L38.8706 8.6894L38.8675 8.6875L38.567 9.16921ZM35.7181 11.2247L35.1661 11.3579L35.1679 11.365L35.7181 11.2247ZM36.5474 12.375L36.2432 12.8544L36.2436 12.8546L36.5474 12.375ZM40.2045 48.7212C40.0324 46.8925 37.9791 45.8878 36.4304 46.8762L37.0413 47.8333C37.8732 47.3024 38.9814 47.8436 39.074 48.8276L40.2045 48.7212ZM40.1112 49.6593C40.1996 49.3615 40.2319 49.0459 40.205 48.7267L39.0735 48.8221C39.0887 49.0026 39.0701 49.1762 39.0226 49.3364L40.1112 49.6593ZM32.2943 50.0656H39.5669V48.9301H32.2943V50.0656ZM32.6032 48.7822C32.4384 48.8443 32.2733 48.9041 32.1079 48.9616L32.4806 50.0341C32.6554 49.9734 32.8297 49.9103 33.0037 49.8447L32.6032 48.7822ZM36.4316 46.8755C35.2387 47.6328 33.9326 48.2808 32.6031 48.7822L33.0038 49.8447C34.4039 49.3166 35.7798 48.6343 37.0402 47.8341L36.4316 46.8755ZM18.9283 48.9613C18.8264 48.9261 18.7249 48.89 18.6236 48.8532L18.2353 49.9202C18.3422 49.9591 18.4494 49.9972 18.557 50.0344L18.9283 48.9613ZM18.6236 48.8532C13.7753 47.0885 9.60232 43.4758 7.25017 38.4316L6.22105 38.9115C8.70559 44.2396 13.1155 48.0568 18.2353 49.9202L18.6236 48.8532ZM7.25017 38.4316C4.89759 33.3865 4.81246 27.8676 6.57748 23.0202L5.5105 22.6317C3.6466 27.7507 3.7361 33.5825 6.22105 38.9115L7.25017 38.4316ZM6.57753 23.0201C8.34129 18.1722 11.9548 13.9988 16.9991 11.6467L16.5192 10.6175C11.1911 13.1021 7.37302 17.5124 5.51045 22.6318L6.57753 23.0201ZM16.9991 11.6467C18.7789 10.8167 20.5982 10.2704 22.4093 9.98677L22.2337 8.86493C20.3167 9.16511 18.395 9.74283 16.5192 10.6175L16.9991 11.6467ZM22.4092 9.9868C23.8253 9.76552 25.2612 9.69712 26.6919 9.78277L26.7598 8.64929C25.2478 8.55878 23.7304 8.63106 22.2339 8.8649L22.4092 9.9868ZM26.3459 8.79415L25.9962 9.10907L26.7561 9.95283L27.1058 9.6379L26.3459 8.79415ZM25.9972 9.10817C24.9219 10.072 24.8323 11.7261 25.7958 12.801L26.6414 12.0431C26.0961 11.4348 26.1472 10.4986 26.7551 9.95374L25.9972 9.10817ZM25.7958 12.801C26.7596 13.8763 28.4127 13.9664 29.4886 13.0026L28.7309 12.1568C28.1217 12.7026 27.1863 12.6511 26.6414 12.0431L25.7958 12.801ZM29.4897 13.0016L33.7396 9.17367L32.9797 8.32994L28.7298 12.1578L29.4897 13.0016ZM33.7386 9.17462C34.725 8.29063 34.8819 6.82671 34.159 5.76033L33.2191 6.3975C33.6279 7.00061 33.5379 7.8297 32.9807 8.32898L33.7386 9.17462ZM34.1909 5.81336C34.0615 5.56895 33.8948 5.34625 33.6967 5.15329L32.9044 5.96663C33.0177 6.07709 33.1132 6.20457 33.1872 6.34447L34.1909 5.81336ZM33.6955 5.15214L29.5865 1.17229L28.7965 1.98794L32.9056 5.96779L33.6955 5.15214ZM29.5868 1.17262C28.5477 0.164476 26.8887 0.188699 25.8798 1.22694L26.6942 2.01827C27.2661 1.42968 28.2067 1.41575 28.7961 1.98761L29.5868 1.17262ZM25.8794 1.22739C24.8722 2.26618 24.8966 3.92504 25.9347 4.93383L26.726 4.11948C26.1374 3.54744 26.1236 2.60678 26.6946 2.01781L25.8794 1.22739ZM25.9353 4.9344L26.9079 5.87677L27.698 5.06128L26.7254 4.11891L25.9353 4.9344ZM27.3449 4.90282C25.4454 4.76213 23.536 4.83997 21.6543 5.13482L21.83 6.25664C23.6259 5.97525 25.4482 5.90096 27.261 6.03523L27.3449 4.90282ZM21.6544 5.13479C19.3615 5.49339 17.0945 6.16912 14.9181 7.184L15.398 8.21312C17.4753 7.24447 19.6395 6.59923 21.8299 6.25666L21.6544 5.13479ZM14.9181 7.184C8.64155 10.1108 4.1457 15.3058 1.95081 21.3362L3.01784 21.7245C5.11396 15.9655 9.40541 11.0075 15.398 8.21312L14.9181 7.184ZM1.95081 21.3362C-0.244078 27.3666 -0.139313 34.236 2.78749 40.5126L3.81661 40.0327C1.02222 34.0401 0.921714 27.4836 3.01784 21.7245L1.95081 21.3362ZM2.78749 40.5126C4.58698 44.3716 7.24511 47.559 10.4285 49.9517L11.1108 49.044C8.07266 46.7605 5.53542 43.7187 3.81661 40.0327L2.78749 40.5126ZM10.7697 50.0656H18.7426V48.9301H10.7697V50.0656ZM18.5799 19.4322C17.3474 20.0069 16.8139 21.472 17.3884 22.7038L18.4175 22.2239C18.1082 21.5608 18.3954 20.7712 19.0598 20.4614L18.5799 19.4322ZM21.851 20.6229C21.2767 19.3911 19.8116 18.8579 18.5799 19.4322L19.0598 20.4614C19.7231 20.152 20.5126 20.4394 20.8219 21.1027L21.851 20.6229ZM26.724 31.073L21.851 20.6229L20.8219 21.1027L25.6949 31.5529L26.724 31.073ZM34.8159 30.5542L26.1969 30.7454L26.2221 31.8806L34.8411 31.6894L34.8159 30.5542ZM37.3287 32.9601C37.2989 31.6023 36.1749 30.5243 34.8161 30.5542L34.841 31.6894C35.5718 31.6733 36.1774 32.2532 36.1935 32.9851L37.3287 32.9601ZM34.9228 35.4728C36.2809 35.4429 37.3581 34.3177 37.3287 32.9603L36.1935 32.9848C36.2093 33.7153 35.6294 34.3214 34.8979 34.3375L34.9228 35.4728ZM25.173 35.6894L34.923 35.4728L34.8977 34.3375L25.1477 34.5541L25.173 35.6894ZM22.7832 34.2732C23.2294 35.2299 24.2115 35.7633 25.2034 35.6879L25.1173 34.5556C24.5802 34.5965 24.0519 34.3069 23.8124 33.7933L22.7832 34.2732ZM17.3884 22.7038L22.7832 34.2732L23.8124 33.7933L18.4175 22.2239L17.3884 22.7038ZM43.5526 45.212C42.3629 45.3868 41.5717 44.0272 42.3097 43.0795L41.4138 42.3818C40.0473 44.1367 41.5143 46.6592 43.7177 46.3354L43.5526 45.212ZM44.1874 44.9314C44.0097 45.0765 43.7966 45.1725 43.5446 45.2132L43.7257 46.3342C44.1639 46.2633 44.565 46.0891 44.9057 45.8108L44.1874 44.9314ZM43.9788 39.0689V45.3711H45.1143V39.0689H43.9788ZM44.2689 40.1131C44.406 39.863 44.5974 39.6844 44.8123 39.5706L44.2808 38.5672C43.873 38.7832 43.5187 39.1194 43.2732 39.5673L44.2689 40.1131ZM42.3071 43.0828C43.0447 42.1501 43.7013 41.1561 44.2697 40.1116L43.2724 39.5688C42.7348 40.5565 42.1139 41.4965 41.4164 42.3785L42.3071 43.0828ZM44.3268 16.6768C43.0512 17.2122 42.3752 18.7933 43.1256 20.1442L44.1182 19.5928C43.7192 18.8745 44.0698 18.0161 44.7663 17.7238L44.3268 16.6768ZM45.1143 21.7606V17.2003H43.9788V21.7606H45.1143ZM43.125 20.1432C43.4579 20.7453 43.7563 21.357 44.0246 21.984L45.0685 21.5373C44.7854 20.8757 44.4703 20.2297 44.1188 19.5938L43.125 20.1432ZM41.5896 13.9087C41.1076 14.4782 40.2551 14.5382 39.6929 14.0399L38.9397 14.8897C39.9748 15.8072 41.5593 15.7023 42.4564 14.6422L41.5896 13.9087ZM41.4604 12.0607C41.9983 12.5415 42.0553 13.3597 41.5901 13.9081L42.456 14.6427C43.321 13.6229 43.2122 12.1037 42.2171 11.2141L41.4604 12.0607ZM38.2635 9.64901C39.3945 10.3646 40.4659 11.1687 41.4596 12.06L42.2179 11.2148C41.1749 10.2792 40.0526 9.43719 38.8706 8.68941L38.2635 9.64901ZM36.27 11.0915C35.9895 9.92948 37.2531 9.01871 38.2665 9.65092L38.8675 8.6875C36.992 7.51749 34.6471 9.20705 35.1661 11.3579L36.27 11.0915ZM36.8516 11.8956C36.5533 11.7064 36.3568 11.4321 36.2682 11.0845L35.1679 11.365C35.3262 11.9858 35.6941 12.506 36.2432 12.8544L36.8516 11.8956ZM39.6958 14.0425C38.8067 13.2434 37.8575 12.5328 36.8512 11.8954L36.2436 12.8546C37.2 13.4604 38.0979 14.1332 38.9368 14.8871L39.6958 14.0425Z" fill="#F5F1EC" mask="url(#path-1-outside-1_1349_4533)"/>
</svg>
