<svg width="14" height="14" viewBox="0 0 14 14" fill="none" xmlns="http://www.w3.org/2000/svg">
<path d="M2.71875 5.84625C3.79875 7.96875 5.535 9.705 7.66125 10.785L9.31125 9.13125C9.5175 8.925 9.81375 8.865 10.0725 8.9475C10.9125 9.225 11.8162 9.375 12.75 9.375C13.1663 9.375 13.5 9.70875 13.5 10.125V12.75C13.5 13.1663 13.1663 13.5 12.75 13.5C5.7075 13.5 0 7.7925 0 0.75C0 0.33375 0.3375 0 0.75 0H3.375C3.79125 0 4.125 0.33375 4.125 0.75C4.125 1.68375 4.275 2.5875 4.5525 3.4275C4.635 3.68625 4.575 3.9825 4.36875 4.18875L2.71875 5.84625Z" fill="#444444"/>
</svg>
