<svg width="56" height="56" viewBox="0 0 56 56" fill="none" xmlns="http://www.w3.org/2000/svg">
<rect width="56" height="56" rx="5.33333" fill="#E2E8F7"/>
<path fill-rule="evenodd" clip-rule="evenodd" d="M46.8022 45.3708V10.1494H26.8347V22.3044L25.6466 21.3604V9.8304C25.6649 9.60777 25.7618 9.39892 25.92 9.24121C26.0084 9.15149 26.1139 9.08024 26.2301 9.03162C26.3463 8.98301 26.4711 8.95798 26.5971 8.95801H47.0398C47.165 8.95799 47.289 8.98271 47.4046 9.03075C47.5203 9.07879 47.6253 9.14921 47.7136 9.23796L47.7559 9.28353C47.9114 9.45709 47.9972 9.68202 47.9968 9.91504V19.098V45.3708H41.8542V37.3109C41.8542 37.1667 41.797 37.0284 41.695 36.9265C41.5931 36.8245 41.4548 36.7673 41.3106 36.7673H37.4402V46.5622H48.0001V45.3708H46.8022ZM10.5196 46.5589V34.915C10.0788 35.1014 9.58594 35.1245 9.12963 34.9801C8.82869 34.8793 8.56313 34.694 8.36465 34.4463C8.16386 34.1978 8.03746 33.8977 8.00007 33.5804C7.97366 33.2878 8.00645 32.9929 8.0965 32.7133C8.18654 32.4336 8.33198 32.175 8.52416 31.9528C8.54662 31.9255 8.57169 31.9004 8.59903 31.8779L21.0925 22.1123C21.1715 22.0381 21.2746 21.9949 21.3829 21.9907C21.4911 21.9865 21.5973 22.0216 21.6817 22.0895L34.2045 31.8226L34.2598 31.8714C34.5092 32.1136 34.6933 32.4148 34.7952 32.7471C34.8971 33.0795 34.9133 33.4322 34.8425 33.7725C34.7754 34.0552 34.6392 34.3168 34.446 34.5338C34.2528 34.7509 34.0088 34.9165 33.7357 35.016C33.4938 35.0997 33.2375 35.1341 32.9821 35.1174C32.7266 35.1006 32.4771 35.0329 32.2481 34.9183V46.5036H31.0372V34.4072C31.0372 34.1859 22.4467 27.3955 21.4994 26.6566C20.4936 27.4215 11.7338 34.1436 11.7338 34.4398V46.5622L10.5196 46.5589ZM21.4538 34.7393C22.7194 34.7461 23.931 35.2523 24.8253 36.1478C25.7195 37.0433 26.2241 38.2556 26.2292 39.5212V44.6156H16.6719V39.5212C16.6754 38.254 17.1803 37.0397 18.0763 36.1436C18.9724 35.2476 20.1867 34.7427 21.4538 34.7393ZM21.8673 35.5921V39.5342H25.4024C25.4033 38.5567 25.0428 37.6135 24.3902 36.8858C23.7376 36.1581 22.839 35.6973 21.8673 35.5921ZM21.8673 40.3643V43.7887H25.4024V40.3643H21.8673ZM21.0372 43.7887V40.3643H17.5053V43.7887H21.0372ZM21.0372 39.5374V35.5921C20.0685 35.6985 19.173 36.1579 18.5215 36.8827C17.87 37.6074 17.5083 38.5467 17.5053 39.5212L21.0372 39.5374ZM15.793 45.5205H27.1114V46.3506H15.793V45.5205ZM29.7058 13.1475H32.9122C32.9361 13.1483 32.9588 13.1581 32.9757 13.1751C32.9927 13.192 33.0025 13.2147 33.0033 13.2386V16.9495C33.0025 16.9731 32.9925 16.9955 32.9755 17.0119C32.9585 17.0283 32.9358 17.0374 32.9122 17.0374H29.7058C29.694 17.0379 29.6822 17.0359 29.6712 17.0317C29.6601 17.0275 29.65 17.0211 29.6415 17.0129C29.633 17.0047 29.6263 16.9948 29.6216 16.9839C29.617 16.9731 29.6146 16.9614 29.6147 16.9495V13.2386C29.6147 13.2144 29.6243 13.1913 29.6414 13.1742C29.6584 13.1571 29.6816 13.1475 29.7058 13.1475ZM40.7279 13.1475H43.9343C43.9582 13.1483 43.9809 13.1581 43.9979 13.1751C44.0148 13.192 44.0247 13.2147 44.0255 13.2386V16.9495C44.0246 16.9731 44.0146 16.9955 43.9976 17.0119C43.9806 17.0283 43.9579 17.0374 43.9343 17.0374H40.7279C40.7043 17.0374 40.6816 17.0283 40.6646 17.0119C40.6476 16.9955 40.6376 16.9731 40.6368 16.9495V13.2386C40.6376 13.2147 40.6475 13.192 40.6644 13.1751C40.6813 13.1581 40.704 13.1483 40.7279 13.1475ZM35.2169 13.1475H38.4233C38.4472 13.1483 38.4699 13.1581 38.4868 13.1751C38.5037 13.192 38.5136 13.2147 38.5144 13.2386V16.9495C38.5136 16.9731 38.5036 16.9955 38.4866 17.0119C38.4696 17.0283 38.4469 17.0374 38.4233 17.0374H35.2169C35.2051 17.0379 35.1933 17.0359 35.1822 17.0317C35.1712 17.0275 35.1611 17.0211 35.1526 17.0129C35.1441 17.0047 35.1373 16.9948 35.1327 16.9839C35.1281 16.9731 35.1257 16.9614 35.1257 16.9495V13.2386C35.1257 13.2144 35.1353 13.1913 35.1524 13.1742C35.1695 13.1571 35.1927 13.1475 35.2169 13.1475ZM29.7058 20.5986H32.9122C32.9358 20.5986 32.9585 20.6078 32.9755 20.6242C32.9925 20.6406 33.0025 20.6629 33.0033 20.6865V24.3975C33.0025 24.4214 32.9927 24.4441 32.9757 24.461C32.9588 24.4779 32.9361 24.4878 32.9122 24.4886H29.7058C29.6816 24.4886 29.6584 24.479 29.6414 24.4619C29.6243 24.4448 29.6147 24.4216 29.6147 24.3975V20.6768C29.6146 20.6649 29.617 20.6532 29.6216 20.6424C29.6263 20.6315 29.633 20.6216 29.6415 20.6134C29.65 20.6052 29.6601 20.5988 29.6712 20.5946C29.6822 20.5904 29.694 20.5884 29.7058 20.5889V20.5986ZM40.7279 20.5986H43.9343C43.9579 20.5986 43.9806 20.6078 43.9976 20.6242C44.0146 20.6406 44.0246 20.6629 44.0255 20.6865V24.3975C44.0247 24.4214 44.0148 24.4441 43.9979 24.461C43.9809 24.4779 43.9582 24.4878 43.9343 24.4886H40.7279C40.704 24.4878 40.6813 24.4779 40.6644 24.461C40.6475 24.4441 40.6376 24.4214 40.6368 24.3975V20.6768C40.6376 20.6532 40.6476 20.6308 40.6646 20.6144C40.6816 20.598 40.7043 20.5889 40.7279 20.5889V20.5986ZM35.2169 20.5986H38.4233C38.4469 20.5986 38.4696 20.6078 38.4866 20.6242C38.5036 20.6406 38.5136 20.6629 38.5144 20.6865V24.3975C38.5136 24.4214 38.5037 24.4441 38.4868 24.461C38.4699 24.4779 38.4472 24.4878 38.4233 24.4886H35.2169C35.1927 24.4886 35.1695 24.479 35.1524 24.4619C35.1353 24.4448 35.1257 24.4216 35.1257 24.3975V20.6768C35.1257 20.6649 35.1281 20.6532 35.1327 20.6424C35.1373 20.6315 35.1441 20.6216 35.1526 20.6134C35.1611 20.6052 35.1712 20.5988 35.1822 20.5946C35.1933 20.5904 35.2051 20.5884 35.2169 20.5889V20.5986ZM40.7279 28.0466H43.9343C43.9582 28.0474 43.9809 28.0572 43.9979 28.0741C44.0148 28.0911 44.0247 28.1138 44.0255 28.1377V31.8454C44.0247 31.8693 44.0148 31.892 43.9979 31.9089C43.9809 31.9258 43.9582 31.9357 43.9343 31.9365H40.7279C40.704 31.9357 40.6813 31.9258 40.6644 31.9089C40.6475 31.892 40.6376 31.8693 40.6368 31.8454V28.1377C40.6376 28.1138 40.6475 28.0911 40.6644 28.0741C40.6813 28.0572 40.704 28.0474 40.7279 28.0466ZM35.2169 28.0466H38.4233C38.4472 28.0474 38.4699 28.0572 38.4868 28.0741C38.5037 28.0911 38.5136 28.1138 38.5144 28.1377V31.8454C38.5136 31.8693 38.5037 31.892 38.4868 31.9089C38.4699 31.9258 38.4472 31.9357 38.4233 31.9365H37.4467V30.7093L35.1322 28.8734V28.1377C35.1322 28.1135 35.1418 28.0903 35.1589 28.0732C35.176 28.0562 35.1992 28.0466 35.2234 28.0466H35.2169Z" fill="#3B63C9"/>
</svg>
