<svg width="44" height="64" viewBox="0 0 44 64" fill="none" xmlns="http://www.w3.org/2000/svg">
<path fill-rule="evenodd" clip-rule="evenodd" d="M41.0296 34.0686L43.4835 32.6519V28.6272L42.435 26.8111C42.4164 26.7813 42.3871 26.7596 42.3532 26.7505C42.3192 26.7414 42.283 26.7456 42.252 26.7621L38.1714 29.118C38.1416 29.1366 38.1199 29.1659 38.1108 29.1999C38.1017 29.2338 38.1059 29.27 38.1224 29.301L40.8467 34.0196C40.8653 34.0494 40.8945 34.0711 40.9285 34.0802C40.9624 34.0893 40.9986 34.0852 41.0296 34.0686ZM43.4835 16.9551V20.4663L32.7516 1.87815L7.34003 16.5495L16.2711 32.0185L14.0653 31.6901L5.59354 17.0165C5.45325 16.7198 5.42314 16.3827 5.50861 16.0658C5.55525 15.8866 5.63706 15.7185 5.74927 15.5712C5.86147 15.4239 6.00184 15.3004 6.16221 15.2079L32.1786 0.187302C32.338 0.0952674 32.5139 0.0356238 32.6964 0.011799C32.8788 -0.0120258 33.0642 0.000437964 33.2419 0.0484727L33.3292 0.0753782C33.6546 0.182013 33.9291 0.40523 34.0998 0.702074L40.8471 12.3887L43.4835 16.9551ZM40.3949 42.6322L43.4835 47.9817V40.849L40.3949 42.6322ZM6.75197 63.482L4.77353 60.0552C4.34943 60.6163 3.7392 61.0078 3.05241 61.1594C2.59532 61.2522 2.12119 61.2114 1.68661 61.0421C1.24852 60.8734 0.867091 60.5842 0.586405 60.208C0.337811 59.855 0.162859 59.4556 0.0719851 59.0336C-0.0188886 58.6115 -0.0238218 58.1755 0.05748 57.7515C0.0659813 57.7002 0.0794701 57.6499 0.0977524 57.6012L8.82215 35.9932C8.86809 35.8408 8.96758 35.7101 9.1023 35.6252C9.23702 35.5403 9.39788 35.507 9.55524 35.5313L32.6439 38.7168L32.7502 38.7383C33.2455 38.8633 33.7011 39.1113 34.075 39.4594C34.4488 39.8075 34.7286 40.2444 34.8885 40.7295C35.0109 41.1386 35.0297 41.5717 34.9433 41.9898C34.857 42.408 34.6681 42.7981 34.3937 43.1253C34.1473 43.4096 33.8465 43.6417 33.509 43.8081C33.1716 43.9745 32.8043 44.0717 32.4287 44.094L40.9412 58.838L39.4001 59.7278L30.5121 44.3334C30.3494 44.0517 14.4274 41.7219 12.679 41.4775C11.9609 43.1901 5.75191 58.1813 5.96956 58.5582L8.81229 63.482H6.75197ZM32.4479 63.482L34.2915 62.4176L33.6816 61.3612L30.0083 63.482H32.4479ZM27.3486 63.482L31.894 60.8577L28.1508 54.3743C27.2144 52.7675 25.6815 51.5954 23.8854 51.1128C22.0894 50.6302 20.1754 50.8763 18.5598 51.7974C16.9497 52.7329 15.7753 54.2677 15.2933 56.0664C14.8114 57.8651 15.061 59.7815 15.9877 61.3967L17.1917 63.482H18.6057L17.6677 61.8573L22.1626 59.2622L24.5989 63.482H27.3486ZM19.7126 52.5791L22.6091 57.5959L27.1081 54.9984C26.391 53.7538 25.2391 52.8183 23.8739 52.3717C22.5087 51.9251 21.0266 51.9989 19.7126 52.5791ZM23.219 58.6523L25.7352 63.0105L30.2342 60.413L27.718 56.0548L23.219 58.6523ZM21.5551 58.21L18.6562 53.189C17.5016 54.0361 16.6995 55.2788 16.4029 56.6798C16.1063 58.0808 16.336 59.542 17.0483 60.7844L21.5551 58.21ZM13.1968 18.2554L17.2774 15.8995C17.3084 15.8829 17.3446 15.8788 17.3785 15.8879C17.4125 15.897 17.4417 15.9187 17.4604 15.9485L20.187 20.6712C20.2033 20.7019 20.207 20.7377 20.1974 20.771C20.1878 20.8044 20.1657 20.8327 20.1356 20.85L16.055 23.206C16.0403 23.2152 16.0239 23.2214 16.0067 23.2241C15.9896 23.2269 15.972 23.2261 15.9552 23.2219C15.9383 23.2177 15.9225 23.2102 15.9086 23.1997C15.8947 23.1893 15.8831 23.1761 15.8744 23.1611L13.1478 18.4384C13.13 18.4076 13.1252 18.371 13.1344 18.3367C13.1436 18.3024 13.166 18.2732 13.1968 18.2554ZM27.2241 10.1567L31.3047 7.80079C31.3357 7.78425 31.3719 7.78012 31.4058 7.78922C31.4398 7.79832 31.4691 7.81998 31.4877 7.84982L34.2143 12.5725C34.2306 12.6032 34.2343 12.639 34.2247 12.6723C34.2151 12.7057 34.193 12.734 34.1629 12.7514L30.0823 15.1073C30.0523 15.1247 30.0166 15.1297 29.983 15.1213C29.9493 15.113 29.9202 15.0918 29.9017 15.0624L27.1751 10.3397C27.1585 10.3087 27.1544 10.2725 27.1635 10.2385C27.1726 10.2046 27.1943 10.1753 27.2241 10.1567ZM20.2104 14.2061L24.291 11.8501C24.3221 11.8336 24.3582 11.8295 24.3922 11.8386C24.4262 11.8477 24.4554 11.8693 24.474 11.8992L27.2007 16.6219C27.2169 16.6525 27.2207 16.6883 27.2111 16.7217C27.2015 16.755 27.1793 16.7834 27.1493 16.8007L23.0687 19.1566C23.0539 19.1659 23.0375 19.172 23.0204 19.1748C23.0032 19.1775 22.9857 19.1768 22.9688 19.1726C22.952 19.1684 22.9361 19.1609 22.9223 19.1504C22.9084 19.1399 22.8968 19.1268 22.8881 19.1118L20.1614 14.389C20.1437 14.3583 20.1388 14.3217 20.148 14.2874C20.1572 14.2531 20.1797 14.2238 20.2104 14.2061ZM18.6716 27.7381L22.7522 25.3822C22.7823 25.3648 22.8179 25.3598 22.8516 25.3682C22.8853 25.3765 22.9144 25.3977 22.9328 25.4271L25.6595 30.1498C25.676 30.1808 25.6802 30.217 25.6711 30.251C25.662 30.2849 25.6403 30.3142 25.6105 30.3328L21.5299 32.6887C21.4991 32.7065 21.4625 32.7113 21.4282 32.7021C21.3939 32.6929 21.3647 32.6704 21.3469 32.6397L18.6131 27.9045C18.6044 27.8895 18.5988 27.8729 18.5967 27.8556C18.5945 27.8384 18.5959 27.8209 18.6007 27.8042C18.6055 27.7875 18.6136 27.7719 18.6246 27.7584C18.6356 27.745 18.6491 27.7338 18.6645 27.7257L18.6716 27.7381ZM32.699 19.6395L36.7796 17.2835C36.8096 17.2661 36.8452 17.2611 36.8789 17.2695C36.9126 17.2779 36.9417 17.299 36.9601 17.3284L39.6868 22.0511C39.7033 22.0822 39.7075 22.1183 39.6984 22.1523C39.6893 22.1862 39.6676 22.2155 39.6378 22.2341L35.5572 24.59C35.5261 24.6066 35.49 24.6107 35.456 24.6016C35.4221 24.5925 35.3928 24.5708 35.3742 24.541L32.6404 19.8059C32.6241 19.7752 32.6204 19.7394 32.63 19.7061C32.6395 19.6727 32.6617 19.6444 32.6918 19.627L32.699 19.6395ZM25.6853 23.6888L29.7659 21.3329C29.7959 21.3155 29.8316 21.3105 29.8652 21.3188C29.8989 21.3272 29.9281 21.3483 29.9465 21.3777L32.6731 26.1005C32.6897 26.1315 32.6938 26.1677 32.6847 26.2016C32.6756 26.2356 32.6539 26.2648 32.6241 26.2834L28.5435 28.6394C28.5127 28.6571 28.4762 28.6619 28.4419 28.6527C28.4076 28.6436 28.3783 28.6211 28.3605 28.5903L25.6267 23.8552C25.618 23.8402 25.6124 23.8235 25.6103 23.8063C25.6082 23.789 25.6096 23.7715 25.6144 23.7548C25.6192 23.7381 25.6273 23.7226 25.6383 23.7091C25.6492 23.6956 25.6628 23.6845 25.6781 23.6764L25.6853 23.6888ZM31.1656 33.1628L31.166 33.1626L35.2384 30.8114C35.2694 30.7949 35.3055 30.7908 35.3395 30.7999C35.3735 30.809 35.4027 30.8306 35.4213 30.8605L38.1456 35.579C38.1621 35.6101 38.1663 35.6462 38.1572 35.6802C38.1481 35.7142 38.1264 35.7434 38.0966 35.762L36.8538 36.4796L35.952 34.9177L31.6576 34.2818L31.117 33.3456C31.0993 33.3148 31.0944 33.2782 31.1036 33.2439C31.1128 33.2098 31.1351 33.1806 31.1656 33.1628Z" fill="#F2F3F8"/>
</svg>
