<svg width="42" height="42" viewBox="0 0 42 42" fill="none" xmlns="http://www.w3.org/2000/svg">
<rect width="42" height="42" rx="4" fill="#FFF2F2"/>
<path d="M21 10C18.8244 10 16.6977 10.6451 14.8887 11.8538C13.0798 13.0625 11.6699 14.7805 10.8373 16.7905C10.0048 18.8005 9.78693 21.0122 10.2114 23.146C10.6358 25.2798 11.6835 27.2398 13.2218 28.7782C14.7602 30.3166 16.7202 31.3642 18.854 31.7886C20.9878 32.2131 23.1995 31.9952 25.2095 31.1627C27.2195 30.3301 28.9375 28.9202 30.1462 27.1113C31.3549 25.3023 32 23.1756 32 21C32 18.0826 30.8411 15.2847 28.7782 13.2218C26.7153 11.1589 23.9174 10 21 10ZM25.707 24.293C25.8025 24.3852 25.8787 24.4956 25.9311 24.6176C25.9835 24.7396 26.0111 24.8708 26.0123 25.0036C26.0134 25.1364 25.9881 25.2681 25.9378 25.391C25.8875 25.5138 25.8133 25.6255 25.7194 25.7194C25.6255 25.8133 25.5139 25.8875 25.391 25.9378C25.2681 25.9881 25.1364 26.0134 25.0036 26.0123C24.8708 26.0111 24.7396 25.9835 24.6176 25.9311C24.4956 25.8787 24.3853 25.8025 24.293 25.707L21 22.414L17.707 25.707C17.6148 25.8025 17.5044 25.8787 17.3824 25.9311C17.2604 25.9835 17.1292 26.0111 16.9964 26.0123C16.8636 26.0134 16.7319 25.9881 16.6091 25.9378C16.4862 25.8875 16.3745 25.8133 16.2806 25.7194C16.1867 25.6255 16.1125 25.5138 16.0622 25.391C16.0119 25.2681 15.9866 25.1364 15.9878 25.0036C15.9889 24.8708 16.0165 24.7396 16.0689 24.6176C16.1213 24.4956 16.1975 24.3852 16.293 24.293L19.586 21L16.293 17.707C16.1975 17.6148 16.1213 17.5044 16.0689 17.3824C16.0165 17.2604 15.9889 17.1292 15.9878 16.9964C15.9866 16.8636 16.0119 16.7319 16.0622 16.609C16.1125 16.4861 16.1867 16.3745 16.2806 16.2806C16.3745 16.1867 16.4862 16.1125 16.6091 16.0622C16.7319 16.0119 16.8636 15.9866 16.9964 15.9877C17.1292 15.9889 17.2604 16.0165 17.3824 16.0689C17.5044 16.1213 17.6148 16.1975 17.707 16.293L21 19.586L24.293 16.293C24.3853 16.1975 24.4956 16.1213 24.6176 16.0689C24.7396 16.0165 24.8708 15.9889 25.0036 15.9877C25.1364 15.9866 25.2681 16.0119 25.391 16.0622C25.5139 16.1125 25.6255 16.1867 25.7194 16.2806C25.8133 16.3745 25.8875 16.4861 25.9378 16.609C25.9881 16.7319 26.0134 16.8636 26.0123 16.9964C26.0111 17.1292 25.9835 17.2604 25.9311 17.3824C25.8787 17.5044 25.8025 17.6148 25.707 17.707L22.414 21L25.707 24.293Z" fill="#E72424"/>
</svg>
