<svg width="40" height="43" viewBox="0 0 40 43" fill="none" xmlns="http://www.w3.org/2000/svg">
<path fill-rule="evenodd" clip-rule="evenodd" d="M14.3215 2.32403C9.87534 4.39731 6.14381 7.74249 3.59881 11.9365C1.0538 16.1306 -0.190375 20.9851 0.0236139 25.8862C0.237603 30.7874 1.90014 35.515 4.801 39.4713C5.69321 40.6881 6.69025 41.8152 7.77735 42.8414L39.8412 42.8414V5.07765C37.8679 3.57333 35.6625 2.36025 33.2878 1.49594C27.106 -0.754035 20.2837 -0.456163 14.3215 2.32403ZM37.5619 27.0484C37.845 27.1459 38.1058 27.2988 38.3292 27.4982C38.5526 27.6976 38.734 27.9395 38.8629 28.2098C38.9918 28.48 39.0656 28.7732 39.0799 29.0723C39.0943 29.3714 39.049 29.6703 38.9465 29.9517C38.8441 30.233 38.6867 30.4912 38.4835 30.7111C38.2802 30.9309 38.0352 31.1081 37.7628 31.2323C37.4903 31.3565 37.1959 31.4252 36.8966 31.4343C36.5973 31.4435 36.2992 31.393 36.0197 31.2857L26.1517 27.694L22.5601 37.562C22.4626 37.8451 22.3097 38.1059 22.1103 38.3293C21.9109 38.5527 21.669 38.7341 21.3988 38.863C21.1285 38.9919 20.8353 39.0656 20.5362 39.08C20.2372 39.0944 19.9382 39.049 19.6569 38.9466C19.3755 38.8442 19.1173 38.6868 18.8975 38.4835C18.6776 38.2803 18.5004 38.0353 18.3762 37.7628C18.2521 37.4904 18.1834 37.1959 18.1742 36.8967C18.1651 36.5974 18.2156 36.2993 18.3229 36.0197L21.9145 26.1518L12.0466 22.5602C11.7635 22.4627 11.5026 22.3098 11.2793 22.1104C11.0559 21.911 10.8745 21.6691 10.7456 21.3988C10.6167 21.1286 10.5429 20.8354 10.5285 20.5363C10.5142 20.2372 10.5595 19.9383 10.6619 19.6569C10.7643 19.3756 10.9218 19.1174 11.125 18.8975C11.3282 18.6777 11.5732 18.5005 11.8457 18.3763C12.1181 18.2521 12.4126 18.1834 12.7119 18.1743C13.0112 18.1651 13.3093 18.2157 13.5888 18.3229L23.4567 21.9146L27.0484 12.0466C27.1459 11.7635 27.2988 11.5027 27.4982 11.2793C27.6976 11.056 27.9394 10.8745 28.2097 10.7456C28.4799 10.6167 28.7732 10.543 29.0722 10.5286C29.3713 10.5142 29.6703 10.5596 29.9516 10.662C30.233 10.7644 30.4911 10.9218 30.711 11.1251C30.9309 11.3283 31.1081 11.5733 31.2323 11.8458C31.3564 12.1182 31.4251 12.4127 31.4343 12.7119C31.4434 13.0112 31.3929 13.3093 31.2856 13.5889L27.694 23.4568L37.5619 27.0484Z" fill="#FAF4F4"/>
</svg>
