<svg width="40" height="40" viewBox="0 0 40 40" fill="none" xmlns="http://www.w3.org/2000/svg">
<path fill-rule="evenodd" clip-rule="evenodd" d="M22.781 24.1991C19.6426 26.6416 15.1029 26.4205 12.2181 23.5358C9.09395 20.4116 9.09395 15.3462 12.2181 12.2221C15.3423 9.09786 20.4077 9.09786 23.5319 12.2221C26.4166 15.1068 26.6377 19.6464 24.1952 22.7849L28.4816 27.0713C28.8722 27.4618 28.8722 28.095 28.4816 28.4855C28.0911 28.876 27.4579 28.876 27.0674 28.4855L22.781 24.1991ZM13.6324 22.1215C15.9755 24.4647 19.7745 24.4647 22.1176 22.1215C24.4608 19.7784 24.4608 15.9794 22.1176 13.6363C19.7745 11.2931 15.9755 11.2931 13.6324 13.6363C11.2892 15.9794 11.2892 19.7784 13.6324 22.1215Z" fill="#667085"/>
</svg>
