<svg width="24" height="24" viewBox="0 0 24 24" fill="none" xmlns="http://www.w3.org/2000/svg">
<path fill-rule="evenodd" clip-rule="evenodd" d="M15.999 12C15.999 14.2091 14.2082 16 11.999 16C9.78988 16 7.99902 14.2091 7.99902 12C7.99902 9.79086 9.78988 8 11.999 8C14.2082 8 15.999 9.79086 15.999 12ZM13.999 12C13.999 13.1046 13.1036 14 11.999 14C10.8945 14 9.99902 13.1046 9.99902 12C9.99902 10.8954 10.8945 10 11.999 10C13.1036 10 13.999 10.8954 13.999 12Z" fill="#667085"/>
<path fill-rule="evenodd" clip-rule="evenodd" d="M3.50929 13.4144L4.16506 13.0204C4.12195 12.6863 4.09972 12.3458 4.09972 12C4.09972 11.6543 4.12195 11.3137 4.16504 10.9797L3.51066 10.5866C2.56386 10.0177 2.2575 8.78894 2.8264 7.84214L4.01912 5.85712C4.58801 4.91032 5.81673 4.60397 6.76353 5.17286L7.41813 5.56619C7.85938 5.25176 8.33435 4.9816 8.83657 4.76217V4C8.83657 2.89543 9.732 2 10.8366 2H13.1524C14.2569 2 15.1524 2.89543 15.1524 4V4.76217C15.6546 4.98161 16.1296 5.25178 16.5708 5.56622L17.2269 5.17199C18.1737 4.6031 19.4025 4.90945 19.9713 5.85625L21.1641 7.84127C21.733 8.78807 21.4266 10.0168 20.4798 10.5857L19.8239 10.9798C19.867 11.3138 19.8892 11.6543 19.8892 12C19.8892 12.3457 19.867 12.6863 19.8239 13.0203L20.4783 13.4135C21.4251 13.9824 21.7314 15.2111 21.1625 16.1579L19.9698 18.1429C19.4009 19.0897 18.1722 19.3961 17.2254 18.8272L16.5707 18.4338C16.1295 18.7483 15.6546 19.0184 15.1524 19.2378V20C15.1524 21.1046 14.2569 22 13.1524 22H10.8366C9.732 22 8.83657 21.1046 8.83657 20V19.2378C8.33439 19.0184 7.85945 18.7483 7.41822 18.4339L6.76216 18.8281C5.81536 19.397 4.58665 19.0906 4.01775 18.1438L2.82503 16.1588C2.25613 15.212 2.56249 13.9833 3.50929 13.4144ZM9.63731 6.59488L10.8366 6.0709V4L13.1524 4V6.0709L14.3516 6.59488C14.7259 6.75839 15.0804 6.95997 15.4102 7.195L16.4775 7.95556L18.257 6.88633L19.4497 8.87135L17.673 9.93891L17.8403 11.2357C17.8725 11.4851 17.8892 11.7401 17.8892 12C17.8892 12.2599 17.8725 12.515 17.8403 12.7644L17.673 14.0612L19.4482 15.1278L18.2555 17.1129L16.4774 16.0445L15.4101 16.805C15.0803 17.0401 14.7258 17.2416 14.3516 17.4051L13.1524 17.9291V20H10.8366V17.9291L9.63731 17.4051C9.26311 17.2416 8.90862 17.0401 8.57883 16.8051L7.51151 16.0446L5.73208 17.1137L4.53936 15.1287L6.31596 14.0612L6.14861 12.7644C6.11643 12.515 6.09972 12.26 6.09972 12C6.09972 11.7401 6.11643 11.485 6.1486 11.2357L6.31593 9.93886L4.54073 8.87221L5.73345 6.88719L7.51144 7.95552L8.57876 7.19497C8.90858 6.95995 9.26308 6.75839 9.63731 6.59488Z" fill="#667085"/>
</svg>
