<svg width="50" height="45" viewBox="0 0 50 45" fill="none" xmlns="http://www.w3.org/2000/svg">
<path fill-rule="evenodd" clip-rule="evenodd" d="M16.368 14.6867L31.2549 4.03792e-05L36.4882 5.30456L16.368 14.6867ZM32.4121 22.8388L47.6938 15.7129L44.6848 9.26013C43.7182 7.18728 41.2455 6.28736 39.1727 7.2539L38.6464 7.49935L10.203 20.7627L2.39462 24.4038C0.321861 25.3704 -0.578187 27.843 0.388397 29.9159L7.19352 44.5095L48.9397 44.5095L49.4429 44.2749V28.6387L37.6754 34.126C35.6026 35.0926 33.1299 34.1926 32.1634 32.1198L30.4059 28.351C29.4393 26.2781 30.3394 23.8053 32.4121 22.8388ZM48.9233 18.3466L49.4429 19.461V25.4382L36.4506 31.4965C35.8289 31.7865 35.0872 31.5166 34.7973 30.8948L33.0399 27.1259C32.7499 26.5042 33.0198 25.7624 33.6416 25.4725L33.6416 25.4726L48.9233 18.3466ZM37.7583 29.3361C36.7983 29.7838 35.657 29.3685 35.2092 28.4083C34.7615 27.4482 35.1769 26.3069 36.137 25.8592C37.0972 25.4115 38.2384 25.8268 38.6862 26.787C39.1338 27.7472 38.7184 28.8884 37.7583 29.3361Z" fill="#EEF5F1"/>
</svg>
