<svg width="42" height="42" viewBox="0 0 42 42" fill="none" xmlns="http://www.w3.org/2000/svg">
<rect width="42" height="42" rx="4" fill="#E4F8EA"/>
<path d="M24.4093 20.8452C24.1004 20.8452 23.8492 21.0965 23.8492 21.4053V23.2771C23.8492 23.5859 24.1005 23.8371 24.4093 23.8371H31.999V20.8453H24.4093V20.8452ZM25.3537 23.2045C24.8769 23.2045 24.4903 22.818 24.4903 22.3411C24.4903 21.8643 24.8768 21.4777 25.3537 21.4777C25.8306 21.4777 26.2171 21.8642 26.2171 22.3411C26.2171 22.818 25.8305 23.2045 25.3537 23.2045Z" fill="#26C870"/>
<path d="M24.4103 19.5381H32V16.3333C32 15.3038 31.1625 14.4663 30.133 14.4663H29.8716H15.7451H11.867C10.8375 14.4663 10 15.3038 10 16.3333V29.6556C10 30.6851 10.8375 31.5227 11.867 31.5227H30.133C31.1625 31.5227 32 30.6851 32 29.6556V25.1439H24.4103C23.3808 25.1439 22.5433 24.3064 22.5433 23.2769V21.4051C22.5433 20.3756 23.3809 19.5381 24.4103 19.5381Z" fill="#26C870"/>
<path d="M28.2814 10L19.4144 13.1595H29.4072L28.2814 10Z" fill="#26C870"/>
</svg>
