<svg width="49" height="41" viewBox="0 0 49 41" fill="none" xmlns="http://www.w3.org/2000/svg">
<path fill-rule="evenodd" clip-rule="evenodd" d="M41.0608 20.9175C43.5588 19.4128 46.4097 18.1486 48.0466 17.5574V22.3821C45.1969 20.9621 42.2166 21.022 41.1484 21.0881C41.0716 21.0914 41.0322 21.0514 41.0218 21.0192C41.014 20.9963 41.0195 20.9495 41.0608 20.9175ZM30.3066 31.1008C37.8524 26.7443 44.9997 24.1604 48.0466 28.4726V34.8438C46.9438 36.6651 45.0236 38.4683 42.6219 40.2173L19.4843 40.2173C21.154 37.0714 25.3357 33.9708 30.3066 31.1008ZM14.3635 40.2173C14.8711 37.8751 15.9699 36.0711 16.4487 35.3498C16.4868 35.2841 16.473 35.232 16.4491 35.2048C16.4344 35.1887 16.3931 35.1689 16.3447 35.1886C13.3279 36.8567 10.3595 39.1166 9.3392 40.0907C9.29094 40.1329 9.24321 40.1751 9.19603 40.2173H14.3635ZM31.5985 11.2331C34.6833 16.5762 32.8973 23.3197 27.5851 26.3867C22.2729 29.4537 15.5399 27.6286 12.455 22.2856C9.36904 16.9404 11.1574 10.201 16.4696 7.13402C21.7818 4.06702 28.5125 5.88797 31.5985 11.2331ZM35.789 9.04515C37.3615 11.7689 38.0141 14.7754 37.8067 17.7076C37.7854 18.0093 38.0848 18.2269 38.3694 18.1227C38.7612 17.9784 39.1498 17.8005 39.5304 17.5944C43.3234 15.5356 45.2805 11.1808 44.1046 7.00473C42.3543 0.803811 35.5214 -1.72545 30.3904 1.23693C29.8325 1.55903 29.3334 1.92641 28.8757 2.33267C28.8138 2.39019 28.7574 2.46646 28.7534 2.55345C28.7494 2.65949 28.8464 2.74277 28.9343 2.78214C31.7301 4.06512 34.1478 6.20261 35.789 9.04515ZM14.2304 32.2012C14.5991 31.9746 14.9467 31.7303 15.2684 31.4599C15.5009 31.2655 15.4622 30.8974 15.1902 30.765C12.5471 29.4785 10.2697 27.4101 8.69718 24.6864C7.05604 21.8438 6.41378 18.6813 6.70061 15.6185C6.71046 15.5227 6.68477 15.3983 6.59301 15.3475C6.51682 15.3096 6.41934 15.3194 6.34066 15.343C5.75793 15.5375 5.19018 15.7861 4.63229 16.1082C-0.498696 19.0706 -1.72473 26.2526 2.7723 30.8677C5.801 33.9741 10.5509 34.4566 14.2304 32.2012Z" fill="#F0F5F7"/>
</svg>
