<svg width="20" height="20" viewBox="0 0 20 20" fill="none" xmlns="http://www.w3.org/2000/svg">
<path d="M8.33073 8.12435C8.79097 8.12435 9.16406 8.49745 9.16406 8.95768V13.9577C9.16406 14.4179 8.79097 14.791 8.33073 14.791C7.87049 14.791 7.4974 14.4179 7.4974 13.9577V8.95768C7.4974 8.49745 7.87049 8.12435 8.33073 8.12435Z" fill="#667085"/>
<path d="M12.4974 8.95768C12.4974 8.49745 12.1243 8.12435 11.6641 8.12435C11.2038 8.12435 10.8307 8.49745 10.8307 8.95768V13.9577C10.8307 14.4179 11.2038 14.791 11.6641 14.791C12.1243 14.791 12.4974 14.4179 12.4974 13.9577V8.95768Z" fill="#667085"/>
<path fill-rule="evenodd" clip-rule="evenodd" d="M14.9974 4.99935V4.16602C14.9974 2.7853 13.8781 1.66602 12.4974 1.66602H7.4974C6.11668 1.66602 4.9974 2.7853 4.9974 4.16602V4.99935H3.7474C3.28716 4.99935 2.91406 5.37245 2.91406 5.83268C2.91406 6.29292 3.28716 6.66602 3.7474 6.66602H4.16406V15.8327C4.16406 17.2134 5.28335 18.3327 6.66406 18.3327H13.3307C14.7114 18.3327 15.8307 17.2134 15.8307 15.8327V6.66602H16.2474C16.7076 6.66602 17.0807 6.29292 17.0807 5.83268C17.0807 5.37245 16.7076 4.99935 16.2474 4.99935H14.9974ZM12.4974 3.33268H7.4974C7.03716 3.33268 6.66406 3.70578 6.66406 4.16602V4.99935H13.3307V4.16602C13.3307 3.70578 12.9576 3.33268 12.4974 3.33268ZM14.1641 6.66602H5.83073V15.8327C5.83073 16.2929 6.20383 16.666 6.66406 16.666H13.3307C13.791 16.666 14.1641 16.2929 14.1641 15.8327V6.66602Z" fill="#667085"/>
</svg>
