<svg width="10" height="14" viewBox="0 0 10 14" fill="none" xmlns="http://www.w3.org/2000/svg">
<path d="M9.61332 6.8901L5.56182 13.2847C5.49899 13.3827 5.41188 13.4629 5.30894 13.5173C5.20601 13.5717 5.09075 13.5986 4.97435 13.5953C4.91172 13.6052 4.84792 13.6052 4.78528 13.5953C4.64048 13.5532 4.51394 13.4639 4.42583 13.3415C4.33772 13.2191 4.29311 13.0708 4.2991 12.9201V8.86858H1.47656C1.2348 8.86862 0.997455 8.80375 0.789315 8.68076C0.581174 8.55776 0.409867 8.38115 0.293277 8.16935C0.176687 7.95756 0.119089 7.71835 0.126496 7.4767C0.133904 7.23505 0.206046 6.99982 0.33539 6.79556L4.38689 0.400951C4.4626 0.26946 4.5804 0.167301 4.72128 0.110949C4.86216 0.0545967 5.01791 0.0473356 5.16342 0.0903365C5.30822 0.132441 5.43476 0.221803 5.52288 0.34418C5.61099 0.466558 5.6556 0.614908 5.6496 0.765586V4.81708H8.47215C8.71391 4.81705 8.95125 4.88191 9.15939 5.00491C9.36753 5.1279 9.53884 5.30451 9.65543 5.51631C9.77202 5.7281 9.82962 5.96731 9.82221 6.20896C9.8148 6.45061 9.74266 6.68584 9.61332 6.8901Z" fill="#242426"/>
</svg>
